<svg width="113" height="113" viewBox="0 0 113 113" fill="none" xmlns="http://www.w3.org/2000/svg">
<path d="M57.5553 107.054H50.2585C49.6308 107.054 49.1221 106.547 49.1221 105.92C49.1221 105.294 49.6308 104.786 50.2585 104.786H57.5553C58.183 104.786 58.6914 105.294 58.6914 105.92C58.6914 106.547 58.1828 107.054 57.5553 107.054Z" fill="currentColor"/>
<path d="M55.2112 88.0004C54.8982 87.3315 54.1005 87.0422 53.4293 87.354C52.7582 87.6658 52.4678 88.4609 52.7807 89.1298C53.0937 89.7986 53.8914 90.088 54.5626 89.7762C55.2337 89.4643 55.5241 88.6692 55.2112 88.0004Z" fill="currentColor"/>
<path d="M50.7854 95.2455L43.1457 81.7529C42.837 81.2075 43.0296 80.5159 43.5761 80.2075C44.123 79.8997 44.8155 80.0918 45.1244 80.637L52.2471 93.2171L58.4456 90.3364L51.1886 79.54C50.839 79.0198 50.978 78.3154 51.4993 77.9664C52.0204 77.6173 52.7263 77.7563 53.076 78.2765L61.0727 90.1733C61.4552 90.7425 61.2295 91.5448 60.6086 91.833L52.2543 95.7155C52.0998 95.7875 51.2838 96.3036 50.7854 95.2455Z" fill="currentColor"/>
<path d="M98.4796 90.6838C92.7101 90.6838 88.0161 85.9925 88.0161 80.2257C88.0161 74.459 92.7101 69.7675 98.4796 69.7675C104.249 69.7675 108.943 74.459 108.943 80.2257C108.943 85.9925 104.249 90.6838 98.4796 90.6838ZM98.4796 72.0357C93.9631 72.0357 90.2887 75.7097 90.2887 80.226C90.2887 84.7418 93.9631 88.416 98.4796 88.416C102.996 88.416 106.67 84.742 106.67 80.226C106.67 75.7097 102.996 72.0357 98.4796 72.0357Z" fill="currentColor"/>
<path d="M55.2725 25.3872C49.5029 25.3872 44.8088 20.6959 44.8088 14.9291C44.8088 9.16239 49.5029 4.47107 55.2725 4.47107C61.042 4.47107 65.736 9.16239 65.736 14.9291C65.736 20.6959 61.042 25.3872 55.2725 25.3872ZM55.2725 6.73934C50.7558 6.73934 47.0814 10.4133 47.0814 14.9294C47.0814 19.4454 50.7558 23.1194 55.2725 23.1194C59.789 23.1194 63.4634 19.4454 63.4634 14.9294C63.4634 10.4133 59.7888 6.73934 55.2725 6.73934Z" fill="currentColor"/>
<path d="M96.7066 99.714H92.9686L92.969 93.4806C92.969 92.8545 92.4603 92.3467 91.8326 92.3467C91.2052 92.3467 90.6962 92.8543 90.6962 93.4806L90.6958 99.714H16.8921L16.8936 76.7307C16.8936 76.1046 16.385 75.5968 15.7573 75.5968C15.1298 75.5968 14.6209 76.1044 14.6209 76.7307L14.6193 99.714H10.8837C10.256 99.714 9.74731 100.224 9.74731 100.851C9.74731 107.014 14.7716 112.028 20.9471 112.028H86.643C92.8185 112.028 97.8428 107.014 97.8428 100.848C97.843 100.222 97.3343 99.714 96.7066 99.714ZM86.6432 109.761H20.9474C16.4095 109.761 12.6514 106.364 12.0921 101.982H95.4989C94.9401 106.363 91.1818 109.761 86.6432 109.761Z" fill="currentColor"/>
<path d="M39.5409 68.0656C38.353 68.0656 37.9872 66.4018 39.0606 65.9035L40.2649 65.3437C40.8332 65.0796 41.5095 65.3251 41.7746 65.8929C42.0396 66.4606 41.7932 67.1353 41.2242 67.3994L40.0199 67.9592C39.8647 68.0316 39.7016 68.0656 39.5409 68.0656Z" fill="currentColor"/>
<path d="M40.8063 71.1638C39.6184 71.1638 39.2526 69.5001 40.326 69.0017L41.5303 68.442C42.0988 68.1774 42.7749 68.4231 43.0399 68.9912C43.305 69.5588 43.0586 70.2335 42.4896 70.4977L41.2853 71.0574C41.1301 71.1299 40.967 71.1638 40.8063 71.1638Z" fill="currentColor"/>
<path d="M42.5977 74.2018C41.4098 74.2018 41.0438 72.5382 42.1172 72.0397L43.3213 71.4799C43.8902 71.2153 44.5663 71.4613 44.8311 72.0289C45.0961 72.5967 44.8498 73.2715 44.281 73.5356L43.0769 74.0953C42.9215 74.1678 42.7584 74.2018 42.5977 74.2018Z" fill="currentColor"/>
<path d="M88.7261 50.0965H71.0468C68.9309 46.4104 66.5202 43.0706 64.0312 40.4131C61.9594 38.2006 58.1043 34.6657 55.5625 35.8462C54.7401 36.2284 54.2828 37.0104 54.0303 37.8469L50.3456 50.0965H24.5154C22.2872 47.8998 19.2265 46.5413 15.8529 46.5413C9.0515 46.5413 3.51807 52.0602 3.51807 58.8438C3.51807 65.6275 9.0515 71.1463 15.8529 71.1463C17.6301 71.1463 19.3188 70.7665 20.8466 70.0889L20.8882 94.1291C20.8894 94.7547 21.3978 95.2612 22.0244 95.2612H22.0264C22.6541 95.2601 23.1619 94.7516 23.1608 94.1252L23.1185 68.777C26.1884 66.5371 28.1873 62.9198 28.1873 58.844C28.1873 58.824 28.186 58.8044 28.1858 58.7844H44.0193C42.1628 60.3861 40.178 61.6901 38.4193 62.5074L33.8778 64.618C30.0016 66.4192 28.2631 71.1505 30.077 75.027C31.9076 78.9408 36.5922 80.6398 40.5177 78.815L45.0592 76.7047C49.7415 74.5289 57.4989 73.5295 62.3762 75.6243L74.0328 80.6299C75.8884 81.4648 77.5216 80.5973 78.1905 78.7633C79.3982 75.452 78.6611 67.6626 75.2029 58.7844H84.4897V94.1275C84.4897 94.7538 84.9984 95.2614 85.6261 95.2614C86.2538 95.2614 86.7625 94.7538 86.7625 94.1275V57.6503C86.7625 57.0239 86.2538 56.5164 85.6261 56.5164H74.2679C73.6571 55.1091 72.997 53.725 72.2876 52.3646H88.7257C89.8135 52.3646 90.6985 53.2474 90.6985 54.3322L90.6976 60.249C90.6976 60.8754 91.2063 61.3832 91.8338 61.3832H91.834C92.4615 61.3832 92.9704 60.8756 92.9704 60.2493L92.9713 54.3322C92.9718 51.9965 91.0671 50.0965 88.7261 50.0965ZM15.8529 68.8782C10.3044 68.8782 5.79061 64.3768 5.79061 58.8438C5.79061 53.3108 10.3044 48.8094 15.8529 48.8094C21.4012 48.8094 25.915 53.3108 25.915 58.8438C25.915 64.3768 21.4012 68.8782 15.8529 68.8782ZM27.9632 56.5161C27.6744 55.018 27.1099 53.617 26.3285 52.3643H49.3748C48.5988 53.8121 47.5513 55.2182 46.3614 56.5161H27.9632ZM32.1364 74.0674C30.7438 71.1413 32.3092 67.7445 35.2045 66.5031C36.0538 70.1539 37.6651 73.5936 39.9251 76.589C39.9251 76.5888 34.7136 79.4823 32.1364 74.0674ZM42.0327 75.6095C39.7091 72.6532 38.0919 69.197 37.3128 65.5231C37.3128 65.5231 41.0059 63.7376 41.846 63.2132C42.6973 66.9996 44.3593 70.5485 46.7222 73.6323C45.7805 73.9358 42.0327 75.6095 42.0327 75.6095ZM63.2751 73.5408C59.2198 71.7992 53.745 71.9121 49.1028 72.9792C46.4363 69.757 44.6423 65.9238 43.8789 61.8167C47.3664 59.1993 50.7019 55.5242 52.208 51.6397C53.0784 49.3995 53.6458 47.0127 54.3379 44.712C55.3575 49.5793 57.6262 55.6837 60.1397 61.0558C62.1587 65.371 65.56 71.6444 68.988 75.9942L63.2751 73.5408ZM63.9196 59.2978C63.6546 58.7302 62.9792 58.4843 62.4098 58.7489L61.7506 59.0553L61.1339 57.7373L63.1329 56.8082C64.4324 56.2045 65.9811 56.7665 66.5866 58.0602C67.1855 59.3403 66.6091 60.9037 65.3303 61.4986L63.3288 62.4287L62.7119 61.1103L63.3693 60.8047C63.9383 60.5402 64.1844 59.8657 63.9196 59.2978C64.1844 59.8657 63.6546 58.7302 63.9196 59.2978ZM75.6128 78.698C75.3577 78.8188 73.757 78.4285 70.5897 74.364C68.5561 71.7542 66.4084 68.3248 64.3635 64.4495L66.2896 63.5545C68.691 62.4383 69.7703 59.5037 68.6456 57.1009C67.5106 54.6747 64.6065 53.6209 62.1738 54.7525L60.245 55.6488C56.6874 46.9891 55.4902 40.4371 56.2675 38.3063C56.3488 38.0834 56.4394 37.8703 56.706 37.8703C57.4015 37.8703 59.3948 38.7833 62.3715 41.9618C65.7343 45.5523 68.9604 50.4664 71.4549 55.798C75.861 65.2148 77.2737 74.6481 76.0558 77.9877C75.8803 78.4674 75.695 78.66 75.6128 78.698C75.3575 78.8186 75.695 78.66 75.6128 78.698Z" fill="currentColor"/>
<path d="M111.032 18.5536C111.659 18.5536 112.168 18.046 112.168 17.4197V6.14673C112.168 5.52038 111.659 5.01282 111.032 5.01282H74.4474C73.8199 5.01282 73.3114 5.52015 73.311 6.14628L73.2959 35.5719C73.2954 36.1845 73.817 36.7065 74.4323 36.7065H111.032C111.66 36.7065 112.168 36.1989 112.168 35.5726V26.7161C112.168 26.0806 111.6 25.4547 110.955 25.4547H75.5736L75.5828 7.28086H109.895V17.4197C109.896 18.046 110.404 18.5536 111.032 18.5536ZM109.896 27.7225V34.4382H75.5691L75.5725 27.7225H109.896Z" fill="currentColor"/>
<path d="M80.6861 32.1915H78.4089C77.7812 32.1915 77.2725 31.684 77.2725 31.0576C77.2725 30.4313 77.7812 29.9237 78.4089 29.9237H80.6861C81.3138 29.9237 81.8225 30.4313 81.8225 31.0576C81.8225 31.684 81.3138 32.1915 80.6861 32.1915Z" fill="currentColor"/>
<path d="M107.107 29.9234H107.103V29.9193C107.103 29.293 106.594 28.7854 105.967 28.7854C105.339 28.7854 104.83 29.293 104.83 29.9193V29.9234H104.826C104.199 29.9234 103.69 30.4309 103.69 31.0573C103.69 31.6836 104.199 32.1912 104.826 32.1912H104.83V32.1952C104.83 32.8216 105.339 33.3291 105.967 33.3291C106.594 33.3291 107.103 32.8216 107.103 32.1952V32.1912H107.107C107.735 32.1912 108.243 31.6836 108.243 31.0573C108.243 30.4309 107.735 29.9234 107.107 29.9234Z" fill="currentColor"/>
<path d="M100.767 29.9234H91.4312C91.0751 29.4231 90.4913 29.0957 89.8298 29.0957C89.1684 29.0957 88.5843 29.4231 88.2284 29.9234H84.653C84.0253 29.9234 83.5166 30.431 83.5166 31.0573C83.5166 31.6837 84.0253 32.1912 84.653 32.1912H88.2284C88.5845 32.6914 89.1684 33.0189 89.8298 33.0189C90.4913 33.0189 91.0751 32.6914 91.4312 32.1912H100.767C101.395 32.1912 101.904 31.6837 101.904 31.0573C101.904 30.431 101.395 29.9234 100.767 29.9234Z" fill="currentColor"/>
<path d="M95.1539 21.8702L87.5551 17.8601C86.3602 17.2292 86.3589 15.458 87.5553 14.8273L95.1543 10.817C96.2752 10.2255 97.6743 11.0679 97.6743 12.3334V20.3542C97.6743 21.496 96.7344 22.479 95.1539 21.8702ZM89.5433 16.3437L95.4018 19.4354V13.252L89.5433 16.3437Z" fill="currentColor"/>
<path d="M91.8348 66.3155C92.6403 66.3155 93.2933 65.6636 93.2933 64.8594C93.2933 64.0552 92.6403 63.4033 91.8348 63.4033C91.0292 63.4033 90.3762 64.0552 90.3762 64.8594C90.3762 65.6636 91.0292 66.3155 91.8348 66.3155Z" fill="currentColor"/>
<path d="M111.032 23.4692C111.838 23.4692 112.491 22.8173 112.491 22.0131C112.491 21.2089 111.838 20.557 111.032 20.557C110.227 20.557 109.574 21.2089 109.574 22.0131C109.574 22.8173 110.227 23.4692 111.032 23.4692Z" fill="currentColor"/>
<path d="M9.78941 40.588H1.13638C0.508684 40.588 0 40.0804 0 39.4541V17.1075C0 16.4812 0.508684 15.9736 1.13638 15.9736H9.78964C10.4173 15.9736 10.926 16.4812 10.926 17.1075V39.4541C10.9258 40.0804 10.4171 40.588 9.78941 40.588ZM2.27254 38.32H8.65325V18.2415H2.27254V38.32Z" fill="currentColor"/>
<path d="M31.7466 41.18H17.183C16.5553 41.18 16.0469 40.6725 16.0469 40.0461C16.0469 39.4198 16.5555 38.9122 17.183 38.9122H31.7466C32.6807 38.9122 33.4407 38.154 33.4407 37.2222C33.4407 36.2806 32.6728 35.5146 31.7288 35.5146H28.4281C27.9331 35.5146 27.4962 35.1949 27.3459 34.7262C27.1072 34.0056 27.6532 33.2283 28.4222 33.2283H33.3417C34.2758 33.2283 35.0356 32.4701 35.0356 31.5385C35.0356 30.5969 34.2677 29.8308 33.3239 29.8308H29.4128C28.8042 29.8308 28.2924 29.3296 28.2688 28.7246C28.244 28.0911 28.7673 27.5446 29.4027 27.5446H34.9366C35.8707 27.5446 36.6305 26.7864 36.6305 25.8547C36.6305 24.9132 35.8626 24.1473 34.9188 24.1473H29.7579C29.1302 24.1473 28.6216 23.6398 28.6216 23.0134C28.6216 22.3871 29.1302 21.8611 29.7579 21.8611H36.5319C37.4658 21.8611 38.2256 21.1031 38.2256 20.1712C38.2287 19.2416 37.455 18.4636 36.5227 18.4636L21.8615 18.4333C21.8008 18.433 21.74 18.4281 21.6802 18.4184C20.8889 18.289 20.4727 17.8937 20.2628 17.5848C20.0529 17.2759 19.8389 16.7434 20.0113 15.9616C20.0241 15.9031 20.0416 15.8457 20.0637 15.7902C20.5776 14.4875 21.2293 12.5912 21.4305 11.6726C22.0449 8.86973 21.183 5.7157 19.1161 3.06969C17.9966 7.43862 16.6293 11.0305 15.0437 13.7656C14.7294 14.3073 14.034 14.4927 13.4911 14.1793C12.9477 13.8654 12.7624 13.1718 13.0764 12.6298C14.7494 9.74446 16.1753 5.7868 17.3142 0.86667C17.6438 -0.55634 19.4785 0.0344623 20.1593 0.785902C23.1763 4.11428 24.4819 8.36532 23.6506 12.1574C23.4384 13.125 22.8681 14.8173 22.3542 16.1663L36.5249 16.1951C38.6956 16.1951 40.5053 18.0087 40.4981 20.1746C40.4981 21.7283 39.593 23.0769 38.2807 23.7228C38.6749 24.3393 38.9032 25.0704 38.9032 25.8545C38.9032 27.4109 37.9981 28.7604 36.6858 29.4065C37.08 30.023 37.3083 30.7544 37.3083 31.5385C37.3083 33.0949 36.4032 34.4443 35.0909 35.0905C35.4851 35.7071 35.7134 36.4383 35.7134 37.2224C35.7134 39.4043 33.9341 41.18 31.7466 41.18Z" fill="currentColor"/>
<path d="M5.4628 35.2722C6.34376 35.2722 7.05792 34.5596 7.05792 33.6806C7.05792 32.8017 6.34376 32.0891 5.4628 32.0891C4.58184 32.0891 3.86768 32.8017 3.86768 33.6806C3.86768 34.5596 4.58184 35.2722 5.4628 35.2722Z" fill="currentColor"/>
<path d="M14.6262 56.6104C14.6262 54.4177 13.5323 53.0554 11.7709 53.0554C10.0318 53.0554 8.81714 54.5779 8.81714 56.7595C8.83716 59.2357 10.2739 60.3439 11.6893 60.3439C13.1512 60.3439 14.6262 59.1896 14.6262 56.6104ZM11.7223 58.6624C10.8561 58.6624 10.7596 57.2824 10.7731 56.708C10.7731 55.9761 10.9729 54.7372 11.7223 54.7372C12.5473 54.7372 12.6706 55.9516 12.6706 56.6756C12.6704 57.2732 12.5782 58.6624 11.7223 58.6624Z" fill="currentColor"/>
<path d="M18.36 53.0558L11.7078 64.7674H13.5603L20.2125 53.0558H18.36Z" fill="currentColor"/>
<path d="M20.0518 57.4142C18.5822 57.4142 17.0994 58.5641 17.0994 61.1343C17.1178 63.5994 18.5545 64.7027 19.9701 64.7027C21.424 64.7027 22.8909 63.5483 22.8909 60.9696C22.8911 58.7765 21.8031 57.4142 20.0518 57.4142ZM20.0032 63.021C19.1494 63.021 19.0311 61.6621 19.0378 61.0665C19.0378 60.1173 19.3397 59.0957 20.0032 59.0957C20.8602 59.0957 20.9526 60.4514 20.9526 61.0344C20.9526 61.6317 20.8602 63.021 20.0032 63.021Z" fill="currentColor"/>
<path d="M97.7232 78.1078C97.7232 77.7384 97.9898 77.3438 98.7377 77.3438C99.3919 77.3438 99.9143 77.5892 100.465 77.9035L100.994 76.508C100.5 76.1806 99.946 75.9858 99.3559 75.9192V74.6921H97.941V76.0058C96.8406 76.2884 96.0516 77.1494 96.0516 78.257C96.0516 79.6233 97.127 80.2348 98.2911 80.6908C99.3602 81.1237 99.5051 81.5219 99.5051 81.888C99.5051 82.4342 99.0313 82.8014 98.3282 82.8014C97.5867 82.8014 96.9783 82.5008 96.3783 82.1012L95.8691 83.5193C96.4048 83.9607 97.0982 84.1749 97.7835 84.2411V85.5741H99.1984V84.1632C100.456 83.8683 101.181 82.9456 101.181 81.8007C101.181 80.2987 100.063 79.6447 99.0781 79.2431C97.9187 78.7645 97.7232 78.506 97.7232 78.1078Z" fill="currentColor"/>
<path d="M55.717 14.0237C54.5574 13.5449 54.3619 13.2864 54.3619 12.8882C54.3619 12.5188 54.6285 12.1242 55.3763 12.1242C56.0306 12.1242 56.553 12.3696 57.1035 12.6839L57.6329 11.2884C57.1388 10.961 56.5847 10.7662 55.9946 10.6996V9.47253H54.5797V10.7862C53.4793 11.0688 52.6903 11.9298 52.6903 13.0374C52.6903 14.4037 53.7657 15.0152 54.9297 15.4712C55.9989 15.9041 56.1437 16.3023 56.1437 16.6684C56.1437 17.2146 55.6699 17.5818 54.9669 17.5818C54.2253 17.5818 53.617 17.2812 53.0169 16.8816L52.5078 18.2997C53.0435 18.7411 53.7369 18.9553 54.4222 19.0214V20.3545H55.8371V18.9436C57.0947 18.6486 57.8192 17.726 57.8192 16.5811C57.8194 15.0793 56.7024 14.4253 55.717 14.0237C56.7024 14.4253 54.5576 13.5449 55.717 14.0237Z" fill="currentColor"/>
</svg>
