<svg width="112" height="112" viewBox="0 0 112 112" fill="none" xmlns="http://www.w3.org/2000/svg">
<path d="M50.3997 64.4C50.3997 65.4309 51.2354 66.2667 52.2664 66.2667C53.2973 66.2667 54.133 65.4309 54.133 64.4C54.133 58.2251 48.421 53.1216 41.0664 52.3712V50.4C41.0664 49.3691 40.2306 48.5333 39.1997 48.5333C38.1688 48.5333 37.333 49.3691 37.333 50.4V52.3712C29.9784 53.1179 24.2664 58.2251 24.2664 64.4C24.2664 70.5749 29.9784 75.6784 37.333 76.4288V93.2064C32.0448 92.5381 27.9997 89.0867 27.9997 84.9333C27.9997 83.9024 27.164 83.0667 26.133 83.0667C25.1021 83.0667 24.2664 83.9024 24.2664 84.9333C24.2664 91.1083 29.9784 96.2117 37.333 96.9621V98.9333C37.333 99.9643 38.1688 100.8 39.1997 100.8C40.2306 100.8 41.0664 99.9643 41.0664 98.9333V96.9621C48.421 96.2155 54.133 91.1083 54.133 84.9333C54.133 78.7584 48.421 73.6549 41.0664 72.9045V56.1269C46.3546 56.7952 50.3997 60.2467 50.3997 64.4ZM27.9997 64.4C27.9997 60.2467 32.0448 56.7952 37.333 56.1269V72.6731C32.0448 72.0048 27.9997 68.5533 27.9997 64.4ZM50.3997 84.9333C50.3997 89.0867 46.3546 92.5381 41.0664 93.2064V76.6603C46.3546 77.3285 50.3997 80.78 50.3997 84.9333Z" fill="currentColor"/>
<path d="M6.71989 56.323C5.78483 55.889 4.67502 56.2951 4.24096 57.2302C1.43147 63.2766 -0.0162944 69.8661 -0.00010993 76.5334C-0.00010993 100.066 13.1879 112 39.1999 112C44.4559 112.083 49.7002 111.478 54.7996 110.202C55.796 109.937 56.389 108.915 56.124 107.919C55.8591 106.922 54.8366 106.329 53.8402 106.594C49.0519 107.777 44.1315 108.339 39.1999 108.267C15.3346 108.267 3.73322 97.8862 3.73322 76.5334C3.69964 70.4064 5.0304 64.3488 7.62896 58.8C8.06142 57.8649 7.65456 56.7563 6.71989 56.323Z" fill="currentColor"/>
<path d="M106.4 46.6667H65.3332C62.2404 46.6667 59.7332 49.174 59.7332 52.2667V106.4C59.7332 109.493 62.2404 112 65.3332 112H106.4C109.493 112 112 109.493 112 106.4V52.2667C112 49.174 109.493 46.6667 106.4 46.6667ZM108.266 106.4C108.266 107.431 107.431 108.267 106.4 108.267H65.3332C64.3022 108.267 63.4665 107.431 63.4665 106.4V52.2667C63.4665 51.2358 64.3022 50.4001 65.3332 50.4001H106.4C107.431 50.4001 108.266 51.2358 108.266 52.2667V106.4Z" fill="currentColor"/>
<path d="M72.8 70.9333H98.9333C100.995 70.9333 102.667 69.2619 102.667 67.2V59.7333C102.667 57.6715 100.995 56 98.9333 56H72.8C70.7381 56 69.0667 57.6715 69.0667 59.7333V67.2C69.0667 69.2619 70.7381 70.9333 72.8 70.9333ZM72.8 59.7333H98.9333V67.2H72.8V59.7333Z" fill="currentColor"/>
<path d="M76.5333 76.5333H70.9333C69.9024 76.5333 69.0667 77.3691 69.0667 78.4C69.0667 79.4309 69.9024 80.2667 70.9333 80.2667H76.5333C77.5643 80.2667 78.4 79.4309 78.4 78.4C78.4 77.3691 77.5643 76.5333 76.5333 76.5333Z" fill="currentColor"/>
<path d="M76.5333 84H70.9333C69.9024 84 69.0667 84.8357 69.0667 85.8667C69.0667 86.8976 69.9024 87.7333 70.9333 87.7333H76.5333C77.5643 87.7333 78.4 86.8976 78.4 85.8667C78.4 84.8357 77.5643 84 76.5333 84Z" fill="currentColor"/>
<path d="M76.5333 91.4667H70.9333C69.9024 91.4667 69.0667 92.3024 69.0667 93.3333C69.0667 94.3643 69.9024 95.2 70.9333 95.2H76.5333C77.5643 95.2 78.4 94.3643 78.4 93.3333C78.4 92.3024 77.5643 91.4667 76.5333 91.4667Z" fill="currentColor"/>
<path d="M76.5333 98.9333H70.9333C69.9024 98.9333 69.0667 99.7691 69.0667 100.8C69.0667 101.831 69.9024 102.667 70.9333 102.667H76.5333C77.5643 102.667 78.4 101.831 78.4 100.8C78.4 99.7691 77.5643 98.9333 76.5333 98.9333Z" fill="currentColor"/>
<path d="M89.6 76.5333H84C82.969 76.5333 82.1333 77.3691 82.1333 78.4C82.1333 79.4309 82.969 80.2667 84 80.2667H89.6C90.6309 80.2667 91.4666 79.4309 91.4666 78.4C91.4666 77.3691 90.6309 76.5333 89.6 76.5333Z" fill="currentColor"/>
<path d="M89.6 84H84C82.969 84 82.1333 84.8357 82.1333 85.8667C82.1333 86.8976 82.969 87.7333 84 87.7333H89.6C90.6309 87.7333 91.4666 86.8976 91.4666 85.8667C91.4666 84.8357 90.6309 84 89.6 84Z" fill="currentColor"/>
<path d="M89.6 91.4667H84C82.969 91.4667 82.1333 92.3024 82.1333 93.3333C82.1333 94.3643 82.969 95.2 84 95.2H89.6C90.6309 95.2 91.4666 94.3643 91.4666 93.3333C91.4666 92.3024 90.6309 91.4667 89.6 91.4667Z" fill="currentColor"/>
<path d="M89.6 98.9333H84C82.969 98.9333 82.1333 99.7691 82.1333 100.8C82.1333 101.831 82.969 102.667 84 102.667H89.6C90.6309 102.667 91.4666 101.831 91.4666 100.8C91.4666 99.7691 90.6309 98.9333 89.6 98.9333Z" fill="currentColor"/>
<path d="M102.667 76.5333H97.0666C96.0357 76.5333 95.2 77.3691 95.2 78.4C95.2 79.4309 96.0357 80.2667 97.0666 80.2667H102.667C103.698 80.2667 104.533 79.4309 104.533 78.4C104.533 77.3691 103.698 76.5333 102.667 76.5333Z" fill="currentColor"/>
<path d="M102.667 84H97.0666C96.0357 84 95.2 84.8357 95.2 85.8667C95.2 86.8976 96.0357 87.7333 97.0666 87.7333H102.667C103.698 87.7333 104.533 86.8976 104.533 85.8667C104.533 84.8357 103.698 84 102.667 84Z" fill="currentColor"/>
<path d="M102.667 91.4667H97.0666C96.0357 91.4667 95.2 92.3024 95.2 93.3333C95.2 94.3643 96.0357 95.2 97.0666 95.2H102.667C103.698 95.2 104.533 94.3643 104.533 93.3333C104.533 92.3024 103.698 91.4667 102.667 91.4667Z" fill="currentColor"/>
<path d="M102.667 98.9333H97.0666C96.0357 98.9333 95.2 99.7691 95.2 100.8C95.2 101.831 96.0357 102.667 97.0666 102.667H102.667C103.698 102.667 104.533 101.831 104.533 100.8C104.533 99.7691 103.698 98.9333 102.667 98.9333Z" fill="currentColor"/>
<path d="M11.8067 2.35759C6.89178 6.85999 15.527 20.748 20.6155 28H19.6C17.866 27.9937 16.2014 28.6805 14.9763 29.9077C13.7554 31.1379 13.0692 32.8001 13.0667 34.5333C13.0747 36.8594 14.3227 39.0046 16.3408 40.1613C14.1619 42.466 12.1093 44.8869 10.192 47.4133C9.57349 48.2381 9.74063 49.4081 10.5654 50.0267C11.3901 50.6452 12.5602 50.4781 13.1787 49.6533C15.4844 46.6368 17.9783 43.7689 20.6454 41.0667H58.8001C61.1342 41.0667 63.291 39.8214 64.4581 37.8C65.6252 35.7786 65.6252 33.2881 64.4581 31.2667C63.291 29.2452 61.1342 28 58.8001 28H57.7846C62.8713 20.748 71.5065 6.86186 66.5953 2.35759C64.3366 0.289324 61.7046 1.79759 59.3843 3.11732C57.2744 4.56231 54.8176 5.41924 52.2667 5.59999C50.2417 5.59571 48.3112 4.74255 46.9449 3.24799C44.9022 1.17122 42.1112 0.00158691 39.1982 0.00158691C36.2852 0.00158691 33.4942 1.17122 31.4515 3.24799C30.0829 4.74494 28.1486 5.59833 26.1203 5.59999C23.5707 5.42111 21.1153 4.56397 19.0083 3.11732C16.6899 1.79386 14.0598 0.291191 11.8067 2.35759ZM60.7843 32.5509C61.5875 33.352 61.8279 34.5586 61.3932 35.6064C60.9584 36.6542 59.9344 37.3361 58.8001 37.3333H19.6C18.0537 37.3333 16.8 36.0797 16.8 34.5333C16.8 32.9869 18.0537 31.7333 19.6 31.7333H58.8001C59.5434 31.7335 60.2566 32.0274 60.7843 32.5509ZM26.1203 9.33333C29.0345 9.33291 31.8263 8.16197 33.8688 6.08346C35.2322 4.58581 37.1636 3.73217 39.1889 3.73217C41.2141 3.73217 43.1455 4.58581 44.5089 6.08346C46.5542 8.16357 49.3495 9.33458 52.2667 9.33333C55.4718 9.16493 58.5724 8.13718 61.2435 6.35786C62.0957 5.75633 63.0599 5.3317 64.079 5.10906C65.9942 6.86372 60.9318 17.4459 53.1926 28H48.5334V18.6667C48.5334 17.6357 47.6977 16.8 46.6667 16.8C45.6358 16.8 44.8001 17.6357 44.8001 18.6667V28H33.6V18.6667C33.6 17.6357 32.7643 16.8 31.7334 16.8C30.7025 16.8 29.8667 17.6357 29.8667 18.6667V28H25.215C17.4758 17.4459 12.4134 6.86372 14.3547 5.08106C15.3527 5.34761 16.2991 5.77916 17.1547 6.35786C19.8218 8.13694 22.9188 9.16477 26.1203 9.33333Z" fill="currentColor"/>
</svg>
