<svg width="21" height="20" viewBox="0 0 21 20" fill="none" xmlns="http://www.w3.org/2000/svg">
<path d="M17.7188 10.9989V3.03516C17.7188 1.70311 15.3307 0.984375 13.084 0.984375C10.8373 0.984375 8.44922 1.70311 8.44922 3.03516V6.75572C7.55745 6.19865 6.06759 5.90625 4.63477 5.90625C2.38788 5.90625 0 6.62498 0 7.95703V17.8008C0 19.1328 2.38788 19.8516 4.63477 19.8516C6.31849 19.8516 8.08152 19.448 8.85938 18.685C9.63723 19.448 11.4003 19.8516 13.084 19.8516C13.8119 19.8516 14.5855 19.7798 15.1811 19.6583C15.604 19.786 16.043 19.8516 16.4883 19.8516C18.976 19.8516 21 17.8275 21 15.3398C21 13.316 19.6388 11.5422 17.7188 10.9989ZM16.8984 5.49609C16.8984 5.67746 16.6366 5.98988 15.8987 6.27331C15.1487 6.56138 14.1228 6.72656 13.084 6.72656C12.0451 6.72656 11.0193 6.56138 10.2693 6.27331C9.53133 5.98988 9.26953 5.67746 9.26953 5.49609V4.23647C10.1613 4.79354 11.6512 5.08594 13.084 5.08594C14.5168 5.08594 16.0067 4.79354 16.8984 4.23647V5.49609ZM9.26953 6.6974C10.1613 7.25448 11.6512 7.54688 13.084 7.54688C14.5168 7.54688 16.0067 7.25448 16.8984 6.6974V7.95703C16.8984 8.1384 16.6366 8.45082 15.8987 8.73425C15.1487 9.02232 14.1228 9.1875 13.084 9.1875C12.0451 9.1875 11.0193 9.02232 10.2693 8.73425C9.53133 8.45082 9.26953 8.1384 9.26953 7.95703V6.6974ZM8.44922 10.418C8.44922 10.5993 8.18742 10.9118 7.44946 11.1952C6.69949 11.4833 5.67361 11.6484 4.63477 11.6484C3.59592 11.6484 2.57005 11.4833 1.82007 11.1952C1.08211 10.9118 0.820312 10.5993 0.820312 10.418V9.15834C1.71208 9.71542 3.20194 10.0078 4.63477 10.0078C6.06759 10.0078 7.55745 9.71542 8.44922 9.15834V10.418ZM0.820312 11.6193C1.71208 12.1764 3.20194 12.4688 4.63477 12.4688C6.06759 12.4688 7.55745 12.1764 8.44922 11.6193V12.8789C8.44922 13.0603 8.18742 13.3727 7.44946 13.6561C6.69949 13.9442 5.67361 14.1094 4.63477 14.1094C3.59592 14.1094 2.57005 13.9442 1.82007 13.6561C1.08211 13.3727 0.820312 13.0603 0.820312 12.8789V11.6193ZM9.26953 14.0467C9.95158 14.4681 10.9734 14.7422 12.0019 14.8608C11.9851 15.0194 11.9766 15.1795 11.9766 15.3398C11.9766 15.7399 12.0282 16.1316 12.1299 16.5107C11.4007 16.4303 10.7131 16.2707 10.1823 16.0539C9.55183 15.7966 9.26953 15.5098 9.26953 15.3398V14.0467ZM12.1634 14.0535C11.3898 13.9697 10.6559 13.7942 10.1105 13.5597C9.52956 13.3101 9.26953 13.0378 9.26953 12.8789V11.5972C9.47509 11.7239 9.72871 11.8473 10.0416 11.9628C10.8619 12.2659 11.9341 12.447 13.0103 12.4668C12.6251 12.9319 12.3364 13.4704 12.1634 14.0535ZM13.9349 11.621C13.6963 11.6388 13.4522 11.6484 13.207 11.6484C12.159 11.6484 11.1088 11.4825 10.3258 11.1933C9.59621 10.9238 9.26953 10.6097 9.26953 10.418V9.15834C10.1613 9.71542 11.6512 10.0078 13.084 10.0078C14.5168 10.0078 16.0067 9.71542 16.8984 9.15834V10.418C16.8984 10.5431 16.8009 10.6871 16.6216 10.8302C16.5767 10.8289 16.5322 10.8281 16.4883 10.8281C15.5674 10.8281 14.6873 11.1024 13.9349 11.621ZM10.2693 2.25794C11.0193 1.96987 12.0451 1.80469 13.084 1.80469C14.1228 1.80469 15.1487 1.96987 15.8987 2.25794C16.6366 2.54137 16.8984 2.85379 16.8984 3.03516C16.8984 3.21652 16.6366 3.52895 15.8987 3.81237C15.1487 4.10044 14.1228 4.26562 13.084 4.26562C12.0451 4.26562 11.0193 4.10044 10.2693 3.81237C9.53133 3.52895 9.26953 3.21652 9.26953 3.03516C9.26953 2.85379 9.53133 2.54137 10.2693 2.25794ZM1.82007 7.17982C2.57005 6.89175 3.59592 6.72656 4.63477 6.72656C5.67361 6.72656 6.69949 6.89175 7.44946 7.17982C8.18742 7.46324 8.44922 7.77567 8.44922 7.95703C8.44922 8.1384 8.18742 8.45082 7.44946 8.73425C6.69949 9.02232 5.67361 9.1875 4.63477 9.1875C3.59592 9.1875 2.57005 9.02232 1.82007 8.73425C1.08211 8.45082 0.820312 8.1384 0.820312 7.95703C0.820312 7.77567 1.08211 7.46324 1.82007 7.17982ZM7.44946 18.578C6.69949 18.8661 5.67361 19.0312 4.63477 19.0312C3.59592 19.0312 2.57005 18.8661 1.82007 18.578C1.08211 18.2946 0.820312 17.9821 0.820312 17.8008V16.5259C1.53777 16.9709 2.52599 17.179 2.92957 17.2492C2.95345 17.2533 2.977 17.2554 3.00039 17.2554C3.19601 17.2552 3.36937 17.1147 3.40398 16.9154C3.44275 16.6922 3.29343 16.4799 3.07024 16.441C1.59624 16.1847 0.868538 15.6603 0.823036 15.3725L0.822556 15.3695C0.822235 15.365 0.821434 15.3591 0.820953 15.3547L0.820633 15.3511C0.820473 15.3474 0.820312 15.3435 0.820312 15.3398V14.0802C1.71208 14.6373 3.20194 14.9297 4.63477 14.9297C6.06759 14.9297 7.55745 14.6373 8.44922 14.0802V15.3398C8.44922 15.3435 8.44906 15.3474 8.4489 15.3511L8.44858 15.3549C8.44858 15.3557 8.44842 15.3562 8.44842 15.3562C8.44794 15.3607 8.44762 15.3628 8.4473 15.3672L8.44698 15.3698C8.40099 15.6603 7.67345 16.1847 6.19945 16.441C5.97626 16.4799 5.82678 16.6922 5.86572 16.9154C5.90032 17.1147 6.07352 17.2554 6.2693 17.2554C6.29253 17.2554 6.31625 17.2533 6.33996 17.2492C6.74355 17.179 7.73161 16.971 8.44938 16.5253V17.8008C8.44922 17.9821 8.18742 18.2946 7.44946 18.578ZM10.2693 18.578C9.53133 18.2946 9.26953 17.9821 9.26953 17.8008V16.5091C10.0333 16.983 11.2343 17.2782 12.4553 17.364C12.7847 18.02 13.2673 18.5809 13.8545 19.0035C13.5978 19.0215 13.3363 19.0312 13.084 19.0312C12.0451 19.0312 11.0193 18.8661 10.2693 18.578ZM16.4883 19.0312C14.4559 19.0312 12.7969 17.3871 12.7969 15.3398C12.7969 13.3014 14.4481 11.6484 16.4883 11.6484C18.5565 11.6484 20.1797 13.3381 20.1797 15.3398C20.1797 17.3752 18.5237 19.0312 16.4883 19.0312Z" fill="currentColor"/>
</svg>
