<svg width="30" height="28" viewBox="0 0 30 28" fill="none" xmlns="http://www.w3.org/2000/svg">
<path d="M15.0001 0.0283203C7.21017 0.0283203 0.893555 6.28478 0.893555 14.0006C0.893555 21.7163 7.21017 27.9728 15.0001 27.9728C16.3011 27.9728 17.3512 26.9326 17.3512 25.6441C17.3512 25.0386 17.1161 24.4953 16.74 24.0761C16.3795 23.6725 16.1443 23.1291 16.1443 22.5392C16.1443 21.2506 17.1945 20.2104 18.4954 20.2104H21.2697C25.5958 20.2104 29.1067 16.7329 29.1067 12.4481C29.1067 5.58617 22.7901 0.0283203 15.0001 0.0283203ZM6.37945 14.0006C5.07851 14.0006 4.02835 12.9604 4.02835 11.6719C4.02835 10.3833 5.07851 9.34315 6.37945 9.34315C7.68039 9.34315 8.73055 10.3833 8.73055 11.6719C8.73055 12.9604 7.68039 14.0006 6.37945 14.0006ZM11.0816 7.79068C9.78071 7.79068 8.73055 6.75052 8.73055 5.46197C8.73055 4.17342 9.78071 3.13326 11.0816 3.13326C12.3826 3.13326 13.4327 4.17342 13.4327 5.46197C13.4327 6.75052 12.3826 7.79068 11.0816 7.79068ZM18.9186 7.79068C17.6177 7.79068 16.5675 6.75052 16.5675 5.46197C16.5675 4.17342 17.6177 3.13326 18.9186 3.13326C20.2196 3.13326 21.2697 4.17342 21.2697 5.46197C21.2697 6.75052 20.2196 7.79068 18.9186 7.79068ZM23.6208 14.0006C22.3199 14.0006 21.2697 12.9604 21.2697 11.6719C21.2697 10.3833 22.3199 9.34315 23.6208 9.34315C24.9218 9.34315 25.9719 10.3833 25.9719 11.6719C25.9719 12.9604 24.9218 14.0006 23.6208 14.0006Z" fill="currentColor"/>
</svg>
