<svg width="42" height="41" viewBox="0 0 42 41" fill="none" xmlns="http://www.w3.org/2000/svg">
<path d="M20.9998 40.1119C20.688 40.1119 6.14003 40.1119 6.14003 40.1119C5.20019 40.1119 4.4166 39.6923 4.04377 38.9894C3.67105 38.2865 3.78058 37.4348 4.33676 36.7111L6.20433 34.2881C2.24447 30.5323 0 25.4213 0 20.056C0 8.99708 9.42047 0 20.9998 0C32.5794 0 42 8.99708 42 20.056C42 31.1149 32.5794 40.1119 20.9998 40.1119ZM20.9998 37.0415C30.8066 37.0415 38.785 29.4219 38.785 20.056C38.785 10.6901 30.8066 3.07043 20.9998 3.07043C11.1932 3.07043 3.21496 10.6901 3.21496 20.056C3.21496 25.0041 5.46907 29.6967 9.39936 32.9309L10.5272 33.8589L8.07415 37.0415H20.9998Z" fill="currentColor"/>
<path d="M15.3986 19.962C15.3986 21.2125 14.397 22.2264 13.1613 22.2264C11.9254 22.2264 10.9236 21.2125 10.9236 19.962C10.9236 18.7111 11.9254 17.6973 13.1613 17.6973C14.397 17.6973 15.3986 18.7112 15.3986 19.962Z" fill="currentColor"/>
<path d="M20.9994 22.226C22.235 22.226 23.2368 21.2122 23.2368 19.9617C23.2368 18.7111 22.235 17.6973 20.9994 17.6973C19.7637 17.6973 18.762 18.7111 18.762 19.9617C18.762 21.2122 19.7637 22.226 20.9994 22.226Z" fill="currentColor"/>
<path d="M28.8342 22.2263C30.0699 22.2263 31.0717 21.2124 31.0717 19.9618C31.0717 18.7111 30.0699 17.6973 28.8342 17.6973C27.5984 17.6973 26.5967 18.7111 26.5967 19.9618C26.5967 21.2124 27.5984 22.2263 28.8342 22.2263Z" fill="currentColor"/>
</svg>
