<svg width="77" height="121" viewBox="0 0 77 121" fill="none" xmlns="http://www.w3.org/2000/svg">
<path d="M76.0334 50.6915L70.7839 37.5678C70.5346 37.2659 70.4558 36.8197 69.5634 36.741H48.5655C48.3931 36.741 48.2225 36.7749 48.0632 36.8409C47.904 36.9068 47.7593 37.0035 47.6375 37.1254C47.5156 37.2472 47.4189 37.3919 47.353 37.5511C47.287 37.7103 47.2531 37.881 47.2531 38.0533C47.2531 38.2257 47.287 38.3963 47.353 38.5556C47.4189 38.7148 47.5156 38.8595 47.6375 38.9813C47.7593 39.1032 47.904 39.1999 48.0632 39.2658C48.2225 39.3318 48.3931 39.3657 48.5655 39.3657H48.8673L42.5679 49.8647H3.64294L9.94233 39.3657H27.5675C27.9156 39.3657 28.2494 39.2274 28.4955 38.9813C28.7416 38.7352 28.8799 38.4014 28.8799 38.0533C28.8799 37.7053 28.7416 37.3715 28.4955 37.1254C28.2494 36.8792 27.9156 36.741 27.5675 36.741H9.19428C8.96992 36.7564 8.75193 36.8223 8.55653 36.9336C8.36112 37.045 8.19333 37.1989 8.06564 37.384L0.191402 50.5078C0.0699211 50.7073 0.00390386 50.9356 0.000167877 51.1692C-0.0035681 51.4028 0.0551125 51.6331 0.17015 51.8365C0.285188 52.0398 0.452412 52.2087 0.654556 52.3258C0.856701 52.4429 1.08644 52.5039 1.32004 52.5026H7.88191V74.8129C7.88191 75.161 8.02017 75.4948 8.26629 75.7409C8.51241 75.987 8.84622 76.1253 9.19428 76.1253H69.5634C69.9115 76.1253 70.2453 75.987 70.4914 75.7409C70.7375 75.4948 70.8758 75.161 70.8758 74.8129V52.5026H74.8129C75.0279 52.5029 75.2396 52.4504 75.4296 52.3497C75.6195 52.249 75.7818 52.1032 75.9022 51.9251C76.0241 51.7463 76.0999 51.54 76.1228 51.3248C76.1457 51.1095 76.115 50.892 76.0334 50.6915ZM10.5067 64.3139H26.2551V68.251H10.5067V64.3139ZM10.5067 70.8758H27.5675C27.9156 70.8758 28.2494 70.7375 28.4955 70.4914C28.7416 70.2453 28.8799 69.9115 28.8799 69.5634V63.0015C28.8799 62.6535 28.7416 62.3197 28.4955 62.0736C28.2494 61.8274 27.9156 61.6892 27.5675 61.6892H10.5067V52.5026H43.316C43.5425 52.5039 43.7654 52.4466 43.9632 52.3362C44.161 52.2258 44.3268 52.0661 44.4446 51.8726L49.8778 42.791V73.5005H10.5067V70.8758ZM68.2511 73.5005H52.5026V44.8777L55.2192 51.6758C55.3164 51.92 55.4848 52.1293 55.7024 52.2767C55.92 52.4241 56.1769 52.5028 56.4397 52.5026H68.2511V73.5005ZM57.3321 49.8778L53.1325 39.3788H68.671L72.8706 49.8778H57.3321Z" fill="currentColor"/>
<path d="M32.8175 63.0015C32.4694 63.0015 32.1356 63.1397 31.8895 63.3858C31.6434 63.632 31.5051 63.9658 31.5051 64.3138V69.5633C31.5051 69.9114 31.6434 70.2452 31.8895 70.4913C32.1356 70.7374 32.4694 70.8757 32.8175 70.8757C33.1656 70.8757 33.4994 70.7374 33.7455 70.4913C33.9916 70.2452 34.1299 69.9114 34.1299 69.5633V64.3138C34.1299 63.9658 33.9916 63.632 33.7455 63.3858C33.4994 63.1397 33.1656 63.0015 32.8175 63.0015Z" fill="currentColor"/>
<path d="M38.066 63.0015C37.718 63.0015 37.3842 63.1397 37.138 63.3858C36.8919 63.632 36.7537 63.9658 36.7537 64.3138V69.5633C36.7537 69.9114 36.8919 70.2452 37.138 70.4913C37.3842 70.7374 37.718 70.8757 38.066 70.8757C38.4141 70.8757 38.7479 70.7374 38.994 70.4913C39.2401 70.2452 39.3784 69.9114 39.3784 69.5633V64.3138C39.3784 63.9658 39.2401 63.632 38.994 63.3858C38.7479 63.1397 38.4141 63.0015 38.066 63.0015Z" fill="currentColor"/>
<path d="M23.3938 34.1949C23.6614 34.2501 23.9391 34.2303 24.1962 34.1377C24.4532 34.045 24.6797 33.8832 24.8506 33.67C24.8506 33.67 26.911 30.7171 29.4439 30.5334C30.1407 30.5262 30.8296 30.6814 31.456 30.9867C32.0824 31.2919 32.6291 31.7388 33.0529 32.292C33.171 32.4456 33.3217 32.5712 33.4942 32.6597C33.6667 32.7482 33.8566 32.7974 34.0503 32.8038H42.082C42.2735 32.7955 42.4609 32.7454 42.6309 32.657C42.801 32.5686 42.9496 32.444 43.0663 32.292C43.4968 31.7462 44.0449 31.3046 44.6698 31.0001C45.2947 30.6956 45.9802 30.5361 46.6753 30.5334C49.2345 30.704 51.2686 33.6437 51.2818 33.67C51.4496 33.8868 51.6758 34.0513 51.9338 34.1443C52.1918 34.2372 52.4709 34.2548 52.7385 34.1949C53.0047 34.1174 53.2396 33.9575 53.4093 33.7383C53.5791 33.519 53.675 33.2516 53.6834 32.9744C53.8934 24.6015 49.5101 22.0423 47.1215 21.268C47.2111 20.5234 47.2549 19.7739 47.2528 19.0239C47.2528 8.82675 39.3785 0.729414 38.9979 0.388198C38.8759 0.265191 38.7308 0.167558 38.5709 0.100931C38.4109 0.0343031 38.2394 0 38.0662 0C37.8929 0 37.7214 0.0343031 37.5615 0.100931C37.4015 0.167558 37.2564 0.265191 37.1344 0.388198C36.7538 0.729414 28.8796 8.82675 28.8796 19.0239C28.8818 19.7742 28.93 20.5236 29.0239 21.268C26.6223 22.0423 22.239 24.6015 22.4621 32.9744C22.4695 33.2499 22.5636 33.5161 22.7308 33.7352C22.8981 33.9542 23.13 34.1151 23.3938 34.1949ZM50.8093 29.4966C49.6723 28.6078 48.3077 28.0574 46.8722 27.9086C46.3455 27.8664 45.8155 27.8973 45.2973 28.0005C45.8479 26.67 46.2869 25.296 46.6097 23.8928C48.1189 24.444 50.1006 25.8613 50.8093 29.4966ZM38.0662 3.28854C40.0741 5.67706 44.628 11.8977 44.628 19.037C44.4982 22.9808 43.3498 26.8238 41.2946 30.1922H34.8377C32.7804 26.8199 31.6319 22.9721 31.5043 19.0239C31.5043 11.8977 36.0582 5.67706 38.0662 3.28854ZM29.457 23.8928C29.7798 25.296 30.2188 26.67 30.7694 28.0005C30.2512 27.8973 29.7212 27.8664 29.1945 27.9086C27.759 28.0574 26.3944 28.6078 25.2574 29.4966C26.0317 25.8613 28.0134 24.444 29.457 23.8928Z" fill="currentColor"/>
<path d="M40.6908 21.0056C41.0388 21.0056 41.3726 20.8673 41.6188 20.6212C41.8649 20.3751 42.0031 20.0413 42.0031 19.6932V14.4437C42.0031 14.0957 41.8649 13.7619 41.6188 13.5157C41.3726 13.2696 41.0388 13.1313 40.6908 13.1313H35.4413C35.0932 13.1313 34.7594 13.2696 34.5133 13.5157C34.2672 13.7619 34.1289 14.0957 34.1289 14.4437V19.6932C34.1289 20.0413 34.2672 20.3751 34.5133 20.6212C34.7594 20.8673 35.0932 21.0056 35.4413 21.0056H40.6908ZM36.7537 15.7561H39.3784V18.3808H36.7537V15.7561Z" fill="currentColor"/>
<path d="M36.7537 36.754V43.3159C36.7537 43.6639 36.8919 43.9978 37.138 44.2439C37.3842 44.49 37.718 44.6283 38.066 44.6283C38.4141 44.6283 38.7479 44.49 38.994 44.2439C39.2401 43.9978 39.3784 43.6639 39.3784 43.3159V36.754C39.3784 36.406 39.2401 36.0722 38.994 35.826C38.7479 35.5799 38.4141 35.4417 38.066 35.4417C37.718 35.4417 37.3842 35.5799 37.138 35.826C36.8919 36.0722 36.7537 36.406 36.7537 36.754Z" fill="currentColor"/>
<path d="M42.0039 35.4418V39.3789C42.0039 39.7269 42.1422 40.0608 42.3883 40.3069C42.6344 40.553 42.9682 40.6913 43.3163 40.6913C43.6643 40.6913 43.9981 40.553 44.2443 40.3069C44.4904 40.0608 44.6287 39.7269 44.6287 39.3789V35.4418C44.6287 35.0937 44.4904 34.7599 44.2443 34.5138C43.9981 34.2677 43.6643 34.1294 43.3163 34.1294C42.9682 34.1294 42.6344 34.2677 42.3883 34.5138C42.1422 34.7599 42.0039 35.0937 42.0039 35.4418Z" fill="currentColor"/>
<path d="M32.8175 34.1294C32.4694 34.1294 32.1356 34.2677 31.8895 34.5138C31.6434 34.7599 31.5051 35.0937 31.5051 35.4418V39.3789C31.5051 39.7269 31.6434 40.0608 31.8895 40.3069C32.1356 40.553 32.4694 40.6913 32.8175 40.6913C33.1656 40.6913 33.4994 40.553 33.7455 40.3069C33.9916 40.0608 34.1299 39.7269 34.1299 39.3789V35.4418C34.1299 35.0937 33.9916 34.7599 33.7455 34.5138C33.4994 34.2677 33.1656 34.1294 32.8175 34.1294Z" fill="currentColor"/>
<path d="M71.827 82.9791C70.7258 81.9786 69.2278 81.3606 67.7169 81.2832C66.0011 81.1959 64.3937 81.7984 63.1965 82.978L55.0167 90.9496C54.8551 90.6738 54.6704 90.4134 54.4633 90.1718C53.457 88.995 51.9854 88.3471 50.3201 88.3471H38.8693C36.7101 88.3471 34.6037 88.0713 32.609 87.5279C27.4083 86.1112 22.4401 87.146 18.2402 90.5223C16.5323 91.8954 15.2863 93.389 14.4983 94.478L12.4452 92.5156C12.1752 92.2575 11.8093 92.111 11.4326 92.111C11.4293 92.111 11.4265 92.111 11.4231 92.111C11.033 92.1137 10.6559 92.2735 10.3853 92.5499L0.404453 102.755C0.137294 103.028 -0.00807257 103.395 0.000346325 103.774C0.00876522 104.154 0.169847 104.514 0.448793 104.776L17.3298 120.607C17.6099 120.869 17.9691 121 18.3277 121C18.7043 121 19.0809 120.856 19.3644 120.569L29.2521 110.579C29.5221 110.306 29.6719 109.932 29.6646 109.551C29.6573 109.175 29.4974 108.813 29.2235 108.551L28.3625 107.728L30.3331 107.51C31.5252 107.373 32.7375 107.304 33.9375 107.304H51.3596C54.1905 107.304 56.595 106.694 58.5066 105.491C58.5224 105.481 58.5381 105.471 58.5538 105.46C59.2385 104.992 59.8598 104.436 60.3998 103.81L72.1402 90.2067C74.1495 87.8789 74.0238 84.9741 71.827 82.9791ZM18.2901 117.571L3.49868 103.7L11.4669 95.5526L26.1719 109.607L18.2901 117.571ZM69.935 88.3604L58.1946 101.964C57.8219 102.396 57.3948 102.78 56.9239 103.105C55.4887 104 53.6169 104.454 51.3596 104.454H33.9369C32.6264 104.454 31.3012 104.53 30.0042 104.678L25.6724 105.157L16.6024 96.4884C17.2327 95.568 18.3917 94.0805 20.0704 92.7306C23.5604 89.9248 27.5195 89.0984 31.8373 90.2752C34.0834 90.8871 36.4491 91.1978 38.8693 91.1978H50.3201C52.3766 91.1978 52.9255 92.9523 52.9255 93.9888C52.9255 94.7461 52.6785 95.4669 52.248 95.9666C51.7811 96.5078 51.1171 96.7819 50.2746 96.7819H40.3067C39.5074 96.7819 38.8597 97.4204 38.8597 98.2075C38.8597 98.9947 39.5074 99.6326 40.3067 99.6326H50.2746C51.9573 99.6326 53.4413 98.9858 54.4538 97.8117C55.2962 96.8355 55.7767 95.552 55.8171 94.18L65.2378 84.999C66.5843 83.6729 68.6879 84.0056 69.8649 85.0747C70.4733 85.6275 71.2916 86.7889 69.935 88.3604Z" fill="currentColor"/>
</svg>
