<svg width="19" height="19" viewBox="0 0 19 19" fill="none" xmlns="http://www.w3.org/2000/svg">
<path d="M16.1398 0.791504H6.02704C5.4786 0.792132 4.9528 1.01028 4.56499 1.39808C4.17719 1.78589 3.95904 2.31169 3.95841 2.86013V3.95817H2.86037C2.31193 3.9588 1.78613 4.17694 1.39833 4.56475C1.01052 4.95256 0.792377 5.47835 0.791748 6.0268V16.1395C0.792377 16.688 1.01052 17.2138 1.39833 17.6016C1.78613 17.9894 2.31193 18.2075 2.86037 18.2082H12.9731C13.5216 18.2075 14.0474 17.9894 14.4352 17.6016C14.823 17.2138 15.0411 16.688 15.0417 16.1395V15.0415H16.1398C16.6882 15.0409 17.214 14.8227 17.6018 14.4349C17.9896 14.0471 18.2078 13.5213 18.2084 12.9729V2.86013C18.2078 2.31169 17.9896 1.78589 17.6018 1.39808C17.214 1.01028 16.6882 0.792132 16.1398 0.791504ZM13.4584 16.1395C13.4582 16.2682 13.407 16.3915 13.316 16.4825C13.2251 16.5734 13.1018 16.6246 12.9731 16.6248H2.86037C2.73173 16.6246 2.60842 16.5734 2.51745 16.4825C2.42649 16.3915 2.37529 16.2682 2.37508 16.1395V6.0268C2.37529 5.89815 2.42649 5.77484 2.51745 5.68387C2.60842 5.59291 2.73173 5.54171 2.86037 5.5415H12.9731C13.1018 5.54171 13.2251 5.59291 13.316 5.68387C13.407 5.77484 13.4582 5.89815 13.4584 6.0268V16.1395ZM16.6251 12.9729C16.6249 13.1015 16.5737 13.2248 16.4827 13.3158C16.3917 13.4068 16.2684 13.458 16.1398 13.4582H15.0417V6.0268C15.0411 5.47835 14.823 4.95256 14.4352 4.56475C14.0474 4.17694 13.5216 3.9588 12.9731 3.95817H5.54175V2.86013C5.54196 2.73149 5.59315 2.60817 5.68412 2.51721C5.77508 2.42624 5.8984 2.37505 6.02704 2.37484H16.1398C16.2684 2.37505 16.3917 2.42624 16.4827 2.51721C16.5737 2.60817 16.6249 2.73149 16.6251 2.86013V12.9729Z" fill="currentColor"/>
<path d="M11.0835 10.2917H8.70849V7.91667C8.70849 7.7067 8.62509 7.50534 8.47662 7.35687C8.32815 7.20841 8.12679 7.125 7.91683 7.125C7.70687 7.125 7.5055 7.20841 7.35704 7.35687C7.20857 7.50534 7.12516 7.7067 7.12516 7.91667V10.2917H4.75016C4.5402 10.2917 4.33884 10.3751 4.19037 10.5235C4.0419 10.672 3.9585 10.8734 3.9585 11.0833C3.9585 11.2933 4.0419 11.4947 4.19037 11.6431C4.33884 11.7916 4.5402 11.875 4.75016 11.875H7.12516V14.25C7.12516 14.46 7.20857 14.6613 7.35704 14.8098C7.5055 14.9583 7.70687 15.0417 7.91683 15.0417C8.12679 15.0417 8.32815 14.9583 8.47662 14.8098C8.62509 14.6613 8.70849 14.46 8.70849 14.25V11.875H11.0835C11.2935 11.875 11.4948 11.7916 11.6433 11.6431C11.7918 11.4947 11.8752 11.2933 11.8752 11.0833C11.8752 10.8734 11.7918 10.672 11.6433 10.5235C11.4948 10.3751 11.2935 10.2917 11.0835 10.2917Z" fill="currentColor"/>
</svg>
