<svg width="21" height="23" viewBox="0 0 21 23" fill="none" xmlns="http://www.w3.org/2000/svg">
<path d="M16.6411 1.69083H15.8862V0.85975C15.8862 0.38491 15.5324 0 15.096 0C14.6596 0 14.3058 0.38491 14.3058 0.85975V1.69083H6.55274V0.85975C6.55274 0.38491 6.19896 0 5.76252 0C5.32609 0 4.97231 0.38491 4.97231 0.85975V1.69083H4.21746C2.06291 1.69083 0.310059 3.59792 0.310059 5.94203V17.7583C0.310059 20.1025 2.06291 22.0096 4.21746 22.0096H16.6411C18.7957 22.0096 20.5485 20.1025 20.5485 17.7583V5.94203C20.5485 3.59792 18.7957 1.69083 16.6411 1.69083ZM4.21746 3.41033H4.97231V5.08684C4.97231 5.56168 5.32609 5.94659 5.76252 5.94659C6.19896 5.94659 6.55274 5.56168 6.55274 5.08684V3.41033H14.3058V5.08684C14.3058 5.56168 14.6596 5.94659 15.096 5.94659C15.5325 5.94659 15.8863 5.56168 15.8863 5.08684V3.41033H16.6411C17.9242 3.41033 18.9681 4.54606 18.9681 5.94203V6.76335H1.89048V5.94203C1.89048 4.54606 2.93435 3.41033 4.21746 3.41033ZM16.6411 20.2901H4.21746C2.93435 20.2901 1.89048 19.1544 1.89048 17.7583V8.48285H18.9681V17.7583C18.9681 19.1544 17.9242 20.2901 16.6411 20.2901ZM7.32979 11.8645C7.32979 12.3394 6.97601 12.7243 6.53958 12.7243H4.98551C4.54907 12.7243 4.1953 12.3394 4.1953 11.8645C4.1953 11.3897 4.54907 11.0048 4.98551 11.0048H6.53958C6.97598 11.0048 7.32979 11.3897 7.32979 11.8645ZM16.6633 11.8645C16.6633 12.3394 16.3095 12.7243 15.8731 12.7243H14.319C13.8826 12.7243 13.5288 12.3394 13.5288 11.8645C13.5288 11.3897 13.8826 11.0048 14.319 11.0048H15.8731C16.3095 11.0048 16.6633 11.3897 16.6633 11.8645ZM11.992 11.8645C11.992 12.3394 11.6383 12.7243 11.2018 12.7243H9.64776C9.21133 12.7243 8.85755 12.3394 8.85755 11.8645C8.85755 11.3897 9.21133 11.0048 9.64776 11.0048H11.2018C11.6382 11.0048 11.992 11.3897 11.992 11.8645ZM7.32979 16.9371C7.32979 17.4119 6.97601 17.7968 6.53958 17.7968H4.98551C4.54907 17.7968 4.1953 17.4119 4.1953 16.9371C4.1953 16.4622 4.54907 16.0773 4.98551 16.0773H6.53958C6.97598 16.0773 7.32979 16.4622 7.32979 16.9371ZM16.6633 16.9371C16.6633 17.4119 16.3095 17.7968 15.8731 17.7968H14.319C13.8826 17.7968 13.5288 17.4119 13.5288 16.9371C13.5288 16.4622 13.8826 16.0773 14.319 16.0773H15.8731C16.3095 16.0773 16.6633 16.4622 16.6633 16.9371ZM11.992 16.9371C11.992 17.4119 11.6383 17.7968 11.2018 17.7968H9.64776C9.21133 17.7968 8.85755 17.4119 8.85755 16.9371C8.85755 16.4622 9.21133 16.0773 9.64776 16.0773H11.2018C11.6382 16.0773 11.992 16.4622 11.992 16.9371Z" fill="currentColor"/>
</svg>
