<svg width="19" height="19" viewBox="0 0 19 19" fill="none" xmlns="http://www.w3.org/2000/svg">
<path d="M16.15 1.9H15.2V0.95C15.2 0.424902 14.7746 0 14.25 0C13.7254 0 13.3 0.424902 13.3 0.95V1.9H10.45V0.95C10.45 0.424902 10.0246 0 9.5 0C8.97537 0 8.55 0.424902 8.55 0.95V1.9H5.7V0.95C5.7 0.424902 5.27463 0 4.75 0C4.22537 0 3.8 0.424902 3.8 0.95V1.9H2.85C1.27842 1.9 0 3.17842 0 4.75V16.15C0 17.7216 1.27842 19 2.85 19H16.15C17.7216 19 19 17.7216 19 16.15V4.75C19 3.17842 17.7216 1.9 16.15 1.9ZM17.1 16.15C17.1 16.6742 16.6737 17.1 16.15 17.1H2.85C2.32629 17.1 1.9 16.6742 1.9 16.15V4.75C1.9 4.22583 2.32629 3.8 2.85 3.8H16.15C16.6737 3.8 17.1 4.22583 17.1 4.75V16.15ZM13.7342 7.40332C14.1053 7.77441 14.1053 8.37559 13.7342 8.74668L8.98418 13.4967C8.79863 13.6822 8.55557 13.775 8.3125 13.775C8.06943 13.775 7.82637 13.6822 7.64082 13.4967L5.26582 11.1217C4.89473 10.7506 4.89473 10.1494 5.26582 9.77832C5.63691 9.40723 6.23809 9.40723 6.60918 9.77832L8.3125 11.4816L12.3908 7.40332C12.7619 7.03223 13.3631 7.03223 13.7342 7.40332Z" fill="currentColor" fill-opacity="0.99"/>
</svg>
