<svg width="39" height="40" viewBox="0 0 39 40" fill="none" xmlns="http://www.w3.org/2000/svg">
<path d="M11.6019 4.86719H3.22412V6.15608H11.6019V4.86719Z" fill="currentColor" stroke="currentColor" stroke-width="0.5"/>
<path d="M11.6019 7.44556H3.22412V8.73445H11.6019V7.44556Z" fill="currentColor" stroke="currentColor" stroke-width="0.5"/>
<path d="M9.02412 10.0222H3.22412V11.3111H9.02412V10.0222Z" fill="currentColor" stroke="currentColor" stroke-width="0.5"/>
<path d="M9.02412 12.6006H3.22412V13.8895H9.02412V12.6006Z" fill="currentColor" stroke="currentColor" stroke-width="0.5"/>
<path d="M38.6667 38.3777H0V39.6666H38.6667V38.3777Z" fill="currentColor" stroke="currentColor" stroke-width="0.5"/>
<path d="M37.3069 6.51246L34.7291 1.35691C34.5702 1.03839 34.1833 0.909017 33.8647 1.06795C33.8646 1.06803 33.8644 1.06811 33.8643 1.06819L28.7087 3.64597C28.3902 3.80507 28.2609 4.1923 28.42 4.51082C28.5791 4.82933 28.9663 4.95863 29.2848 4.79953L33.0188 2.93386L31.9999 5.84288C27.5216 18.5971 15.9869 27.5449 2.51978 28.7116L2.62933 30.0005C16.6039 28.7899 28.5726 19.5037 33.2172 6.26822L34.2574 3.29604L36.1533 7.08859C36.3124 7.40711 36.6997 7.5364 37.0182 7.37731C37.3368 7.21821 37.466 6.83106 37.3069 6.51246Z" fill="currentColor" stroke="currentColor" stroke-width="0.5"/>
<path d="M7.73124 31.9346H3.22013C2.86423 31.9346 2.57568 32.2231 2.57568 32.579V36.4457C2.57568 36.8016 2.86423 37.0901 3.22013 37.0901H7.73124C8.08713 37.0901 8.37568 36.8016 8.37568 36.4457V32.579C8.37568 32.2231 8.08713 31.9346 7.73124 31.9346ZM7.08679 35.8012H3.86457V33.2235H7.08679V35.8012Z" fill="currentColor" stroke="currentColor" stroke-width="0.5"/>
<path d="M14.8226 30.001H10.3114C9.95554 30.001 9.66699 30.2895 9.66699 30.6454V36.4454C9.66699 36.8013 9.95554 37.0899 10.3114 37.0899H14.8226C15.1784 37.0899 15.467 36.8013 15.467 36.4454V30.6454C15.467 30.2895 15.1784 30.001 14.8226 30.001ZM14.1781 35.801H10.9559V31.2899H14.1781V35.801Z" fill="currentColor" stroke="currentColor" stroke-width="0.5"/>
<path d="M21.9139 26.7771H17.4027C17.0469 26.7771 16.7583 27.0656 16.7583 27.4215V36.4438C16.7583 36.7997 17.0469 37.0882 17.4027 37.0882H21.9139C22.2698 37.0882 22.5583 36.7997 22.5583 36.4438V27.4215C22.5583 27.0656 22.2698 26.7771 21.9139 26.7771ZM21.2694 35.7993H18.0472V28.066H21.2694V35.7993Z" fill="currentColor" stroke="currentColor" stroke-width="0.5"/>
<path d="M28.9978 22.2676H24.4867C24.1308 22.2676 23.8423 22.5561 23.8423 22.912V36.4454C23.8423 36.8012 24.1308 37.0898 24.4867 37.0898H28.9978C29.3537 37.0898 29.6423 36.8012 29.6423 36.4454V22.912C29.6423 22.5561 29.3537 22.2676 28.9978 22.2676ZM28.3534 35.8009H25.1312V23.5565H28.3534V35.8009Z" fill="currentColor" stroke="currentColor" stroke-width="0.5"/>
<path d="M36.0891 13.2463H31.578C31.2221 13.2463 30.9336 13.5349 30.9336 13.8908V36.4463C30.9336 36.8022 31.2221 37.0908 31.578 37.0908H36.0891C36.445 37.0908 36.7336 36.8022 36.7336 36.4463V13.8908C36.7336 13.5349 36.445 13.2463 36.0891 13.2463ZM35.4447 35.8019H32.2225V14.5352H35.4447V35.8019Z" fill="currentColor" stroke="currentColor" stroke-width="0.5"/>
</svg>
