<svg width="19" height="19" viewBox="0 0 19 19" fill="none" xmlns="http://www.w3.org/2000/svg">
<path d="M9.49906 0.196655C8.94904 0.196655 8.39978 0.355096 7.92236 0.673356L1.26877 5.10478C0.477057 5.63259 1.15169e-09 6.52202 1.15169e-09 7.47351V15.9561C-4.4517e-05 17.5184 1.29054 18.8034 2.85286 18.8034H16.1452C17.7075 18.8034 19 17.5184 19 15.9561V7.47351C19 6.52202 18.521 5.63255 17.7293 5.10478L11.0775 0.673356C10.6002 0.355096 10.0491 0.196655 9.49906 0.196655ZM9.49906 2.0905C9.68163 2.0905 9.86523 2.1429 10.0258 2.25001L16.6721 6.68144C16.9372 6.85804 17.0987 7.15485 17.0987 7.47351V15.9561C17.0987 16.4919 16.681 16.904 16.1452 16.904H2.8529C2.31713 16.904 1.89946 16.4919 1.89946 15.9561V7.47351C1.89946 7.15476 2.06284 6.85822 2.32794 6.68144L8.97415 2.25001C9.13477 2.1429 9.31649 2.0905 9.49906 2.0905ZM3.79335 7.3956C3.26884 7.38879 2.83808 7.80846 2.83127 8.33297C2.82695 8.6633 2.9946 8.97217 3.27396 9.1485L8.97415 12.9492C9.29272 13.1611 9.70732 13.1611 10.0259 12.9492L15.7242 9.1485C16.1721 8.87436 16.3129 8.28899 16.0387 7.84114C15.7646 7.39328 15.1792 7.25243 14.7314 7.52662C14.7119 7.53855 14.6929 7.55115 14.6743 7.56441L9.49906 11.0146L4.3257 7.56441C4.16917 7.45606 3.98371 7.39725 3.79335 7.3956Z" fill="currentColor"/>
</svg>
