<svg width="19" height="19" viewBox="0 0 19 19" fill="none" xmlns="http://www.w3.org/2000/svg">
<path d="M18.6809 8.02335L17.0758 6.56083V1.71128C17.0758 1.40271 16.8256 1.15252 16.517 1.15252H12.6534C12.3448 1.15252 12.0946 1.40268 12.0946 1.71128V2.02203L10.1562 0.255739C9.78202 -0.0852587 9.21777 -0.0852215 8.84375 0.255702L0.319061 8.02339C0.0193654 8.29651 -0.0796794 8.71733 0.0667541 9.09544C0.213225 9.47354 0.569846 9.71783 0.97534 9.71783H2.33684V17.5004C2.33684 17.809 2.587 18.0592 2.8956 18.0592H7.56815C7.87672 18.0592 8.12691 17.809 8.12691 17.5004V12.7751H10.873V17.5005C10.873 17.809 11.1232 18.0592 11.4318 18.0592H16.1042C16.4127 18.0592 16.6629 17.8091 16.6629 17.5005V9.71787H18.0247C18.4301 9.71787 18.7868 9.47354 18.9333 9.09547C19.0797 8.71733 18.9807 8.29651 18.6809 8.02335ZM16.1042 8.60036C15.7956 8.60036 15.5454 8.85052 15.5454 9.15912V16.9417H11.9906V12.2163C11.9906 11.9078 11.7404 11.6576 11.4318 11.6576H7.56815C7.25959 11.6576 7.0094 11.9077 7.0094 12.2163V16.9417H3.45432V9.15912C3.45432 8.85055 3.20416 8.60036 2.89556 8.60036H1.34502L9.50003 1.16959L12.2771 3.70011C12.4407 3.84915 12.6768 3.88755 12.8792 3.79823C13.0816 3.7088 13.2122 3.50833 13.2122 3.28709V2.27003H15.9584V6.80761C15.9584 6.96484 16.0246 7.11473 16.1408 7.22064L17.655 8.60036H16.1042Z" fill="currentColor"/>
</svg>
