<svg width="42" height="42" viewBox="0 0 42 42" fill="none" xmlns="http://www.w3.org/2000/svg">
<path d="M25.4772 19.7459C27.3588 18.2595 28.5678 15.9637 28.5678 13.3918C28.5678 8.92112 24.9152 5.28394 20.4255 5.28394C15.9357 5.28394 12.283 8.92112 12.283 13.3918C12.283 13.6848 12.2991 13.9742 12.3297 14.2593C11.4042 13.7539 10.3428 13.4659 9.2149 13.4659C5.63071 13.4659 2.71482 16.37 2.71482 19.9397C2.71482 21.8008 3.50856 23.4799 4.7752 24.6619C1.9667 25.895 0 28.7025 0 31.9611V39.4892C0 40.8737 1.12629 42 2.51073 42H11.6319H12.4522H29.2189C30.8234 42 32.1287 40.6947 32.1287 39.0902V29.216C32.1287 24.8635 29.352 21.1477 25.4772 19.7459ZM20.4255 7.74487C23.5582 7.74487 26.1069 10.2781 26.1069 13.3918C26.1069 16.5056 23.5582 19.0388 20.4255 19.0388C17.2927 19.0388 14.744 16.5056 14.744 13.3918C14.744 10.2781 17.2927 7.74487 20.4255 7.74487ZM9.2149 15.9268C11.4421 15.9268 13.2541 17.727 13.2541 19.9397C13.2541 20.2606 13.2154 20.5791 13.1404 20.8873C12.0088 21.6572 11.0415 22.6513 10.303 23.8055C9.95088 23.9031 9.58625 23.9527 9.2149 23.9527C6.98775 23.9527 5.17576 22.1525 5.17576 19.9397C5.17576 17.7271 6.98775 15.9268 9.2149 15.9268ZM2.46094 39.4892V31.9611C2.46094 28.9248 4.93114 26.4546 7.96745 26.4546H9.10727C8.8565 27.3324 8.72214 28.2588 8.72214 29.216V39.0902C8.72214 39.2428 8.73411 39.3927 8.75684 39.539H2.51073C2.48612 39.539 2.46094 39.5138 2.46094 39.4892ZM29.6677 39.0902C29.6677 39.3335 29.4622 39.539 29.2189 39.539H12.4523H11.6319C11.3886 39.539 11.1831 39.3335 11.1831 39.0902V29.216C11.1831 25.022 14.5952 21.6099 18.7892 21.6099H22.0616C26.2557 21.6099 29.6677 25.022 29.6677 29.216V39.0902Z" fill="currentColor"/>
<path d="M40.7696 3.47468H38.5079V1.23047C38.5079 0.550922 37.957 0 37.2775 0C36.5979 0 36.047 0.550922 36.047 1.23047V3.47468H33.7854C33.1059 3.47468 32.5549 4.0256 32.5549 4.70515C32.5549 5.3847 33.1059 5.93562 33.7854 5.93562H36.047V8.17991C36.047 8.85946 36.5979 9.41038 37.2775 9.41038C37.957 9.41038 38.5079 8.85946 38.5079 8.17991V5.93562H40.7696C41.4492 5.93562 42.0001 5.3847 42.0001 4.70515C42.0001 4.0256 41.4492 3.47468 40.7696 3.47468Z" fill="currentColor"/>
</svg>
