<svg width="112" height="102" viewBox="0 0 112 102" fill="none" xmlns="http://www.w3.org/2000/svg">
<path d="M111.999 60.5434C111.995 60.2529 111.911 59.9602 111.759 59.7122L106.108 50.4883C105.634 49.7157 104.624 49.4729 103.852 49.9465C103.079 50.4199 102.836 51.4299 103.31 52.2025L107.431 58.9293H94.5354V40.1725H95.942L100.062 46.8976C100.371 47.4029 100.91 47.6814 101.462 47.6814C101.754 47.6814 102.05 47.6033 102.318 47.4396C103.09 46.9663 103.333 45.9563 102.86 45.1837L98.2601 37.6749C97.9619 37.1879 97.4319 36.8911 96.861 36.8911H94.5354V2.11047C94.5354 1.20441 93.8009 0.469849 92.8948 0.469849H38.3806C37.4745 0.469849 36.7399 1.20441 36.7399 2.11047C36.7399 3.01654 37.4745 3.7511 38.3806 3.7511H91.2538V58.9293H78.7651C78.33 58.9293 77.9126 59.1021 77.6051 59.4099L68.3454 68.6695H43.6548L37.1962 62.2112H67.604C68.5101 62.2112 69.2447 61.4766 69.2447 60.5705C69.2447 59.6645 68.5101 58.9299 67.604 58.9299H33.2434C33.2406 58.9299 33.2378 58.9295 33.2349 58.9295H20.7463V3.7511H31.4046C32.3107 3.7511 33.0452 3.01654 33.0452 2.11047C33.0452 1.20441 32.3107 0.469849 31.4046 0.469849H19.1056C18.1996 0.469849 17.465 1.20441 17.465 2.11047V36.8915H15.1395C14.5685 36.8915 14.0387 37.1884 13.7403 37.6753L0.241062 59.7124C0.0850938 59.9672 0 60.2711 0 60.5699V99.8893C0 100.795 0.734562 101.53 1.64062 101.53H12.4254C13.3315 101.53 14.0661 100.795 14.0661 99.8893C14.0661 98.9833 13.3315 98.2487 12.4254 98.2487H3.28125V62.2105H28.6779C28.6807 62.2105 28.6836 62.2109 28.6864 62.2109H32.5557L41.8149 71.4702C42.1225 71.778 42.5399 71.9508 42.975 71.9508H69.0248C69.4599 71.9508 69.8773 71.778 70.1848 71.4702L79.4445 62.2105H108.719V98.2487H19.6873C18.7812 98.2487 18.0467 98.9833 18.0467 99.8893C18.0467 100.795 18.7812 101.53 19.6873 101.53H110.359C111.265 101.53 112 100.795 112 99.8893V60.5699C112 60.5609 111.999 60.5524 111.999 60.5434ZM17.465 58.9293H4.56859L16.0582 40.1725H17.4648V58.9293H17.465Z" fill="currentColor"/>
<path d="M80.7343 83.4086H71.6472C71.022 82.0423 69.6454 81.089 68.0472 81.089H43.953C42.3551 81.089 40.9782 82.0423 40.3531 83.4086H31.0732C30.1672 83.4086 29.4326 84.1432 29.4326 85.0492C29.4326 85.9553 30.1672 86.6899 31.0732 86.6899H40.3533C40.9785 88.056 42.3551 89.0095 43.9532 89.0095H68.0472C69.6452 89.0095 71.022 88.0562 71.6472 86.6899H80.7343C81.6404 86.6899 82.3749 85.9553 82.3749 85.0492C82.3749 84.1432 81.6404 83.4086 80.7343 83.4086ZM68.047 85.7282H43.953C43.5787 85.7282 43.274 85.4237 43.274 85.0492C43.274 84.6747 43.5787 84.3702 43.953 84.3702H68.0472C68.4215 84.3702 68.7262 84.675 68.7262 85.0492C68.7262 85.4235 68.4215 85.7282 68.047 85.7282Z" fill="currentColor"/>
<path d="M102.218 89.4042H89.7488C88.8427 89.4042 88.1082 90.1387 88.1082 91.0448C88.1082 91.9509 88.8427 92.6854 89.7488 92.6854H102.218C103.124 92.6854 103.858 91.9509 103.858 91.0448C103.858 90.1387 103.124 89.4042 102.218 89.4042Z" fill="currentColor"/>
<path d="M102.218 84.5873H94.0488C93.1428 84.5873 92.4082 85.3218 92.4082 86.2279C92.4082 87.134 93.1428 87.8685 94.0488 87.8685H102.218C103.124 87.8685 103.858 87.134 103.858 86.2279C103.858 85.3218 103.124 84.5873 102.218 84.5873Z" fill="currentColor"/>
<path d="M86.6793 26.3248H25.3208C24.4147 26.3248 23.6802 27.0594 23.6802 27.9655C23.6802 28.8715 24.4147 29.6061 25.3208 29.6061H86.6793C87.5853 29.6061 88.3199 28.8715 88.3199 27.9655C88.3199 27.0594 87.5853 26.3248 86.6793 26.3248Z" fill="currentColor"/>
<path d="M37.0374 6.78479H26.9119C26.0058 6.78479 25.2712 7.51935 25.2712 8.42542V18.5509C25.2712 19.457 26.0058 20.1915 26.9119 20.1915H37.0374C37.9434 20.1915 38.678 19.457 38.678 18.5509V8.42542C38.678 7.51913 37.9434 6.78479 37.0374 6.78479ZM35.3967 16.9103H28.5525V10.066H35.3967V16.9103Z" fill="currentColor"/>
<path d="M58.5734 7.42297H45.0083C44.1022 7.42297 43.3677 8.15754 43.3677 9.0636C43.3677 9.96966 44.102 10.7042 45.0083 10.7042H58.5734C59.4795 10.7042 60.214 9.96966 60.214 9.0636C60.214 8.15754 59.4795 7.42297 58.5734 7.42297Z" fill="currentColor"/>
<path d="M76.6317 13.0665H45.0083C44.1022 13.0665 43.3677 13.8011 43.3677 14.7072C43.3677 15.6132 44.102 16.3478 45.0083 16.3478H76.6317C77.5377 16.3478 78.2723 15.6132 78.2723 14.7072C78.2723 13.8011 77.5377 13.0665 76.6317 13.0665Z" fill="currentColor"/>
<path d="M76.6317 18.1245H45.0083C44.1022 18.1245 43.3677 18.8591 43.3677 19.7651C43.3677 20.6712 44.102 21.4058 45.0083 21.4058H76.6317C77.5377 21.4058 78.2723 20.6712 78.2723 19.7651C78.2723 18.8591 77.5377 18.1245 76.6317 18.1245Z" fill="currentColor"/>
<path d="M28.6863 33.5125C27.7802 33.5125 27.0457 34.247 27.0457 35.1531V38.1545C27.0457 39.0606 27.7802 39.7952 28.6863 39.7952C29.5923 39.7952 30.3269 39.0606 30.3269 38.1545V35.1531C30.3269 34.247 29.5923 33.5125 28.6863 33.5125Z" fill="currentColor"/>
<path d="M34.3853 33.5125C33.4792 33.5125 32.7446 34.247 32.7446 35.1531V38.1545C32.7446 39.0606 33.4792 39.7952 34.3853 39.7952C35.2913 39.7952 36.0259 39.0606 36.0259 38.1545V35.1531C36.0259 34.247 35.2913 33.5125 34.3853 33.5125Z" fill="currentColor"/>
<path d="M44.3586 44.2977H28.6863C27.7802 44.2977 27.0457 45.0323 27.0457 45.9384C27.0457 46.8444 27.7802 47.579 28.6863 47.579H44.3586C45.2647 47.579 45.9993 46.8444 45.9993 45.9384C45.9993 45.0323 45.2647 44.2977 44.3586 44.2977Z" fill="currentColor"/>
<path d="M77.422 52.4308H28.6863C27.7802 52.4308 27.0457 53.1653 27.0457 54.0714C27.0457 54.9775 27.7802 55.712 28.6863 55.712H77.422C78.3281 55.712 79.0627 54.9775 79.0627 54.0714C79.0627 53.1653 78.3281 52.4308 77.422 52.4308Z" fill="currentColor"/>
</svg>
