<svg width="37" height="42" viewBox="0 0 37 42" fill="none" xmlns="http://www.w3.org/2000/svg">
<path d="M0 40.7695C0 41.4491 0.550824 41.9999 1.23046 41.9999H8.61323C9.79627 41.9999 10.8505 41.4398 11.5266 40.5714C14.5259 41.519 17.6392 41.9999 20.7884 41.9999H30.7616C32.7969 41.9999 34.4529 40.3439 34.4529 38.3085C34.4529 37.8282 34.3597 37.3694 34.1921 36.948C35.7584 36.5212 36.9139 35.0866 36.9139 33.3867C36.9139 32.4421 36.5566 31.5795 35.9708 30.9258C36.5569 30.2721 36.9139 29.4095 36.9139 28.4648C36.9139 27.5202 36.5566 26.6576 35.9708 26.0039C36.5569 25.3502 36.9139 24.4876 36.9139 23.543C36.9139 21.5076 35.2579 19.8516 33.2225 19.8516H26.4873C26.5828 19.6254 26.6815 19.396 26.7821 19.1627C27.5287 17.4314 28.3006 15.6411 28.3006 13.6993C28.3006 10.2982 25.5497 7.46497 22.1483 7.46497C21.5619 7.46497 21.0569 7.87896 20.9419 8.45414L20.3135 11.596C19.4881 15.7225 18.5765 16.1897 15.1847 17.9277C14.2881 18.3869 13.2348 18.9268 12.0057 19.6276C11.4398 18.3135 10.1324 17.3907 8.61323 17.3907H1.23046C0.550824 17.3907 0 17.9415 0 18.6212V40.7695ZM16.3065 20.1179C18.1432 19.1768 19.4698 18.4971 20.5087 17.3465C21.5709 16.1695 22.2137 14.6433 22.7267 12.0786L23.1288 10.0669C24.672 10.5187 25.8397 11.9994 25.8397 13.6993C25.8397 15.1329 25.17 16.6861 24.5221 18.1882C24.2872 18.7333 24.0475 19.2905 23.8341 19.8516H22.1483C21.4687 19.8516 20.9179 20.4024 20.9179 21.0821C20.9179 21.7617 21.4687 22.3125 22.1483 22.3125H33.2225C33.9008 22.3125 34.4529 22.8646 34.4529 23.543C34.4529 24.2214 33.9008 24.7735 33.2225 24.7735H30.7616C30.0819 24.7735 29.5311 25.3243 29.5311 26.0039C29.5311 26.6836 30.0819 27.2344 30.7616 27.2344H33.2225C33.9008 27.2344 34.4529 27.7865 34.4529 28.4648C34.4529 29.1432 33.9008 29.6953 33.2225 29.6953H30.7616C30.0819 29.6953 29.5311 30.2461 29.5311 30.9258C29.5311 31.6054 30.0819 32.1562 30.7616 32.1562H33.2225C33.9008 32.1562 34.4529 32.7083 34.4529 33.3867C34.4529 34.0651 33.9008 34.6172 33.2225 34.6172H30.7616C30.0819 34.6172 29.5311 35.168 29.5311 35.8476C29.5311 36.5273 30.0819 37.0781 30.7616 37.0781C31.4399 37.0781 31.992 37.6302 31.992 38.3085C31.992 38.9869 31.4399 39.539 30.7616 39.539H20.7884C17.9042 39.539 15.0527 39.1007 12.3046 38.2368V22.302C13.8911 21.356 15.218 20.6758 16.3065 20.1179ZM2.46092 19.8516H8.61323C9.29159 19.8516 9.8437 20.4037 9.8437 21.0821V38.3085C9.8437 38.9869 9.29159 39.539 8.61323 39.539H2.46092V19.8516Z" fill="currentColor"/>
<path d="M7.38255 35.8478C7.38255 36.5274 6.83173 37.0782 6.15209 37.0782C5.47245 37.0782 4.92163 36.5274 4.92163 35.8478C4.92163 35.1681 5.47245 34.6173 6.15209 34.6173C6.83173 34.6173 7.38255 35.1681 7.38255 35.8478Z" fill="currentColor"/>
<path d="M22.1492 1.23046V3.77342C22.1492 4.45305 22.7 5.00388 23.3796 5.00388C24.0593 5.00388 24.6101 4.45305 24.6101 3.77342V1.23046C24.6101 0.550824 24.0593 0 23.3796 0C22.7 0 22.1492 0.550824 22.1492 1.23046Z" fill="currentColor"/>
<path d="M29.8925 3.26418L28.1522 5.00445C27.6716 5.4851 27.6716 6.26407 28.1522 6.74472C28.6329 7.22505 29.4119 7.22505 29.8925 6.74472L31.6325 5.00445C32.1131 4.5238 32.1131 3.74483 31.6325 3.26418C31.1518 2.78385 30.3728 2.78385 29.8925 3.26418Z" fill="currentColor"/>
<path d="M15.1251 3.26418C14.6445 3.74483 14.6445 4.5238 15.1251 5.00445L16.8651 6.74472C17.3457 7.22505 18.1247 7.22505 18.6054 6.74472C19.0857 6.26407 19.0857 5.4851 18.6054 5.00445L16.8651 3.26418C16.3848 2.78385 15.6055 2.78385 15.1251 3.26418Z" fill="currentColor"/>
</svg>
