<svg width="29" height="29" viewBox="0 0 29 29" fill="none" xmlns="http://www.w3.org/2000/svg">
<path fill-rule="evenodd" clip-rule="evenodd" d="M10.875 20.6624H18.125V8.3374H10.875V20.6624Z" fill="#FF5F00"/>
<path fill-rule="evenodd" clip-rule="evenodd" d="M11.419 14.4999C11.419 11.9559 12.6237 9.69009 14.4997 8.23C13.1278 7.16202 11.3966 6.5249 9.51496 6.5249C5.06055 6.5249 1.44971 10.0953 1.44971 14.4999C1.44971 18.9043 5.06055 22.4749 9.51496 22.4749C11.3966 22.4749 13.1278 21.8378 14.4997 20.7698C12.6237 19.3095 11.419 17.0439 11.419 14.4999Z" fill="#EB001B"/>
<path fill-rule="evenodd" clip-rule="evenodd" d="M27.481 19.4415V19.1318H27.3986L27.3041 19.3447L27.2093 19.1318H27.127V19.4415H27.1852V19.208L27.2738 19.4092H27.3341L27.423 19.2074V19.4415H27.481ZM26.9595 19.4416V19.1848H27.0648V19.1323H26.7963V19.1848H26.9017V19.4416H26.9595ZM27.7345 14.4999C27.7345 18.9043 24.0982 22.4749 19.6123 22.4749C17.7174 22.4749 15.9741 21.8378 14.5923 20.7698C16.4815 19.3095 17.6948 17.0439 17.6948 14.4999C17.6948 11.9559 16.4815 9.69009 14.5923 8.23C15.9741 7.16202 17.7174 6.5249 19.6123 6.5249C24.0982 6.5249 27.7345 10.0953 27.7345 14.4999Z" fill="#F79E1B"/>
</svg>
