<svg width="86" height="112" viewBox="0 0 86 112" fill="none" xmlns="http://www.w3.org/2000/svg">
<path d="M75.8989 6.09509H21.6826C20.7763 6.09509 20.042 6.82965 20.042 7.73571C20.042 8.64177 20.7763 9.37633 21.6826 9.37633H75.8991C76.8054 9.37633 77.5398 8.64177 77.5398 7.73571C77.5398 6.82965 76.8052 6.09509 75.8989 6.09509Z" fill="currentColor"/>
<path d="M33.0839 61.584C33.0839 59.4434 31.3425 57.7017 29.2018 57.7017H12.9686C10.8279 57.7017 9.08618 59.4431 9.08618 61.584V74.2796C9.08618 76.4203 10.8279 78.162 12.9686 78.162H29.2018C31.3425 78.162 33.0839 76.4205 33.0839 74.2796V61.584ZM29.8027 74.2796C29.8027 74.611 29.5332 74.8808 29.2018 74.8808H12.9686C12.6369 74.8808 12.3674 74.6113 12.3674 74.2796V61.584C12.3674 61.2526 12.6369 60.9829 12.9686 60.9829H29.2018C29.5332 60.9829 29.8027 61.2524 29.8027 61.584V74.2796Z" fill="currentColor"/>
<path d="M29.2018 82.2584H12.9686C10.8279 82.2584 9.08618 84.0001 9.08618 86.1408V98.8364C9.08618 100.977 10.8279 102.719 12.9686 102.719H29.2018C31.3425 102.719 33.0839 100.977 33.0839 98.8364V86.1408C33.0839 83.9999 31.3425 82.2584 29.2018 82.2584ZM29.8027 98.8362C29.8027 99.1676 29.5332 99.4373 29.2018 99.4373H12.9686C12.6369 99.4373 12.3674 99.1676 12.3674 98.8362V86.1406C12.3674 85.8092 12.6369 85.5395 12.9686 85.5395H29.2018C29.5332 85.5395 29.8027 85.8092 29.8027 86.1406V98.8362Z" fill="currentColor"/>
<path d="M73.4069 59.8163H39.1567C38.2505 59.8163 37.5161 60.5508 37.5161 61.4569C37.5161 62.363 38.2505 63.0975 39.1567 63.0975H73.4069C74.3131 63.0975 75.0475 62.363 75.0475 61.4569C75.0475 60.5508 74.3129 59.8163 73.4069 59.8163Z" fill="currentColor"/>
<path d="M73.4069 66.2913H39.1567C38.2505 66.2913 37.5161 67.0258 37.5161 67.9319C37.5161 68.8379 38.2505 69.5725 39.1567 69.5725H73.4069C74.3131 69.5725 75.0475 68.8379 75.0475 67.9319C75.0475 67.0258 74.3129 66.2913 73.4069 66.2913Z" fill="currentColor"/>
<path d="M73.4069 72.7664H39.1567C38.2505 72.7664 37.5161 73.5009 37.5161 74.407C37.5161 75.313 38.2505 76.0476 39.1567 76.0476H73.4069C74.3131 76.0476 75.0475 75.313 75.0475 74.407C75.0475 73.5009 74.3129 72.7664 73.4069 72.7664Z" fill="currentColor"/>
<path d="M73.4069 84.3728H39.1567C38.2505 84.3728 37.5161 85.1074 37.5161 86.0134C37.5161 86.9195 38.2505 87.6541 39.1567 87.6541H73.4069C74.3131 87.6541 75.0475 86.9195 75.0475 86.0134C75.0475 85.1074 74.3129 84.3728 73.4069 84.3728Z" fill="currentColor"/>
<path d="M73.4069 90.8479H39.1567C38.2505 90.8479 37.5161 91.5825 37.5161 92.4885C37.5161 93.3946 38.2505 94.1292 39.1567 94.1292H73.4069C74.3131 94.1292 75.0475 93.3946 75.0475 92.4885C75.0475 91.5825 74.3129 90.8479 73.4069 90.8479Z" fill="currentColor"/>
<path d="M73.4069 97.3229H39.1567C38.2505 97.3229 37.5161 98.0574 37.5161 98.9635C37.5161 99.8696 38.2505 100.604 39.1567 100.604H73.4069C74.3131 100.604 75.0475 99.8696 75.0475 98.9635C75.0475 98.0574 74.3129 97.3229 73.4069 97.3229Z" fill="currentColor"/>
<path d="M23.2284 64.7873L20.4199 67.596L18.9407 66.1168C18.2998 65.4761 17.2612 65.4761 16.6204 66.1168C15.9797 66.7575 15.9797 67.7964 16.6204 68.4369L19.2597 71.0761C19.9002 71.7164 20.939 71.7168 21.5799 71.0761L25.5487 67.1073C26.1894 66.4666 26.1894 65.4278 25.5487 64.7873C24.908 64.1468 23.8694 64.1468 23.2284 64.7873Z" fill="currentColor"/>
<path d="M23.2284 89.3439L20.4199 92.1527L18.9405 90.6735C18.3 90.0326 17.2611 90.0328 16.6204 90.6735C15.9797 91.3142 15.9797 92.3531 16.6206 92.9936L19.2598 95.6328C19.8999 96.2733 20.9387 96.2737 21.5799 95.6328L25.5487 91.664C26.1894 91.0233 26.1894 89.9844 25.5487 89.3439C24.908 88.7032 23.8693 88.7032 23.2284 89.3439Z" fill="currentColor"/>
<path d="M42.845 52.7345C52.195 52.7345 59.7616 45.1137 59.7616 35.8179C59.7616 28.0996 54.5479 21.3636 47.083 19.4371C46.205 19.2109 45.3105 19.7385 45.0846 20.6157C44.8581 21.4931 45.3858 22.3878 46.2632 22.6142C52.2788 24.1667 56.4803 29.596 56.4803 35.8177C56.4803 38.5685 55.6589 41.1296 54.2521 43.2743V43.2351C54.2521 40.0134 51.9056 37.331 48.8324 36.803C49.6138 35.6489 50.0705 34.2578 50.0705 32.7622C50.0705 28.7779 46.8291 25.5363 42.8448 25.5363C38.8602 25.5363 35.6188 28.7777 35.6188 32.7622C35.6188 34.2578 36.0755 35.6489 36.8569 36.803C33.7837 37.3313 31.4372 40.0136 31.4372 43.2351V43.2743C30.0306 41.1296 29.209 38.5685 29.209 35.8177C29.209 29.596 33.4105 24.1664 39.4264 22.6142C40.3038 22.3878 40.8314 21.4931 40.605 20.6157C40.3788 19.7385 39.4835 19.2107 38.6065 19.4371C31.1414 21.3636 25.9277 28.0996 25.9277 35.8179C25.9282 45.0892 33.4624 52.7345 42.845 52.7345ZM42.845 28.8179C45.02 28.8179 46.7895 30.5874 46.7895 32.7627C46.7895 34.9379 45.02 36.7074 42.845 36.7074C40.67 36.7074 38.9003 34.9379 38.9003 32.7627C38.9003 30.5874 40.67 28.8179 42.845 28.8179ZM34.7189 43.2353C34.7189 41.4449 36.1755 39.9884 37.966 39.9884H47.7242C49.5147 39.9884 50.9711 41.4451 50.9711 43.2353V46.76C48.5362 48.573 45.6489 49.4533 42.8452 49.4533C40.0354 49.4533 37.1465 48.5676 34.7191 46.76V43.2353H34.7189Z" fill="currentColor"/>
<path d="M0 5.84629V106.154C0 109.377 2.62258 112 5.84629 112H79.8428C83.0665 112 85.6893 109.377 85.6893 106.154V59.8281C85.6893 58.9221 84.9549 58.1875 84.0487 58.1875C83.1424 58.1875 82.4081 58.9221 82.4081 59.8281V106.154C82.4081 107.568 81.2572 108.719 79.8428 108.719H5.84607C4.43164 108.719 3.28102 107.568 3.28102 106.154V15.4713H82.4076V52.1719C82.4076 53.0779 83.142 53.8125 84.0482 53.8125C84.9545 53.8125 85.6889 53.0779 85.6889 52.1719V5.84629C85.6889 2.62258 83.0663 0 79.8426 0H5.84607C2.62258 0 0 2.62258 0 5.84629ZM15.3201 3.28124H79.8426C81.257 3.28124 82.4078 4.43186 82.4078 5.84629V12.19H15.3201V3.28124ZM12.0389 12.19H3.28124V5.84629C3.28124 4.43186 4.43164 3.28124 5.84607 3.28124H12.0389V12.19Z" fill="currentColor"/>
</svg>
