<svg width="44" height="44" viewBox="0 0 44 44" fill="none" xmlns="http://www.w3.org/2000/svg">
<path d="M35.0301 22.6152H36.8592C37.1454 24.0315 38.3995 25.1012 39.8989 25.1012C41.6088 25.1012 43 23.71 43 22C43 20.29 41.6088 18.8988 39.8988 18.8988C38.3994 18.8988 37.1453 19.9685 36.8591 21.3848H35.03C34.8837 18.2509 33.627 15.4025 31.6446 13.2254L34.9393 9.93082C35.5878 10.4031 36.3852 10.6827 37.2471 10.6827C39.4141 10.6827 41.1769 8.91979 41.1769 6.75285C41.1769 4.58591 39.4141 2.82306 37.2471 2.82306C35.0802 2.82306 33.3174 4.586 33.3174 6.75285C33.3174 7.61475 33.5969 8.41218 34.0693 9.06072L30.7746 12.3553C28.5975 10.373 25.7491 9.11617 22.6152 8.96999V7.14086C24.0315 6.85465 25.1012 5.60056 25.1012 4.10119C25.1012 2.39117 23.71 1 22 1C20.29 1 18.8988 2.39117 18.8988 4.10119C18.8988 5.60056 19.9685 6.85465 21.3848 7.14086V8.96991C18.2509 9.11617 15.4025 10.3729 13.2254 12.3553L9.93099 9.06088C10.4033 8.41226 10.683 7.61475 10.683 6.75285C10.683 5.44429 10.0348 4.22571 8.94924 3.49318C8.66738 3.30319 8.28503 3.37735 8.09513 3.65904C7.90506 3.94074 7.9793 4.32309 8.26091 4.51315C9.00707 5.01658 9.45242 5.85387 9.45242 6.75285C9.45242 8.24139 8.24131 9.4525 6.75277 9.4525C5.26423 9.4525 4.0532 8.24139 4.0532 6.75285C4.0532 5.55077 4.85998 4.48231 6.01514 4.15459C6.34204 4.06182 6.53186 3.72163 6.43908 3.39474C6.3463 3.06784 6.00596 2.87827 5.67931 2.9708C3.99734 3.44806 2.82273 5.00329 2.82273 6.75285C2.82273 8.91995 4.58575 10.683 6.75285 10.683C7.61484 10.683 8.41234 10.4033 9.06088 9.93099L12.3553 13.2254C10.3729 15.4024 9.11617 18.2508 8.96991 21.3847H7.14086C6.85465 19.9684 5.60056 18.8987 4.10119 18.8987C2.39117 18.8988 1 20.29 1 22C1 23.71 2.39117 25.1012 4.10119 25.1012C5.60056 25.1012 6.85465 24.0315 7.14086 22.6152H8.96999C9.11625 25.7491 10.373 28.5975 12.3554 30.7746L9.06072 34.0692C8.41218 33.5969 7.61475 33.3173 6.75285 33.3173C4.58591 33.3173 2.82306 35.0802 2.82306 37.2471C2.82306 39.4141 4.58591 41.1769 6.75285 41.1769C8.91979 41.1769 10.6826 39.414 10.6826 37.2471C10.6826 36.3852 10.4031 35.5878 9.93074 34.9393L13.2254 31.6447C15.4025 33.627 18.2509 34.8838 21.3848 35.03V36.8591C19.9685 37.1453 18.8988 38.3994 18.8988 39.8987C18.8988 41.6088 20.29 43 22 43C23.71 43 25.1012 41.6088 25.1012 39.8988C25.1012 38.3994 24.0315 37.1453 22.6152 36.8591V35.0301C25.7491 34.8838 28.5975 33.6271 30.7746 31.6447L34.069 34.9391C33.5967 35.5877 33.317 36.3852 33.317 37.2471C33.317 39.4142 35.08 41.1773 37.2471 41.1773C39.4142 41.1773 41.1773 39.4142 41.1773 37.2471C41.1773 36.8217 41.1095 36.4028 40.9759 36.0017C40.8683 35.6794 40.5198 35.5052 40.1977 35.6126C39.8753 35.7201 39.7011 36.0684 39.8086 36.3908C39.9003 36.666 39.9469 36.9542 39.9469 37.2471C39.9469 38.7356 38.7358 39.9467 37.2472 39.9467C35.7587 39.9467 34.5476 38.7357 34.5476 37.2471C34.5476 35.7584 35.7587 34.5474 37.2472 34.5474C37.5879 34.5474 37.9201 34.6101 38.2346 34.7337C38.5505 34.858 38.908 34.7024 39.0323 34.3861C39.1566 34.0699 39.001 33.7128 38.6847 33.5885C38.2263 33.4083 37.7427 33.317 37.2473 33.317C36.3853 33.317 35.5878 33.5966 34.9393 34.0689L31.6448 30.7746C33.627 28.5975 34.8838 25.7491 35.0301 22.6152ZM39.8988 20.1293C40.9304 20.1293 41.7695 20.9685 41.7695 22C41.7695 23.0315 40.9304 23.8707 39.8988 23.8707C38.8673 23.8707 38.0281 23.0315 38.0281 22C38.0281 20.9685 38.8673 20.1293 39.8988 20.1293ZM37.2471 4.05353C38.7356 4.05353 39.9465 5.26448 39.9465 6.75285C39.9465 8.24131 38.7355 9.45225 37.2471 9.45225C35.7588 9.45225 34.5478 8.24131 34.5478 6.75285C34.5478 5.26439 35.7588 4.05353 37.2471 4.05353ZM20.1293 4.10119C20.1293 3.06965 20.9685 2.23047 22 2.23047C23.0315 2.23047 23.8707 3.06965 23.8707 4.10119C23.8707 5.13273 23.0315 5.97191 22 5.97191C20.9685 5.97191 20.1293 5.13265 20.1293 4.10119ZM4.10119 23.8707C3.06965 23.8707 2.23047 23.0315 2.23047 22C2.23047 20.9685 3.06965 20.1293 4.10119 20.1293C5.13273 20.1293 5.97183 20.9685 5.97183 22C5.97183 23.0315 5.13265 23.8707 4.10119 23.8707ZM22 10.1855C28.5145 10.1855 33.8145 15.4855 33.8145 22C33.8145 28.5145 28.5145 33.8145 22 33.8145C15.4855 33.8145 10.1855 28.5146 10.1855 22C10.1855 15.4854 15.4855 10.1855 22 10.1855ZM6.75285 39.9465C5.26439 39.9465 4.05353 38.7355 4.05353 37.2471C4.05353 35.7587 5.26448 34.5477 6.75285 34.5477C8.24123 34.5477 9.45217 35.7587 9.45217 37.2471C9.45217 38.7356 8.24123 39.9465 6.75285 39.9465ZM23.8707 39.8988C23.8707 40.9304 23.0315 41.7695 22 41.7695C20.9685 41.7695 20.1293 40.9304 20.1293 39.8988C20.1293 38.8673 20.9685 38.0281 22 38.0281C23.0315 38.0281 23.8707 38.8673 23.8707 39.8988Z" fill="currentColor" stroke="currentColor"/>
<path d="M15.0391 29.5752H18.5136C18.5155 29.5752 18.5173 29.5754 18.5192 29.5754C18.521 29.5754 18.5228 29.5752 18.5247 29.5752H20.564C20.9038 29.5752 21.1792 29.2997 21.1792 28.96C21.1792 28.6202 20.9038 28.3447 20.564 28.3447H19.1344V27.3029C19.1344 26.9631 18.859 26.6877 18.5192 26.6877C18.1793 26.6877 17.9039 26.9631 17.9039 27.3029V28.3447H15.6544V25.3145C15.6544 23.8259 16.8651 22.6148 18.3531 22.6148H25.6457C27.1338 22.6148 28.3445 23.8259 28.3445 25.3145V28.3447H26.0949V27.3029C26.0949 26.9631 25.8195 26.6877 25.4797 26.6877C25.1398 26.6877 24.8644 26.9631 24.8644 27.3029V28.3447H23.435C23.0952 28.3447 22.8198 28.6202 22.8198 28.96C22.8198 29.2997 23.0952 29.5752 23.435 29.5752H25.4743C25.4762 29.5752 25.478 29.5754 25.4798 29.5754C25.4817 29.5754 25.4835 29.5752 25.4854 29.5752H28.9599C29.2997 29.5752 29.5751 29.2997 29.5751 28.96V25.3145C29.5751 23.1474 27.8125 21.3844 25.6459 21.3844H25.1891C26.152 20.513 26.7581 19.2542 26.7581 17.8564C26.7581 15.2325 24.6234 13.0979 21.9996 13.0979C19.3757 13.0979 17.2411 15.2325 17.2411 17.8564C17.2411 19.2542 17.8472 20.513 18.81 21.3844H18.3533C16.1867 21.3844 14.4241 23.1474 14.4241 25.3145V28.96C14.4239 29.2997 14.6994 29.5752 15.0391 29.5752ZM18.4715 17.8564C18.4715 15.9111 20.0541 14.3284 21.9995 14.3284C23.9449 14.3284 25.5275 15.911 25.5275 17.8564C25.5275 19.8017 23.9449 21.3844 21.9995 21.3844C20.0541 21.3844 18.4715 19.8017 18.4715 17.8564Z" fill="currentColor" stroke="currentColor"/>
</svg>
