<svg width="30" height="30" viewBox="0 0 30 30" fill="none" xmlns="http://www.w3.org/2000/svg">
<path d="M29.9993 7.87783V22.1218C29.9993 26.4728 26.4727 29.9994 22.1217 29.9994H7.87659C3.52568 29.9994 -0.000976562 26.4728 -0.000976562 22.1218V7.87783C-0.000976562 3.52693 3.52561 -0.000854492 7.87659 -0.000854492H22.1217C26.4726 -0.000854492 29.9993 3.52693 29.9993 7.87783Z" fill="#F8D300"/>
<path d="M24.2068 16.3403C24.147 16.2293 24.0484 16.1333 23.9204 16.0483L21.834 13.2411C21.6571 12.6014 21.3418 12.0157 20.9211 11.5132L19.1976 9.18357C18.3273 7.83855 16.7664 6.94141 14.9849 6.94141C12.2542 6.94141 10.0407 9.0483 10.0407 11.6474C10.0407 11.9444 10.073 12.2339 10.1282 12.5158C8.88211 12.9812 7.08359 13.1567 8.03312 14.4235L9.57208 16.4519C9.29069 16.9419 8.70933 17.2221 8.19419 17.4912C7.6582 17.772 6.17097 17.8358 6.63697 19.0368L8.65972 21.6948C8.67229 21.7391 8.68671 21.7845 8.70523 21.8325C8.74776 21.9422 8.82721 22.0328 8.93053 22.1109L8.92702 22.1149L17.6477 30.0007H22.1221C26.473 30.0007 29.9996 26.4741 29.9996 22.1231V21.5787L24.2068 16.3403Z" fill="#ED9B15"/>
<path d="M21.7761 17.4908C21.1029 17.1391 20.3147 16.7701 20.2338 15.9355C20.0772 14.3231 21.3297 15.2327 21.9371 14.4231C22.8868 13.1563 21.0882 12.9809 19.8421 12.5155C19.8972 12.2335 19.9297 11.944 19.9297 11.647C19.9297 9.04793 17.7161 6.94104 14.9854 6.94104C12.2547 6.94104 10.0411 9.04793 10.0411 11.647C10.0411 11.944 10.0735 12.2335 10.1287 12.5155C8.8826 12.9809 7.08408 13.1563 8.03361 14.4231C8.64103 15.2327 9.89351 14.3231 9.73701 15.9355C9.65611 16.7701 8.86784 17.1391 8.19467 17.4908C7.65869 17.7716 6.17146 17.8354 6.63746 19.0364C6.86149 19.6139 8.09969 19.6679 8.54882 20.1021C8.90925 20.4506 9.1702 20.9915 9.59856 21.2609C10.2059 21.6426 10.7602 21.1735 11.3868 21.2706C11.9549 21.3588 12.4125 21.791 12.7518 22.2293C13.1381 22.7282 13.7528 23.0477 14.9854 22.9857C16.2179 23.0477 16.8328 22.7282 17.219 22.2293C17.5583 21.791 18.0159 21.3588 18.5839 21.2706C19.2106 21.1734 19.7649 21.6425 20.3721 21.2609C20.8006 20.9916 21.0615 20.4506 21.4219 20.1021C21.871 19.6679 23.1091 19.6139 23.3332 19.0364C23.7994 17.8354 22.3121 17.7716 21.7761 17.4908Z" fill="white"/>
</svg>
