<svg width="19" height="19" viewBox="0 0 19 19" fill="none" xmlns="http://www.w3.org/2000/svg">
<path d="M18.0036 0.315687C17.4848 -0.0294302 16.8989 -0.0956705 16.3961 0.134037C15.5377 0.526505 14.6107 1.06177 13.6292 1.62854C11.681 2.75351 9.47519 4.02733 7.21857 4.5056H3.98374C3.49384 4.5056 3.00873 4.60209 2.55612 4.78957C2.1035 4.97705 1.69225 5.25184 1.34583 5.59825C0.999417 5.94467 0.724625 6.35592 0.537146 6.80854C0.349668 7.26115 0.253174 7.74626 0.253174 8.23616C0.253174 8.72607 0.349668 9.21118 0.537146 9.66379C0.724625 10.1164 0.999417 10.5277 1.34583 10.8741C1.69225 11.2205 2.1035 11.4953 2.55612 11.6828C3.00873 11.8702 3.49384 11.9667 3.98374 11.9667H4.12865C4.16973 13.2888 4.44126 14.5626 4.92454 15.6823C5.48912 16.9904 6.32828 18.0582 7.3512 18.7702C7.56195 18.9191 7.81347 18.9994 8.07153 19.0003C8.23596 18.9998 8.39877 18.9677 8.55105 18.9056C8.74761 18.8284 8.92138 18.7026 9.05611 18.5399C9.19085 18.3773 9.28216 18.1832 9.32152 17.9757L9.58273 16.6624C9.62663 16.447 9.61336 16.2238 9.54423 16.0151C9.4751 15.8064 9.35253 15.6195 9.1887 15.4728C8.43483 14.7917 7.95667 13.5363 7.87926 12.0977C10.591 12.7192 12.9332 14.2102 15.2037 15.6563C15.571 15.8904 15.951 16.1324 16.3218 16.3635C16.5255 16.4906 16.7612 16.5573 17.0014 16.5558C17.3226 16.5558 17.6649 16.4441 17.9991 16.2231C18.4741 15.9089 18.7466 15.411 18.7466 14.8571V1.67875C18.7467 1.12679 18.4758 0.629966 18.0036 0.315687ZM1.44064 8.23605C1.44141 7.56183 1.7096 6.91544 2.18636 6.4387C2.66312 5.96196 3.30952 5.6938 3.98374 5.69306H6.68616V10.7791H3.98385C3.3096 10.7784 2.66318 10.5102 2.18639 10.0335C1.70961 9.55671 1.44141 8.9103 1.44064 8.23605ZM8.3926 16.354C8.40443 16.3624 8.41327 16.3744 8.41785 16.3882C8.42242 16.4021 8.42249 16.417 8.41805 16.4308L8.15684 17.744C8.15417 17.7574 8.14823 17.7699 8.13954 17.7803C8.13085 17.7908 8.11969 17.799 8.10707 17.804C8.09445 17.8091 8.08076 17.811 8.06723 17.8095C8.05371 17.808 8.04077 17.8031 8.02959 17.7954C6.41622 16.6725 5.40392 14.4734 5.3169 11.9665H6.68449C6.74112 13.8111 7.36084 15.4219 8.3926 16.354ZM17.5592 14.8571C17.5592 15.0141 17.4887 15.1369 17.3442 15.2325C17.1669 15.3498 17.0014 15.3877 16.9501 15.3557C16.5842 15.1277 16.2068 14.8873 15.8417 14.6547C13.4101 13.1059 10.8996 11.5079 7.87355 10.881V5.57268C10.1614 5.00197 12.3115 3.76055 14.223 2.65681C15.1793 2.10458 16.0826 1.58293 16.8896 1.21399C17.0609 1.13558 17.2656 1.2511 17.3456 1.30421C17.4893 1.39984 17.5591 1.5223 17.5591 1.67864L17.5592 14.8571Z" fill="currentColor" stroke="currentColor" stroke-width="0.5"/>
</svg>
