<svg width="112" height="112" viewBox="0 0 112 112" fill="none" xmlns="http://www.w3.org/2000/svg">
<path d="M60.3674 88.2802H49.5023C46.7614 88.2802 44.5312 90.5101 44.5312 93.251V110.261C44.5312 111.167 45.2656 111.902 46.1719 111.902H63.6975C64.6037 111.902 65.3381 111.167 65.3381 110.261V93.251C65.3381 90.5101 63.1084 88.2802 60.3674 88.2802ZM62.0568 108.621H47.8125V93.2512C47.8125 92.3196 48.5705 91.5616 49.5023 91.5616H60.3674C61.2991 91.5616 62.0571 92.3196 62.0571 93.2512V108.621H62.0568Z" fill="currentColor"/>
<path d="M84.8472 45.548C85.1771 43.4915 85.3455 41.3972 85.3455 39.2983C85.3455 30.9648 82.7297 23.232 78.2786 16.8733L80.9576 12.0993H103.149C104.055 12.0993 104.789 11.3648 104.789 10.4587C104.789 9.55264 104.055 8.81808 103.149 8.81808H79.9969C79.4036 8.81808 78.8565 9.13833 78.5663 9.65589L76.1025 14.0464C68.906 5.52261 58.1481 0.0982666 46.1453 0.0982666C36.5111 0.0982666 27.2508 3.62561 20.0699 10.0302C19.3937 10.6333 19.3344 11.6704 19.9375 12.3465C20.5411 13.0229 21.5782 13.0822 22.2541 12.4789C28.833 6.61111 37.3179 3.37952 46.1455 3.37952C57.5873 3.37952 67.7965 8.75727 74.3789 17.1179L67.6788 29.0573C67.2354 29.8474 67.5165 30.8475 68.3067 31.2909C68.5604 31.4333 68.836 31.5011 69.1079 31.5011C69.6819 31.5011 70.2393 31.1993 70.5401 30.6631L76.4783 20.0815C80.0137 25.6421 82.0643 32.2351 82.0643 39.2983C82.0643 41.3543 81.8871 43.4046 81.5426 45.4123H72.8328C70.0925 45.4123 67.8628 47.6418 67.8628 50.3823V67.9108C62.0134 72.3641 55.1182 74.8596 47.7859 75.1831V39.2983C47.7859 38.3922 47.0516 37.6576 46.1453 37.6576H10.2627C10.5973 30.081 13.2514 22.9679 17.9889 16.9971C18.5522 16.2873 18.4332 15.2555 17.7236 14.6922C17.0137 14.1289 15.9817 14.2475 15.4186 14.9575C9.87547 21.944 6.94531 30.3608 6.94531 39.2983C6.94531 40.2043 7.67966 40.9389 8.58594 40.9389H44.5047V76.8598C44.5047 77.7659 45.239 78.5005 46.1453 78.5005C53.9917 78.5005 61.4351 76.2427 67.8628 71.9419V110.261C67.8628 111.167 68.5972 111.901 69.5034 111.901H87.0273C87.9336 111.901 88.6679 111.167 88.6679 110.261V97.943C88.6679 97.0369 87.9336 96.3023 87.0273 96.3023C86.121 96.3023 85.3867 97.0369 85.3867 97.943V108.62H71.1441V50.3823C71.1441 49.4511 71.9016 48.6936 72.8328 48.6936H83.6981C84.6293 48.6936 85.3869 49.4511 85.3869 50.3823V91.3805C85.3869 92.2865 86.1212 93.0211 87.0275 93.0211C87.9338 93.0211 88.6681 92.2865 88.6681 91.3805V50.3823C88.6681 48.0373 87.0352 46.0679 84.8472 45.548Z" fill="currentColor"/>
<path d="M107.029 70.2427H96.164C93.4231 70.2427 91.1931 72.4726 91.1931 75.2136V110.261C91.1931 111.167 91.9275 111.902 92.8337 111.902H110.36C111.266 111.902 112 111.167 112 110.261V75.2136C112 72.4726 109.77 70.2427 107.029 70.2427ZM108.719 108.621H94.4746V75.2136C94.4746 74.2819 95.2326 73.5239 96.1642 73.5239H107.029C107.961 73.5239 108.719 74.2819 108.719 75.2136V108.621H108.719Z" fill="currentColor"/>
<path d="M39.2 44.6018H1.64063C0.734344 44.6018 0 45.3364 0 46.2424C0 63.2518 10.8896 77.7634 26.0619 83.1773L21.5217 93.0219H3.87078C2.9645 93.0219 2.23016 93.7565 2.23016 94.6625C2.23016 95.5686 2.9645 96.3032 3.87078 96.3032H22.5715C23.2116 96.3032 23.7932 95.9308 24.0614 95.3496L29.2235 84.1566C32.4102 84.996 35.7534 85.4448 39.2 85.4448C40.1063 85.4448 40.8406 84.7103 40.8406 83.8042V46.2427C40.8406 45.3364 40.1063 44.6018 39.2 44.6018ZM37.5594 82.1266C35.1794 82.019 32.8595 81.6771 30.6211 81.1263L32.6207 76.7904C33 75.9675 32.6408 74.993 31.8178 74.6134C30.9953 74.2339 30.0204 74.5935 29.6411 75.416L27.4418 80.185C13.8858 75.4746 3.99503 62.8589 3.31822 47.8828H37.5594V82.1266Z" fill="currentColor"/>
<path d="M3.87085 89.24H17.5009C18.4072 89.24 19.1416 88.5054 19.1416 87.5994C19.1416 86.6933 18.4072 85.9587 17.5009 85.9587H3.87085C2.96457 85.9587 2.23022 86.6933 2.23022 87.5994C2.23022 88.5054 2.96479 89.24 3.87085 89.24Z" fill="currentColor"/>
<path d="M86.9851 5.56677H103.149C104.055 5.56677 104.789 4.83221 104.789 3.92615C104.789 3.02008 104.055 2.28552 103.149 2.28552H86.9851C86.0788 2.28552 85.3445 3.02008 85.3445 3.92615C85.3445 4.83221 86.079 5.56677 86.9851 5.56677Z" fill="currentColor"/>
<path d="M93.5181 38.598C93.5181 39.5041 94.2524 40.2386 95.1587 40.2386H107.078C107.985 40.2386 108.719 39.5041 108.719 38.598C108.719 37.692 107.985 36.9574 107.078 36.9574H95.1587C94.2524 36.9574 93.5181 37.6917 93.5181 38.598Z" fill="currentColor"/>
<path d="M107.078 44.0281H95.1587C94.2524 44.0281 93.5181 44.7626 93.5181 45.6687C93.5181 46.5748 94.2524 47.3093 95.1587 47.3093H107.078C107.985 47.3093 108.719 46.5748 108.719 45.6687C108.719 44.7626 107.985 44.0281 107.078 44.0281Z" fill="currentColor"/>
<path d="M107.078 51.0988H95.1587C94.2524 51.0988 93.5181 51.8333 93.5181 52.7394C93.5181 53.6454 94.2524 54.38 95.1587 54.38H107.078C107.985 54.38 108.719 53.6454 108.719 52.7394C108.719 51.8333 107.985 51.0988 107.078 51.0988Z" fill="currentColor"/>
</svg>
