<svg width="20" height="21" viewBox="0 0 20 21" fill="none" xmlns="http://www.w3.org/2000/svg">
<path d="M18.4911 19.1246H17.6831V7.39265C17.6831 6.84659 17.2389 6.40234 16.6928 6.40234H14.8868C14.3408 6.40234 13.8965 6.84662 13.8965 7.39265V19.1246H11.8449V12.7081C11.8449 12.1621 11.4006 11.7178 10.8546 11.7178H9.04857C8.5025 11.7178 8.05826 12.1621 8.05826 12.7081V19.1246H6.00662V15.8015C6.00662 15.2555 5.56234 14.8112 5.01631 14.8112H3.21027C2.66421 14.8112 2.21996 15.2555 2.21996 15.8015V19.1246H1.36839C1.16493 19.1246 1 19.2895 1 19.493C1 19.6964 1.16493 19.8614 1.36839 19.8614H18.4911C18.6946 19.8614 18.8595 19.6964 18.8595 19.493C18.8595 19.2895 18.6946 19.1246 18.4911 19.1246ZM5.26976 19.1246H2.95671V15.8015C2.95671 15.6617 3.07043 15.548 3.21024 15.548H5.01623C5.15604 15.548 5.26976 15.6617 5.26976 15.8015V19.1246ZM11.1081 19.1246H8.79501V12.7081C8.79501 12.5683 8.90873 12.4546 9.04853 12.4546H10.8545C10.9943 12.4546 11.1081 12.5683 11.1081 12.7081V19.1246ZM16.9464 19.1246H14.6333V7.39265C14.6333 7.25285 14.747 7.13913 14.8868 7.13913H16.6928C16.8326 7.13913 16.9464 7.25285 16.9464 7.39265V19.1246Z" fill="currentColor" stroke="currentColor" stroke-width="0.5"/>
<path d="M17.6822 1.3874C17.6873 1.28687 17.652 1.18464 17.5752 1.10786C17.4984 1.03109 17.3962 0.99569 17.2957 1.00088C17.2897 1.00063 17.2839 1 17.2778 1H15.0491C14.8456 1 14.6807 1.16493 14.6807 1.36839C14.6807 1.57185 14.8456 1.73678 15.0491 1.73678H16.4253L12.7835 5.37862L11.4101 4.00526C11.341 3.93619 11.2473 3.89736 11.1496 3.89736C11.0519 3.89736 10.9582 3.93619 10.8891 4.00526L4.26658 10.6278C4.12273 10.7717 4.12273 11.0049 4.26658 11.1488C4.33853 11.2207 4.4328 11.2567 4.52707 11.2567C4.62134 11.2567 4.71565 11.2207 4.78756 11.1488L11.1496 4.78669L12.523 6.16005C12.6668 6.30391 12.9001 6.30391 13.044 6.16005L16.9463 2.2578V3.50333C16.9463 3.70679 17.1112 3.87172 17.3147 3.87172C17.5181 3.87172 17.6831 3.70679 17.6831 3.50333V1.40523C17.6831 1.39923 17.6824 1.39337 17.6822 1.3874Z" fill="currentColor" stroke="currentColor" stroke-width="0.5"/>
<path d="M3.28636 12.5415C3.48982 12.5415 3.65475 12.3765 3.65475 12.1731C3.65475 11.9696 3.48982 11.8047 3.28636 11.8047C3.0829 11.8047 2.91797 11.9696 2.91797 12.1731C2.91797 12.3765 3.0829 12.5415 3.28636 12.5415Z" fill="currentColor" stroke="currentColor" stroke-width="0.5"/>
</svg>
