<svg width="58" height="58" viewBox="0 0 58 58" fill="none" xmlns="http://www.w3.org/2000/svg">
<path d="M56.5816 43.3261L42.0816 35.4535C41.479 35.1264 40.7422 35.5632 40.7422 36.2501V51.9935C40.7422 52.7103 41.5324 53.1363 42.1297 52.762L45.539 50.6251L49.2473 56.6625C49.4902 57.0567 49.9886 57.2035 50.4055 57.0087L55.9871 54.3851C56.4701 54.1576 56.6586 53.5568 56.3741 53.0901L52.6838 47.0798L56.5889 44.9148C57.2178 44.5641 57.2033 43.6633 56.5816 43.3261ZM50.9756 45.9533C50.5251 46.2044 50.3729 46.7808 50.643 47.2203L54.2988 53.1743L50.3675 55.0222L46.6056 48.8959C46.3419 48.4664 45.7782 48.3359 45.3514 48.6023L42.5547 50.3559V37.7735L54.2643 44.1309L50.9756 45.9533Z" fill="currentColor" stroke="currentColor" stroke-width="0.75"/>
<path d="M37.4788 41.8688C33.6925 44.7153 29.1793 46.2188 24.4297 46.2188C12.4373 46.2188 2.67969 36.4612 2.67969 24.4688C2.67969 12.4763 12.4373 2.71875 24.4297 2.71875C36.4221 2.71875 46.1797 12.4763 46.1797 24.4688C46.1797 27.6533 45.5072 30.7137 44.1805 33.5657C43.673 34.655 45.3206 35.4162 45.8235 34.3306C47.2627 31.2366 47.9922 27.9188 47.9922 24.4688C47.9922 11.4758 37.4226 0.90625 24.4297 0.90625C11.4368 0.90625 0.867188 11.4758 0.867188 24.4688C0.867188 37.4617 11.4368 48.0312 24.4297 48.0312C29.5763 48.0312 34.4646 46.4018 38.5681 43.3187C39.5233 42.5992 38.4412 41.1501 37.4788 41.8688Z" fill="currentColor" stroke="currentColor" stroke-width="0.75"/>
<path d="M12.6484 36.25H19.99C20.4114 38.3153 22.2411 39.875 24.4297 39.875C26.6183 39.875 28.448 38.3153 28.8694 36.25H36.2109C36.7121 36.25 37.1172 35.8449 37.1172 35.3437V33.5312C37.1172 32.6803 36.7112 31.8665 36.0306 31.3571L33.8538 29.725C33.6272 29.5546 33.4922 29.2836 33.4922 29V25.0261C33.4922 20.6734 31.0208 16.7339 27.1484 14.8253V12.6875C27.1484 9.08967 21.7109 9.09329 21.7109 12.6875V14.8253C17.8385 16.733 15.3672 20.6734 15.3672 25.0261V29C15.3672 29.2836 15.2322 29.5546 15.0047 29.725L12.8297 31.3571C12.1482 31.8665 11.7422 32.6803 11.7422 33.5312V35.3437C11.7422 35.8449 12.1473 36.25 12.6484 36.25ZM24.4297 38.0625C23.2498 38.0625 22.2529 37.3021 21.8777 36.25H26.9808C26.6065 37.3021 25.6096 38.0625 24.4297 38.0625ZM13.5547 33.5312C13.5547 33.2476 13.6897 32.9766 13.9172 32.8062L16.0913 31.1741C16.7737 30.6648 17.1797 29.851 17.1797 29V25.0261C17.1797 21.1972 19.4544 17.748 22.9742 16.2391C23.3077 16.0968 23.5234 15.7687 23.5234 15.4062V12.6875C23.5234 11.4885 25.3359 11.4885 25.3359 12.6875V15.4062C25.3359 15.7687 25.5516 16.0968 25.8851 16.2391C29.405 17.748 31.6797 21.1981 31.6797 25.0261V29C31.6797 29.851 32.0857 30.6648 32.7663 31.1741L34.9422 32.8062C35.1697 32.9766 35.3047 33.2476 35.3047 33.5312V34.4375H13.5547V33.5312Z" fill="currentColor" stroke="currentColor" stroke-width="0.75"/>
<path d="M31.8122 13.4958C30.6495 13.301 30.3441 15.1126 31.5485 15.2893C33.4444 15.5693 34.7621 17.3673 34.4848 19.2995C34.3162 20.4776 36.107 20.7649 36.2791 19.5559C36.6969 16.6378 34.6932 13.9191 31.8122 13.4958Z" fill="currentColor" stroke="currentColor" stroke-width="0.75"/>
<path d="M17.3118 15.2883C18.5116 15.1125 18.2162 13.3036 17.0481 13.4948C14.1662 13.919 12.1625 16.6377 12.5802 19.5549C12.7551 20.7648 14.5432 20.4739 14.3746 19.2985C14.0982 17.3664 15.4159 15.5684 17.3118 15.2883Z" fill="currentColor" stroke="currentColor" stroke-width="0.75"/>
<path d="M32.3152 9.97849C31.1452 9.78727 30.8516 11.5961 32.0515 11.772C35.8568 12.3329 38.504 15.9389 37.9502 19.8095C37.7817 20.9885 39.5724 21.274 39.7446 20.066C40.4388 15.2094 37.1056 10.6845 32.3152 9.97849Z" fill="currentColor" stroke="currentColor" stroke-width="0.75"/>
<path d="M16.8078 11.7714C18.0059 11.5955 17.7159 9.78938 16.5441 9.97788C11.7537 10.6838 8.42046 15.2088 9.11465 20.0654C9.28684 21.2734 11.0776 20.987 10.909 19.8089C10.3553 15.9383 13.0025 12.3323 16.8078 11.7714Z" fill="currentColor" stroke="currentColor" stroke-width="0.75"/>
</svg>
