<svg width="22" height="22" viewBox="0 0 22 22" fill="none" xmlns="http://www.w3.org/2000/svg">
<path d="M10.9998 0.916687C9.00555 0.916687 7.05604 1.50806 5.39784 2.61604C3.73965 3.72401 2.44724 5.29881 1.68406 7.1413C0.920873 8.98378 0.721189 11.0112 1.11026 12.9672C1.49932 14.9232 2.45967 16.7198 3.86985 18.13C5.28003 19.5402 7.07671 20.5005 9.03268 20.8896C10.9887 21.2787 13.0161 21.079 14.8586 20.3158C16.7011 19.5526 18.2759 18.2602 19.3838 16.602C20.4918 14.9438 21.0832 12.9943 21.0832 11C21.08 8.32672 20.0167 5.76382 18.1264 3.87351C16.236 1.9832 13.6731 0.919841 10.9998 0.916687ZM10.9998 19.25C9.36815 19.25 7.77309 18.7662 6.41639 17.8596C5.05968 16.9531 4.00226 15.6647 3.37784 14.1572C2.75341 12.6497 2.59004 10.9909 2.90836 9.39053C3.22669 7.79018 4.01243 6.32017 5.16621 5.16639C6.32 4.01261 7.79001 3.22687 9.39035 2.90854C10.9907 2.59021 12.6495 2.75359 14.157 3.37801C15.6645 4.00244 16.9529 5.05986 17.8595 6.41657C18.766 7.77327 19.2498 9.36833 19.2498 11C19.2472 13.1872 18.3771 15.2841 16.8305 16.8307C15.2839 18.3773 13.1871 19.2474 10.9998 19.25Z" fill="currentColor"/>
<path d="M11.9163 10.6206V5.5001C11.9163 5.25699 11.8198 5.02383 11.6479 4.85192C11.4759 4.68001 11.2428 4.58344 10.9997 4.58344C10.7566 4.58344 10.5234 4.68001 10.3515 4.85192C10.1796 5.02383 10.083 5.25699 10.083 5.5001V11.0001C10.0831 11.2432 10.1797 11.4763 10.3516 11.6482L13.1016 14.3982C13.2745 14.5652 13.506 14.6576 13.7464 14.6555C13.9867 14.6534 14.2166 14.557 14.3866 14.387C14.5565 14.2171 14.653 13.9871 14.655 13.7468C14.6571 13.5064 14.5647 13.2749 14.3978 13.102L11.9163 10.6206Z" fill="currentColor"/>
</svg>
