<?xml version="1.0" encoding="UTF-8" standalone="no"?>
<!DOCTYPE svg PUBLIC "-//W3C//DTD SVG 1.1//EN" "http://www.w3.org/Graphics/SVG/1.1/DTD/svg11.dtd">
<svg xmlns="http://www.w3.org/2000/svg" xmlns:xlink="http://www.w3.org/1999/xlink" version="1.1" width="40.6875pt" height="40.6875pt" viewBox="0 0 40.6875 40.6875">
<g enable-background="new">
<path transform="matrix(1,0,0,-1,0,40.6875)" d="M 38.71875 35.4375 L 21 35.4375 L 21 38.71875 C 21 39.804189 20.116688 40.6875 19.03125 40.6875 L 1.96875 40.6875 C .883312 40.6875 0 39.804189 0 38.71875 L 0 24.28125 C 0 23.195813 .883312 22.3125 1.96875 22.3125 L 7.567875 22.3125 L 8.661844 21 L 3.28125 21 C 2.195812 21 1.3125 20.116686 1.3125 19.03125 L 1.3125 5.90625 C 1.3125 4.820812 2.195812 3.9375 3.28125 3.9375 L 10.192875 3.9375 L 13.0095 .557812 C 13.304812 .203434 13.738595 0 14.199939 0 C 15.054376 0 15.750001 .695621 15.750001 1.55006 L 15.750001 3.9375 L 22.96875 3.9375 C 24.054188 3.9375 24.937502 4.820812 24.937502 5.90625 L 24.937502 17.0625 L 26.250002 17.0625 L 26.250002 14.67506 C 26.250002 13.820623 26.945626 13.124998 27.800063 13.124998 C 28.261406 13.124998 28.695187 13.328436 28.9905 13.682812 L 31.807127 17.0625 L 38.71875 17.0625 C 39.804189 17.0625 40.6875 17.945813 40.6875 19.03125 L 40.6875 33.46875 C 40.6875 34.554189 39.804189 35.4375 38.71875 35.4375 Z M 1.96875 23.625 C 1.607156 23.625 1.3125 23.918999 1.3125 24.28125 L 1.3125 38.71875 C 1.3125 39.081 1.607156 39.375 1.96875 39.375 L 19.03125 39.375 C 19.392846 39.375 19.6875 39.081 19.6875 38.71875 L 19.6875 24.28125 C 19.6875 23.918999 19.392846 23.625 19.03125 23.625 L 11.8125 23.625 L 11.8125 19.92506 C 11.8125 19.722279 11.522439 19.61728 11.392501 19.773468 L 8.182125 23.625 L 1.96875 23.625 Z M 17.0625 21 L 13.125001 21 L 13.125001 22.3125 L 17.0625 22.3125 L 17.0625 21 Z M 23.625 5.90625 C 23.625 5.543999 23.330346 5.25 22.96875 5.25 L 14.437501 5.25 L 14.437501 1.55006 C 14.437501 1.347279 14.147439 1.242279 14.017501 1.398468 L 10.807125 5.25 L 3.28125 5.25 C 2.919656 5.25 2.625 5.543999 2.625 5.90625 L 2.625 19.03125 C 2.625 19.3935 2.919656 19.6875 3.28125 19.6875 L 9.755156 19.6875 L 10.3845 18.932812 C 10.679812 18.578436 11.113594 18.375 11.574938 18.375 C 12.348001 18.375 12.985218 18.945937 13.100718 19.6875 L 17.0625 19.6875 L 17.0625 19.03125 C 17.0625 17.945813 17.945813 17.0625 19.03125 17.0625 L 23.625 17.0625 L 23.625 5.90625 Z M 39.375 19.03125 C 39.375 18.668999 39.080347 18.375 38.71875 18.375 L 31.192877 18.375 L 27.982502 14.523466 C 27.852564 14.368591 27.562502 14.472935 27.562502 14.67506 L 27.562502 18.375 L 19.03125 18.375 C 18.669657 18.375 18.375 18.668999 18.375 19.03125 L 18.375 22.3125 L 19.03125 22.3125 C 20.116688 22.3125 21 23.195813 21 24.28125 L 21 34.125 L 38.71875 34.125 C 39.080347 34.125 39.375 33.831 39.375 33.46875 L 39.375 19.03125 Z " fill="currentColor"/>
<clipPath id="cp0">
<path transform="matrix(1,0,0,-1,0,40.6875)" d="M 38.71875 35.4375 L 21 35.4375 L 21 38.71875 C 21 39.804189 20.116688 40.6875 19.03125 40.6875 L 1.96875 40.6875 C .883312 40.6875 0 39.804189 0 38.71875 L 0 24.28125 C 0 23.195813 .883312 22.3125 1.96875 22.3125 L 7.567875 22.3125 L 8.661844 21 L 3.28125 21 C 2.195812 21 1.3125 20.116686 1.3125 19.03125 L 1.3125 5.90625 C 1.3125 4.820812 2.195812 3.9375 3.28125 3.9375 L 10.192875 3.9375 L 13.0095 .557812 C 13.304812 .203434 13.738595 0 14.199939 0 C 15.054376 0 15.750001 .695621 15.750001 1.55006 L 15.750001 3.9375 L 22.96875 3.9375 C 24.054188 3.9375 24.937502 4.820812 24.937502 5.90625 L 24.937502 17.0625 L 26.250002 17.0625 L 26.250002 14.67506 C 26.250002 13.820623 26.945626 13.124998 27.800063 13.124998 C 28.261406 13.124998 28.695187 13.328436 28.9905 13.682812 L 31.807127 17.0625 L 38.71875 17.0625 C 39.804189 17.0625 40.6875 17.945813 40.6875 19.03125 L 40.6875 33.46875 C 40.6875 34.554189 39.804189 35.4375 38.71875 35.4375 Z M 1.96875 23.625 C 1.607156 23.625 1.3125 23.918999 1.3125 24.28125 L 1.3125 38.71875 C 1.3125 39.081 1.607156 39.375 1.96875 39.375 L 19.03125 39.375 C 19.392846 39.375 19.6875 39.081 19.6875 38.71875 L 19.6875 24.28125 C 19.6875 23.918999 19.392846 23.625 19.03125 23.625 L 11.8125 23.625 L 11.8125 19.92506 C 11.8125 19.722279 11.522439 19.61728 11.392501 19.773468 L 8.182125 23.625 L 1.96875 23.625 Z M 17.0625 21 L 13.125001 21 L 13.125001 22.3125 L 17.0625 22.3125 L 17.0625 21 Z M 23.625 5.90625 C 23.625 5.543999 23.330346 5.25 22.96875 5.25 L 14.437501 5.25 L 14.437501 1.55006 C 14.437501 1.347279 14.147439 1.242279 14.017501 1.398468 L 10.807125 5.25 L 3.28125 5.25 C 2.919656 5.25 2.625 5.543999 2.625 5.90625 L 2.625 19.03125 C 2.625 19.3935 2.919656 19.6875 3.28125 19.6875 L 9.755156 19.6875 L 10.3845 18.932812 C 10.679812 18.578436 11.113594 18.375 11.574938 18.375 C 12.348001 18.375 12.985218 18.945937 13.100718 19.6875 L 17.0625 19.6875 L 17.0625 19.03125 C 17.0625 17.945813 17.945813 17.0625 19.03125 17.0625 L 23.625 17.0625 L 23.625 5.90625 Z M 39.375 19.03125 C 39.375 18.668999 39.080347 18.375 38.71875 18.375 L 31.192877 18.375 L 27.982502 14.523466 C 27.852564 14.368591 27.562502 14.472935 27.562502 14.67506 L 27.562502 18.375 L 19.03125 18.375 C 18.669657 18.375 18.375 18.668999 18.375 19.03125 L 18.375 22.3125 L 19.03125 22.3125 C 20.116688 22.3125 21 23.195813 21 24.28125 L 21 34.125 L 38.71875 34.125 C 39.080347 34.125 39.375 33.831 39.375 33.46875 L 39.375 19.03125 Z " fill-rule="evenodd"/>
</clipPath>
<g clip-path="url(#cp0)">
<path transform="matrix(1,0,0,-1,0,40.6875)" d="M 21 35.4375 L 20 35.4375 L 20 34.4375 L 21 34.4375 L 21 35.4375 Z M 7.567875 22.3125 L 8.336034 22.952759 L 8.03619 23.3125 L 7.567875 23.3125 L 7.567875 22.3125 Z M 8.661844 21 L 8.661844 20 L 10.79716 20 L 9.430003 21.640259 L 8.661844 21 Z M 10.192875 3.9375 L 10.961072 4.577713 L 10.661227 4.9375 L 10.192875 4.9375 L 10.192875 3.9375 Z M 13.0095 .557812 L 13.777721 1.197994 L 13.777697 1.198025 L 13.0095 .557812 Z M 15.750001 3.9375 L 15.750001 4.9375 L 14.750001 4.9375 L 14.750001 3.9375 L 15.750001 3.9375 Z M 24.937502 17.0625 L 24.937502 18.0625 L 23.937502 18.0625 L 23.937502 17.0625 L 24.937502 17.0625 Z M 26.250002 17.0625 L 27.250002 17.0625 L 27.250002 18.0625 L 26.250002 18.0625 L 26.250002 17.0625 Z M 28.9905 13.682812 L 28.222304 14.323025 L 28.222279 14.322996 L 28.9905 13.682812 Z M 31.807127 17.0625 L 31.807127 18.0625 L 31.338776 18.0625 L 31.038929 17.702713 L 31.807127 17.0625 Z M 11.8125 23.625 L 11.8125 24.625 L 10.8125 24.625 L 10.8125 23.625 L 11.8125 23.625 Z M 11.392501 19.773468 L 12.161252 20.413016 L 12.160647 20.413743 L 11.392501 19.773468 Z M 8.182125 23.625 L 8.950272 24.265275 L 8.650429 24.625 L 8.182125 24.625 L 8.182125 23.625 Z M 17.0625 21 L 17.0625 20 L 18.0625 20 L 18.0625 21 L 17.0625 21 Z M 13.125001 21 L 12.125001 21 L 12.125001 20 L 13.125001 20 L 13.125001 21 Z M 13.125001 22.3125 L 13.125001 23.3125 L 12.125001 23.3125 L 12.125001 22.3125 L 13.125001 22.3125 Z M 17.0625 22.3125 L 18.0625 22.3125 L 18.0625 23.3125 L 17.0625 23.3125 L 17.0625 22.3125 Z M 14.437501 5.25 L 14.437501 6.25 L 13.437501 6.25 L 13.437501 5.25 L 14.437501 5.25 Z M 14.017501 1.398468 L 14.786252 2.038017 L 14.785647 2.038742 L 14.017501 1.398468 Z M 10.807125 5.25 L 11.575272 5.890274 L 11.275429 6.25 L 10.807125 6.25 L 10.807125 5.25 Z M 9.755156 19.6875 L 10.523158 20.327946 L 10.223322 20.6875 L 9.755156 20.6875 L 9.755156 19.6875 Z M 10.3845 18.932812 L 11.152721 19.572997 L 11.152502 19.57326 L 10.3845 18.932812 Z M 13.100718 19.6875 L 13.100718 20.6875 L 12.244414 20.6875 L 12.112632 19.841397 L 13.100718 19.6875 Z M 17.0625 19.6875 L 18.0625 19.6875 L 18.0625 20.6875 L 17.0625 20.6875 L 17.0625 19.6875 Z M 23.625 17.0625 L 24.625 17.0625 L 24.625 18.0625 L 23.625 18.0625 L 23.625 17.0625 Z M 31.192877 18.375 L 31.192877 19.375 L 30.724574 19.375 L 30.42473 19.015275 L 31.192877 18.375 Z M 27.982502 14.523466 L 28.748595 13.880728 L 28.750649 13.883192 L 27.982502 14.523466 Z M 27.562502 18.375 L 28.562502 18.375 L 28.562502 19.375 L 27.562502 19.375 L 27.562502 18.375 Z M 18.375 22.3125 L 18.375 23.3125 L 17.375 23.3125 L 17.375 22.3125 L 18.375 22.3125 Z M 21 34.125 L 21 35.125 L 20 35.125 L 20 34.125 L 21 34.125 Z M 38.71875 36.4375 L 21 36.4375 L 21 34.4375 L 38.71875 34.4375 L 38.71875 36.4375 Z M 22 35.4375 L 22 38.71875 L 20 38.71875 L 20 35.4375 L 22 35.4375 Z M 22 38.71875 C 22 40.356473 20.668974 41.6875 19.03125 41.6875 L 19.03125 39.6875 C 19.564404 39.6875 20 39.251905 20 38.71875 L 22 38.71875 Z M 19.03125 41.6875 L 1.96875 41.6875 L 1.96875 39.6875 L 19.03125 39.6875 L 19.03125 41.6875 Z M 1.96875 41.6875 C .331028 41.6875 -1 40.356473 -1 38.71875 L 1 38.71875 C 1 39.251905 1.435597 39.6875 1.96875 39.6875 L 1.96875 41.6875 Z M -1 38.71875 L -1 24.28125 L 1 24.28125 L 1 38.71875 L -1 38.71875 Z M -1 24.28125 C -1 22.643527 .331028 21.3125 1.96875 21.3125 L 1.96875 23.3125 C 1.435597 23.3125 1 23.748097 1 24.28125 L -1 24.28125 Z M 1.96875 21.3125 L 7.567875 21.3125 L 7.567875 23.3125 L 1.96875 23.3125 L 1.96875 21.3125 Z M 6.799717 21.67224 L 7.893686 20.35974 L 9.430003 21.640259 L 8.336034 22.952759 L 6.799717 21.67224 Z M 8.661844 22 L 3.28125 22 L 3.28125 20 L 8.661844 20 L 8.661844 22 Z M 3.28125 22 C 1.643528 22 .3125 20.668972 .3125 19.03125 L 2.3125 19.03125 C 2.3125 19.564402 2.748097 20 3.28125 20 L 3.28125 22 Z M .3125 19.03125 L .3125 5.90625 L 2.3125 5.90625 L 2.3125 19.03125 L .3125 19.03125 Z M .3125 5.90625 C .3125 4.268528 1.643528 2.9375 3.28125 2.9375 L 3.28125 4.9375 C 2.748097 4.9375 2.3125 5.373096 2.3125 5.90625 L .3125 5.90625 Z M 3.28125 2.9375 L 10.192875 2.9375 L 10.192875 4.9375 L 3.28125 4.9375 L 3.28125 2.9375 Z M 9.424679 3.297283 L 12.241303 -.082401 L 13.777697 1.198025 L 10.961072 4.577713 L 9.424679 3.297283 Z M 12.241279 -.082375 C 12.726344 -.664452 13.441439 -1 14.199939 -1 L 14.199939 1 C 14.03575 1 13.883281 1.071323 13.777721 1.197994 L 12.241279 -.082375 Z M 14.199939 -1 C 15.60666 -1 16.75 .143337 16.75 1.55006 L 14.750001 1.55006 C 14.750001 1.24791 14.502092 1 14.199939 1 L 14.199939 -1 Z M 16.75 1.55006 L 16.75 3.9375 L 14.750001 3.9375 L 14.750001 1.55006 L 16.75 1.55006 Z M 15.750001 2.9375 L 22.96875 2.9375 L 22.96875 4.9375 L 15.750001 4.9375 L 15.750001 2.9375 Z M 22.96875 2.9375 C 24.606474 2.9375 25.937502 4.268528 25.937502 5.90625 L 23.937502 5.90625 C 23.937502 5.373096 23.501904 4.9375 22.96875 4.9375 L 22.96875 2.9375 Z M 25.937502 5.90625 L 25.937502 17.0625 L 23.937502 17.0625 L 23.937502 5.90625 L 25.937502 5.90625 Z M 24.937502 16.0625 L 26.250002 16.0625 L 26.250002 18.0625 L 24.937502 18.0625 L 24.937502 16.0625 Z M 25.250002 17.0625 L 25.250002 14.67506 L 27.250002 14.67506 L 27.250002 17.0625 L 25.250002 17.0625 Z M 25.250002 14.67506 C 25.250002 13.268337 26.39334 12.124998 27.800063 12.124998 L 27.800063 14.124998 C 27.49791 14.124998 27.250002 14.372908 27.250002 14.67506 L 25.250002 14.67506 Z M 27.800063 12.124998 C 28.558564 12.124998 29.273655 12.460548 29.75872 13.042627 L 28.222279 14.322996 C 28.116719 14.196323 27.964249 14.124998 27.800063 14.124998 L 27.800063 12.124998 Z M 29.758696 13.042597 L 32.57532 16.422286 L 31.038929 17.702713 L 28.222304 14.323025 L 29.758696 13.042597 Z M 31.807127 16.0625 L 38.71875 16.0625 L 38.71875 18.0625 L 31.807127 18.0625 L 31.807127 16.0625 Z M 38.71875 16.0625 C 40.356473 16.0625 41.6875 17.393527 41.6875 19.03125 L 39.6875 19.03125 C 39.6875 18.498097 39.251905 18.0625 38.71875 18.0625 L 38.71875 16.0625 Z M 41.6875 19.03125 L 41.6875 33.46875 L 39.6875 33.46875 L 39.6875 19.03125 L 41.6875 19.03125 Z M 41.6875 33.46875 C 41.6875 35.106473 40.356473 36.4375 38.71875 36.4375 L 38.71875 34.4375 C 39.251905 34.4375 39.6875 34.001905 39.6875 33.46875 L 41.6875 33.46875 Z M 1.96875 24.625 C 2.15879 24.625 2.3125 24.471936 2.3125 24.28125 L .3125 24.28125 C .3125 23.366065 1.055523 22.625 1.96875 22.625 L 1.96875 24.625 Z M 2.3125 24.28125 L 2.3125 38.71875 L .3125 38.71875 L .3125 24.28125 L 2.3125 24.28125 Z M 2.3125 38.71875 C 2.3125 38.528066 2.15879 38.375 1.96875 38.375 L 1.96875 40.375 C 1.055523 40.375 .3125 39.633935 .3125 38.71875 L 2.3125 38.71875 Z M 1.96875 38.375 L 19.03125 38.375 L 19.03125 40.375 L 1.96875 40.375 L 1.96875 38.375 Z M 19.03125 38.375 C 18.841212 38.375 18.6875 38.528066 18.6875 38.71875 L 20.6875 38.71875 C 20.6875 39.633935 19.944479 40.375 19.03125 40.375 L 19.03125 38.375 Z M 18.6875 38.71875 L 18.6875 24.28125 L 20.6875 24.28125 L 20.6875 38.71875 L 18.6875 38.71875 Z M 18.6875 24.28125 C 18.6875 24.471936 18.841212 24.625 19.03125 24.625 L 19.03125 22.625 C 19.944479 22.625 20.6875 23.366065 20.6875 24.28125 L 18.6875 24.28125 Z M 19.03125 24.625 L 11.8125 24.625 L 11.8125 22.625 L 19.03125 22.625 L 19.03125 24.625 Z M 10.8125 23.625 L 10.8125 19.92506 L 12.8125 19.92506 L 12.8125 23.625 L 10.8125 23.625 Z M 10.8125 19.92506 C 10.8125 20.354563 11.118069 20.585276 11.311371 20.655129 C 11.505056 20.725119 11.887068 20.74259 12.161252 20.413016 L 10.623751 19.133919 C 11.027872 18.648158 11.619884 18.640034 11.991084 18.774174 C 12.361901 18.908175 12.8125 19.292777 12.8125 19.92506 L 10.8125 19.92506 Z M 12.160647 20.413743 L 8.950272 24.265275 L 7.413979 22.984724 L 10.624355 19.133193 L 12.160647 20.413743 Z M 8.182125 24.625 L 1.96875 24.625 L 1.96875 22.625 L 8.182125 22.625 L 8.182125 24.625 Z M 17.0625 22 L 13.125001 22 L 13.125001 20 L 17.0625 20 L 17.0625 22 Z M 14.125001 21 L 14.125001 22.3125 L 12.125001 22.3125 L 12.125001 21 L 14.125001 21 Z M 13.125001 21.3125 L 17.0625 21.3125 L 17.0625 23.3125 L 13.125001 23.3125 L 13.125001 21.3125 Z M 16.0625 22.3125 L 16.0625 21 L 18.0625 21 L 18.0625 22.3125 L 16.0625 22.3125 Z M 22.625 5.90625 C 22.625 6.096935 22.778712 6.25 22.96875 6.25 L 22.96875 4.25 C 23.881979 4.25 24.625 4.991062 24.625 5.90625 L 22.625 5.90625 Z M 22.96875 6.25 L 14.437501 6.25 L 14.437501 4.25 L 22.96875 4.25 L 22.96875 6.25 Z M 13.437501 5.25 L 13.437501 1.55006 L 15.437501 1.55006 L 15.437501 5.25 L 13.437501 5.25 Z M 13.437501 1.55006 C 13.437501 1.979561 13.743069 2.210274 13.936371 2.280128 C 14.130056 2.350117 14.512068 2.367592 14.786252 2.038013 L 13.248751 .758919 C 13.652872 .273155 14.244884 .265034 14.616084 .399174 C 14.986901 .533173 15.437501 .917774 15.437501 1.55006 L 13.437501 1.55006 Z M 14.785647 2.038742 L 11.575272 5.890274 L 10.03898 4.609726 L 13.249355 .75819 L 14.785647 2.038742 Z M 10.807125 6.25 L 3.28125 6.25 L 3.28125 4.25 L 10.807125 4.25 L 10.807125 6.25 Z M 3.28125 6.25 C 3.47129 6.25 3.625 6.096935 3.625 5.90625 L 1.625 5.90625 C 1.625 4.991062 2.368023 4.25 3.28125 4.25 L 3.28125 6.25 Z M 3.625 5.90625 L 3.625 19.03125 L 1.625 19.03125 L 1.625 5.90625 L 3.625 5.90625 Z M 3.625 19.03125 C 3.625 18.840563 3.47129 18.6875 3.28125 18.6875 L 3.28125 20.6875 C 2.368023 20.6875 1.625 19.946434 1.625 19.03125 L 3.625 19.03125 Z M 3.28125 18.6875 L 9.755156 18.6875 L 9.755156 20.6875 L 3.28125 20.6875 L 3.28125 18.6875 Z M 8.987154 19.047053 L 9.616498 18.292365 L 11.152502 19.57326 L 10.523158 20.327946 L 8.987154 19.047053 Z M 9.616279 18.292628 C 10.101344 17.710549 10.816439 17.375 11.574938 17.375 L 11.574938 19.375 C 11.41075 19.375 11.258281 19.446326 11.152721 19.572997 L 9.616279 18.292628 Z M 11.574938 17.375 C 12.855326 17.375 13.899702 18.319472 14.088805 19.533602 L 12.112632 19.841397 C 12.070735 19.572403 11.840676 19.375 11.574938 19.375 L 11.574938 17.375 Z M 13.100718 18.6875 L 17.0625 18.6875 L 17.0625 20.6875 L 13.100718 20.6875 L 13.100718 18.6875 Z M 16.0625 19.6875 L 16.0625 19.03125 L 18.0625 19.03125 L 18.0625 19.6875 L 16.0625 19.6875 Z M 16.0625 19.03125 C 16.0625 17.393527 17.393528 16.0625 19.03125 16.0625 L 19.03125 18.0625 C 18.498099 18.0625 18.0625 18.498097 18.0625 19.03125 L 16.0625 19.03125 Z M 19.03125 16.0625 L 23.625 16.0625 L 23.625 18.0625 L 19.03125 18.0625 L 19.03125 16.0625 Z M 22.625 17.0625 L 22.625 5.90625 L 24.625 5.90625 L 24.625 17.0625 L 22.625 17.0625 Z M 38.375 19.03125 C 38.375 19.221936 38.528715 19.375 38.71875 19.375 L 38.71875 17.375 C 39.63198 17.375 40.375 18.116065 40.375 19.03125 L 38.375 19.03125 Z M 38.71875 19.375 L 31.192877 19.375 L 31.192877 17.375 L 38.71875 17.375 L 38.71875 19.375 Z M 30.42473 19.015275 L 27.214356 15.163742 L 28.750649 13.883192 L 31.961024 17.734724 L 30.42473 19.015275 Z M 27.216414 15.166203 C 27.491652 15.494265 27.871853 15.474991 28.062863 15.406143 C 28.25412 15.337206 28.562502 15.10729 28.562502 14.67506 L 26.562502 14.67506 C 26.562502 14.040705 27.015915 13.657555 27.384688 13.524633 C 27.753212 13.391802 28.343415 13.397795 28.74859 13.880732 L 27.216414 15.166203 Z M 28.562502 14.67506 L 28.562502 18.375 L 26.562502 18.375 L 26.562502 14.67506 L 28.562502 14.67506 Z M 27.562502 19.375 L 19.03125 19.375 L 19.03125 17.375 L 27.562502 17.375 L 27.562502 19.375 Z M 19.03125 19.375 C 19.22129 19.375 19.375 19.221936 19.375 19.03125 L 17.375 19.03125 C 17.375 18.116065 18.118023 17.375 19.03125 17.375 L 19.03125 19.375 Z M 19.375 19.03125 L 19.375 22.3125 L 17.375 22.3125 L 17.375 19.03125 L 19.375 19.03125 Z M 18.375 21.3125 L 19.03125 21.3125 L 19.03125 23.3125 L 18.375 23.3125 L 18.375 21.3125 Z M 19.03125 21.3125 C 20.668974 21.3125 22 22.643527 22 24.28125 L 20 24.28125 C 20 23.748097 19.564404 23.3125 19.03125 23.3125 L 19.03125 21.3125 Z M 22 24.28125 L 22 34.125 L 20 34.125 L 20 24.28125 L 22 24.28125 Z M 21 33.125 L 38.71875 33.125 L 38.71875 35.125 L 21 35.125 L 21 33.125 Z M 38.71875 33.125 C 38.528715 33.125 38.375 33.278066 38.375 33.46875 L 40.375 33.46875 C 40.375 34.383935 39.63198 35.125 38.71875 35.125 L 38.71875 33.125 Z M 38.375 33.46875 L 38.375 19.03125 L 40.375 19.03125 L 40.375 33.46875 L 38.375 33.46875 Z " fill="currentColor"/>
</g>
<path transform="matrix(1,0,0,-1,3.9375,15.971924)" d="M 13.125 7.83508 L 13.125 7.938112 C 13.125 9.062268 12.687282 10.118831 11.891907 10.914206 C 11.170032 11.636737 10.209281 12.034424 9.1875 12.034424 C 8.203125 12.034424 7.275187 11.664955 6.5625 10.991643 C 5.849813 11.664955 4.921875 12.034424 3.9375 12.034424 C 2.915719 12.034424 1.954969 11.636737 1.233094 10.914206 C .437719 10.118831 0 9.062268 0 7.938112 L 0 7.83508 C 0 6.563268 .545344 5.349205 1.495594 4.504611 L 6.5625 .000113 L 11.62875 4.503955 C 12.579656 5.348549 13.125 6.562612 13.125 7.83508 Z M 6.5625 1.756237 L 2.36775 5.48505 C 1.697062 6.080925 1.3125 6.93733 1.3125 7.83508 L 1.3125 7.938112 C 1.3125 8.71183 1.613719 9.438955 2.161031 9.986267 C 2.6355 10.460736 3.266813 10.721924 3.9375 10.721924 C 4.608188 10.721924 5.2395 10.460736 5.713969 9.986267 L 6.5625 9.137737 L 7.411031 9.986267 C 8.359968 10.934548 10.015032 10.934548 10.963969 9.986267 C 11.511282 9.438955 11.8125 8.71183 11.8125 7.938112 L 11.8125 7.83508 C 11.8125 6.937987 11.427938 6.080925 10.75725 5.48505 L 6.5625 1.756237 Z " fill="currentColor"/>
<clipPath id="cp1">
<path transform="matrix(1,0,0,-1,0,40.6875)" d="M 17.0625 32.550657 L 17.0625 32.653688 C 17.0625 33.777845 16.624783 34.834409 15.829407 35.629785 C 15.107532 36.352315 14.146781 36.75 13.125 36.75 C 12.140625 36.75 11.212687 36.38053 10.5 35.70722 C 9.787313 36.38053 8.859375 36.75 7.875 36.75 C 6.853219 36.75 5.892468 36.352315 5.170593 35.629785 C 4.375218 34.834409 3.9375 33.777845 3.9375 32.653688 L 3.9375 32.550657 C 3.9375 31.278845 4.482844 30.064782 5.433094 29.220189 L 10.5 24.715689 L 15.56625 29.219532 C 16.517155 30.064126 17.0625 31.278187 17.0625 32.550657 Z M 10.5 26.471814 L 6.30525 30.200627 C 5.634562 30.796502 5.25 31.652907 5.25 32.550657 L 5.25 32.653688 C 5.25 33.427408 5.551219 34.154535 6.098532 34.701845 C 6.573 35.17631 7.204312 35.4375 7.875 35.4375 C 8.545688 35.4375 9.177 35.17631 9.651468 34.701845 L 10.5 33.853315 L 11.348531 34.701845 C 12.297468 35.650125 13.952532 35.650125 14.901469 34.701845 C 15.448782 34.154535 15.75 33.427408 15.75 32.653688 L 15.75 32.550657 C 15.75 31.653563 15.365438 30.796502 14.69475 30.200627 L 10.5 26.471814 Z " fill-rule="evenodd"/>
</clipPath>
<g clip-path="url(#cp1)">
<path transform="matrix(1,0,0,-1,3.9375,15.971924)" d="M 11.891907 10.914206 L 11.184479 10.207419 L 11.1848 10.207098 L 11.891907 10.914206 Z M 6.5625 10.991643 L 5.875759 10.264741 L 6.5625 9.615941 L 7.249241 10.264741 L 6.5625 10.991643 Z M 1.233094 10.914206 L 1.9402 10.207098 L 1.940521 10.20742 L 1.233094 10.914206 Z M 1.495594 4.504611 L 2.160006 5.251978 L 2.159926 5.252049 L 1.495594 4.504611 Z M 6.5625 .000113 L 5.898088 -.747253 L 6.562495 -1.337914 L 7.226906 -.747259 L 6.5625 .000113 Z M 11.62875 4.503955 L 10.964674 5.251621 L 10.964344 5.251328 L 11.62875 4.503955 Z M 6.5625 1.756237 L 5.898122 1.008841 L 6.5625 .418259 L 7.226878 1.008841 L 6.5625 1.756237 Z M 2.36775 5.48505 L 3.032128 6.232446 L 3.031932 6.23262 L 2.36775 5.48505 Z M 5.713969 9.986267 L 5.006862 9.27916 L 5.713969 9.986267 Z M 6.5625 9.137737 L 5.855393 8.43063 L 6.5625 7.723524 L 7.269607 8.43063 L 6.5625 9.137737 Z M 7.411031 9.986267 L 6.704169 10.693619 L 6.703924 10.693375 L 7.411031 9.986267 Z M 10.963969 9.986267 L 11.671076 10.693375 L 11.670832 10.693619 L 10.963969 9.986267 Z M 10.75725 5.48505 L 10.093068 6.232621 L 10.092872 6.232446 L 10.75725 5.48505 Z M 14.125 7.83508 L 14.125 7.938112 L 12.125 7.938112 L 12.125 7.83508 L 14.125 7.83508 Z M 14.125 7.938112 C 14.125 9.327617 13.581831 10.638494 12.599013 11.621312 L 11.1848 10.207098 C 11.792731 9.599167 12.125 8.79692 12.125 7.938112 L 14.125 7.938112 Z M 12.599335 11.620991 C 11.689606 12.531547 10.474242 13.034424 9.1875 13.034424 L 9.1875 11.034424 C 9.94432 11.034424 10.650457 10.741926 11.184479 10.20742 L 12.599335 11.620991 Z M 9.1875 13.034424 C 7.947966 13.034424 6.774255 12.5674 5.875759 11.718545 L 7.249241 10.264741 C 7.77612 10.76251 8.458284 11.034424 9.1875 11.034424 L 9.1875 13.034424 Z M 7.249241 11.718545 C 6.350745 12.5674 5.177034 13.034424 3.9375 13.034424 L 3.9375 11.034424 C 4.666716 11.034424 5.34888 10.76251 5.875759 10.264741 L 7.249241 11.718545 Z M 3.9375 13.034424 C 2.650757 13.034424 1.435395 12.531547 .525666 11.620991 L 1.940521 10.20742 C 2.474543 10.741926 3.18068 11.034424 3.9375 11.034424 L 3.9375 13.034424 Z M .525987 11.621312 C -.456831 10.638494 -1 9.327617 -1 7.938112 L 1 7.938112 C 1 8.79692 1.332268 9.599167 1.9402 10.207098 L .525987 11.621312 Z M -1 7.938112 L -1 7.83508 L 1 7.83508 L 1 7.938112 L -1 7.938112 Z M -1 7.83508 C -1 6.277608 -.33249 4.791531 .831262 3.757174 L 2.159926 5.252049 C 1.423178 5.906879 1 6.848927 1 7.83508 L -1 7.83508 Z M .831182 3.757245 L 5.898088 -.747253 L 7.226912 .747479 L 2.160006 5.251978 L .831182 3.757245 Z M 7.226906 -.747259 L 12.293156 3.756583 L 10.964344 5.251328 L 5.898094 .747485 L 7.226906 -.747259 Z M 12.292825 3.75629 C 13.457503 4.790755 14.125 6.276986 14.125 7.83508 L 12.125 7.83508 C 12.125 6.848238 11.701809 5.906343 10.964674 5.251621 L 12.292825 3.75629 Z M 7.226878 2.503633 L 3.032128 6.232446 L 1.703372 4.737653 L 5.898122 1.008841 L 7.226878 2.503633 Z M 3.031932 6.23262 C 2.575001 6.638583 2.3125 7.222841 2.3125 7.83508 L .3125 7.83508 C .3125 6.651819 .819124 5.523266 1.703568 4.737479 L 3.031932 6.23262 Z M 2.3125 7.83508 L 2.3125 7.938112 L .3125 7.938112 L .3125 7.83508 L 2.3125 7.83508 Z M 2.3125 7.938112 C 2.3125 8.446529 2.508302 8.919325 2.868138 9.27916 L 1.453925 10.693375 C .719136 9.958586 .3125 8.977132 .3125 7.938112 L 2.3125 7.938112 Z M 2.868138 9.27916 C 3.154893 9.565915 3.531778 9.721924 3.9375 9.721924 L 3.9375 11.721924 C 3.001848 11.721924 2.116107 11.355557 1.453925 10.693375 L 2.868138 9.27916 Z M 3.9375 9.721924 C 4.343223 9.721924 4.720107 9.565915 5.006862 9.27916 L 6.421075 10.693375 C 5.758893 11.355557 4.873152 11.721924 3.9375 11.721924 L 3.9375 9.721924 Z M 5.006862 9.27916 L 5.855393 8.43063 L 7.269607 9.844844 L 6.421075 10.693375 L 5.006862 9.27916 Z M 7.269607 8.43063 L 8.118137 9.27916 L 6.703924 10.693375 L 5.855393 9.844844 L 7.269607 8.43063 Z M 8.117893 9.278916 C 8.676362 9.836999 9.698638 9.836999 10.257107 9.278916 L 11.670832 10.693619 C 10.331426 12.032099 8.043574 12.032099 6.704169 10.693619 L 8.117893 9.278916 Z M 10.256863 9.27916 C 10.616698 8.919325 10.8125 8.446529 10.8125 7.938112 L 12.8125 7.938112 C 12.8125 8.977132 12.405865 9.958586 11.671076 10.693375 L 10.256863 9.27916 Z M 10.8125 7.938112 L 10.8125 7.83508 L 12.8125 7.83508 L 12.8125 7.938112 L 10.8125 7.938112 Z M 10.8125 7.83508 C 10.8125 7.223386 10.549916 6.638509 10.093068 6.23262 L 11.421432 4.737479 C 12.30596 5.52334 12.8125 6.652587 12.8125 7.83508 L 10.8125 7.83508 Z M 10.092872 6.232446 L 5.898122 2.503633 L 7.226878 1.008841 L 11.421629 4.737653 L 10.092872 6.232446 Z " fill="currentColor"/>
</g>
<path transform="matrix(1,0,0,-1,3.9375,34.197267)" d="M 11.8125 6.634765 C 11.8125 6.245609 11.903063 5.87942 12.055313 5.547358 C 11.77247 5.798046 11.457469 6.011985 11.116876 6.181953 C 11.54475 6.649204 11.8125 7.265422 11.8125 7.947266 C 11.8125 9.394953 10.635187 10.572266 9.1875 10.572266 C 7.739812 10.572266 6.5625 9.394953 6.5625 7.947266 C 6.5625 7.265422 6.83025 6.649204 7.258125 6.181953 C 6.917531 6.011985 6.60253 5.798046 6.319687 5.547358 C 6.471937 5.87942 6.5625 6.245609 6.5625 6.634765 C 6.5625 8.082453 5.385188 9.259766 3.9375 9.259766 C 2.489812 9.259766 1.3125 8.082453 1.3125 6.634765 C 1.3125 5.935203 1.591406 5.303233 2.038969 4.832045 C .824906 4.160701 0 2.86789 0 1.384765 L 0 .072265 L 1.3125 .072265 L 1.3125 1.384765 C 1.3125 2.832452 2.489812 4.009765 3.9375 4.009765 C 4.350937 4.009765 4.747313 3.911328 5.10825 3.730859 C 5.004563 3.430953 4.928438 3.117264 4.891688 2.789795 L 4.597687 .145108 L 5.901656 .000076 L 6.195656 2.644763 C 6.365625 4.171201 7.651875 5.322265 9.1875 5.322265 C 10.723125 5.322265 12.009375 4.171201 12.179344 2.644763 L 12.473344 .000076 L 13.777312 .145108 L 13.483313 2.789795 C 13.447219 3.117264 13.370438 3.430953 13.266749 3.730859 C 13.627687 3.911328 14.024062 4.009765 14.4375 4.009765 C 15.885187 4.009765 17.0625 2.832452 17.0625 1.384765 L 17.0625 .072265 L 18.375 .072265 L 18.375 1.384765 C 18.375 2.86789 17.550093 4.160701 16.336031 4.832045 C 16.783595 5.303233 17.0625 5.935203 17.0625 6.634765 C 17.0625 8.082453 15.885187 9.259766 14.4375 9.259766 C 12.989813 9.259766 11.8125 8.082453 11.8125 6.634765 Z M 2.625 6.634765 C 2.625 7.358609 3.213656 7.947266 3.9375 7.947266 C 4.661344 7.947266 5.25 7.358609 5.25 6.634765 C 5.25 5.910922 4.661344 5.322265 3.9375 5.322265 C 3.213656 5.322265 2.625 5.910922 2.625 6.634765 Z M 7.875 7.947266 C 7.875 8.671109 8.463656 9.259766 9.1875 9.259766 C 9.911344 9.259766 10.5 8.671109 10.5 7.947266 C 10.5 7.223422 9.911344 6.634765 9.1875 6.634765 C 8.463656 6.634765 7.875 7.223422 7.875 7.947266 Z M 15.75 6.634765 C 15.75 5.910922 15.161344 5.322265 14.4375 5.322265 C 13.713656 5.322265 13.125 5.910922 13.125 6.634765 C 13.125 7.358609 13.713656 7.947266 14.4375 7.947266 C 15.161344 7.947266 15.75 7.358609 15.75 6.634765 Z " fill="currentColor"/>
<clipPath id="cp2">
<path transform="matrix(1,0,0,-1,0,40.6875)" d="M 15.75 13.125 C 15.75 12.735844 15.840563 12.369656 15.992813 12.037592 C 15.70997 12.28828 15.394969 12.50222 15.054376 12.672188 C 15.48225 13.139439 15.75 13.755655 15.75 14.4375 C 15.75 15.885187 14.572687 17.0625 13.125 17.0625 C 11.677313 17.0625 10.5 15.885187 10.5 14.4375 C 10.5 13.755655 10.76775 13.139439 11.195625 12.672188 C 10.855031 12.50222 10.54003 12.28828 10.257187 12.037592 C 10.409437 12.369656 10.5 12.735844 10.5 13.125 C 10.5 14.572687 9.322687 15.75 7.875 15.75 C 6.427312 15.75 5.25 14.572687 5.25 13.125 C 5.25 12.425438 5.528906 11.793467 5.976469 11.322279 C 4.762406 10.650936 3.9375 9.358124 3.9375 7.875 L 3.9375 6.5625 L 5.25 6.5625 L 5.25 7.875 C 5.25 9.322687 6.427312 10.5 7.875 10.5 C 8.288437 10.5 8.684813 10.401562 9.04575 10.221094 C 8.942062 9.921188 8.865938 9.607498 8.829187 9.280029 L 8.535187 6.635342 L 9.839156 6.490311 L 10.133156 9.134998 C 10.303125 10.661436 11.589375 11.8125 13.125 11.8125 C 14.660625 11.8125 15.946875 10.661436 16.116845 9.134998 L 16.410843 6.490311 L 17.714814 6.635342 L 17.420813 9.280029 C 17.38472 9.607498 17.307938 9.921188 17.20425 10.221094 C 17.565188 10.401562 17.961564 10.5 18.375 10.5 C 19.822688 10.5 21 9.322687 21 7.875 L 21 6.5625 L 22.3125 6.5625 L 22.3125 7.875 C 22.3125 9.358124 21.487593 10.650936 20.273531 11.322279 C 20.721095 11.793467 21 12.425438 21 13.125 C 21 14.572687 19.822688 15.75 18.375 15.75 C 16.927313 15.75 15.75 14.572687 15.75 13.125 Z M 6.5625 13.125 C 6.5625 13.848843 7.151156 14.4375 7.875 14.4375 C 8.598844 14.4375 9.1875 13.848843 9.1875 13.125 C 9.1875 12.401155 8.598844 11.8125 7.875 11.8125 C 7.151156 11.8125 6.5625 12.401155 6.5625 13.125 Z M 11.8125 14.4375 C 11.8125 15.161343 12.401156 15.75 13.125 15.75 C 13.848844 15.75 14.4375 15.161343 14.4375 14.4375 C 14.4375 13.713655 13.848844 13.125 13.125 13.125 C 12.401156 13.125 11.8125 13.713655 11.8125 14.4375 Z M 19.6875 13.125 C 19.6875 12.401155 19.098843 11.8125 18.375 11.8125 C 17.651158 11.8125 17.0625 12.401155 17.0625 13.125 C 17.0625 13.848843 17.651158 14.4375 18.375 14.4375 C 19.098843 14.4375 19.6875 13.848843 19.6875 13.125 Z " fill-rule="evenodd"/>
</clipPath>
<g clip-path="url(#cp2)">
<path transform="matrix(1,0,0,-1,3.9375,34.197267)" d="M 12.055313 5.547358 L 11.392028 4.798992 L 12.964321 5.964136 L 12.055313 5.547358 Z M 11.116876 6.181953 L 10.379377 6.857303 L 9.483803 5.879313 L 10.670351 5.287182 L 11.116876 6.181953 Z M 7.258125 6.181953 L 7.704648 5.287182 L 8.891197 5.879313 L 7.995623 6.857303 L 7.258125 6.181953 Z M 6.319687 5.547358 L 5.410679 5.964136 L 6.982973 4.798992 L 6.319687 5.547358 Z M 2.038969 4.832045 L 2.522884 3.95693 L 3.654856 4.58288 L 2.764019 5.520741 L 2.038969 4.832045 Z M 0 .072265 L -1 .072265 L -1 -.927735 L 0 -.927735 L 0 .072265 Z M 1.3125 .072265 L 1.3125 -.927735 L 2.3125 -.927735 L 2.3125 .072265 L 1.3125 .072265 Z M 5.10825 3.730859 L 6.053359 3.404104 L 6.339951 4.233043 L 5.555464 4.625287 L 5.10825 3.730859 Z M 4.891688 2.789795 L 3.897926 2.90132 L 3.89781 2.900281 L 4.891688 2.789795 Z M 4.597687 .145108 L 3.60381 .255594 L 3.49333 -.738228 L 4.487145 -.848763 L 4.597687 .145108 Z M 5.901656 .000076 L 5.791115 -.993794 L 6.785042 -1.104342 L 6.895534 -.110409 L 5.901656 .000076 Z M 6.195656 2.644763 L 5.201798 2.75543 L 5.201778 2.75525 L 6.195656 2.644763 Z M 12.179344 2.644763 L 13.173222 2.75525 L 13.173202 2.75543 L 12.179344 2.644763 Z M 12.473344 .000076 L 11.479466 -.110409 L 11.589958 -1.104342 L 12.583885 -.993794 L 12.473344 .000076 Z M 13.777312 .145108 L 13.887854 -.848763 L 14.881669 -.738228 L 14.77119 .255594 L 13.777312 .145108 Z M 13.483313 2.789795 L 12.489331 2.680238 L 12.489434 2.67931 L 13.483313 2.789795 Z M 13.266749 3.730859 L 12.819536 4.625287 L 12.035049 4.233043 L 12.321641 3.404104 L 13.266749 3.730859 Z M 17.0625 .072265 L 16.0625 .072265 L 16.0625 -.927735 L 17.0625 -.927735 L 17.0625 .072265 Z M 18.375 .072265 L 18.375 -.927735 L 19.375 -.927735 L 19.375 .072265 L 18.375 .072265 Z M 16.336031 4.832045 L 15.610981 5.520741 L 14.720143 4.58288 L 15.852116 3.95693 L 16.336031 4.832045 Z M 10.8125 6.634765 C 10.8125 6.087773 10.940214 5.58007 11.146305 5.130579 L 12.964321 5.964136 C 12.865911 6.178771 12.8125 6.403445 12.8125 6.634765 L 10.8125 6.634765 Z M 12.718598 6.295724 C 12.371294 6.603544 11.983617 6.867022 11.563399 7.076725 L 10.670351 5.287182 C 10.931322 5.156948 11.173644 4.992547 11.392028 4.798992 L 12.718598 6.295724 Z M 11.854373 5.506604 C 12.437652 6.143558 12.8125 6.996185 12.8125 7.947266 L 10.8125 7.947266 C 10.8125 7.534658 10.65185 7.154849 10.379377 6.857303 L 11.854373 5.506604 Z M 12.8125 7.947266 C 12.8125 9.947238 11.187472 11.572266 9.1875 11.572266 L 9.1875 9.572266 C 10.082903 9.572266 10.8125 8.842669 10.8125 7.947266 L 12.8125 7.947266 Z M 9.1875 11.572266 C 7.187528 11.572266 5.5625 9.947238 5.5625 7.947266 L 7.5625 7.947266 C 7.5625 8.842669 8.292097 9.572266 9.1875 9.572266 L 9.1875 11.572266 Z M 5.5625 7.947266 C 5.5625 6.996185 5.937349 6.143558 6.520627 5.506604 L 7.995623 6.857303 C 7.72315 7.154849 7.5625 7.534658 7.5625 7.947266 L 5.5625 7.947266 Z M 6.811601 7.076725 C 6.391384 6.867022 6.003706 6.603544 5.656402 6.295724 L 6.982973 4.798992 C 7.201356 4.992547 7.443678 5.156948 7.704648 5.287182 L 6.811601 7.076725 Z M 7.228695 5.130579 C 7.434786 5.58007 7.5625 6.087773 7.5625 6.634765 L 5.5625 6.634765 C 5.5625 6.403445 5.509088 6.178771 5.410679 5.964136 L 7.228695 5.130579 Z M 7.5625 6.634765 C 7.5625 8.634738 5.937472 10.259766 3.9375 10.259766 L 3.9375 8.259766 C 4.832903 8.259766 5.5625 7.530169 5.5625 6.634765 L 7.5625 6.634765 Z M 3.9375 10.259766 C 1.937528 10.259766 .3125 8.634738 .3125 6.634765 L 2.3125 6.634765 C 2.3125 7.530169 3.042097 8.259766 3.9375 8.259766 L 3.9375 10.259766 Z M .3125 6.634765 C .3125 5.662242 .701634 4.787954 1.313919 4.143349 L 2.764019 5.520741 C 2.481179 5.818511 2.3125 6.208163 2.3125 6.634765 L .3125 6.634765 Z M 1.555054 5.70716 C .037118 4.867783 -1 3.248103 -1 1.384765 L 1 1.384765 C 1 2.487677 1.612695 3.45362 2.522884 3.95693 L 1.555054 5.70716 Z M -1 1.384765 L -1 .072265 L 1 .072265 L 1 1.384765 L -1 1.384765 Z M 0 -.927735 L 1.3125 -.927735 L 1.3125 1.072265 L 0 1.072265 L 0 -.927735 Z M 2.3125 .072265 L 2.3125 1.384765 L .3125 1.384765 L .3125 .072265 L 2.3125 .072265 Z M 2.3125 1.384765 C 2.3125 2.280168 3.042097 3.009765 3.9375 3.009765 L 3.9375 5.009765 C 1.937528 5.009765 .3125 3.384737 .3125 1.384765 L 2.3125 1.384765 Z M 3.9375 3.009765 C 4.189634 3.009765 4.433432 2.950234 4.661036 2.836432 L 5.555464 4.625287 C 5.061193 4.872422 4.512241 5.009765 3.9375 5.009765 L 3.9375 3.009765 Z M 4.163141 4.057615 C 4.038443 3.696936 3.943898 3.310961 3.897926 2.90132 L 5.885449 2.678271 C 5.912978 2.923567 5.970683 3.16497 6.053359 3.404104 L 4.163141 4.057615 Z M 3.89781 2.900281 L 3.60381 .255594 L 5.591565 .034622 L 5.885565 2.679309 L 3.89781 2.900281 Z M 4.487145 -.848763 L 5.791115 -.993794 L 6.012198 .993948 L 4.708229 1.13898 L 4.487145 -.848763 Z M 6.895534 -.110409 L 7.189534 2.534278 L 5.201778 2.75525 L 4.907779 .110562 L 6.895534 -.110409 Z M 7.189514 2.534098 C 7.303113 3.554297 8.161427 4.322265 9.1875 4.322265 L 9.1875 6.322265 C 7.142324 6.322265 5.428137 4.788105 5.201798 2.75543 L 7.189514 2.534098 Z M 9.1875 4.322265 C 10.213573 4.322265 11.071887 3.554297 11.185486 2.534098 L 13.173202 2.75543 C 12.946863 4.788105 11.232677 6.322265 9.1875 6.322265 L 9.1875 4.322265 Z M 11.185466 2.534278 L 11.479466 -.110409 L 13.467221 .110562 L 13.173222 2.75525 L 11.185466 2.534278 Z M 12.583885 -.993794 L 13.887854 -.848763 L 13.666771 1.13898 L 12.362803 .993948 L 12.583885 -.993794 Z M 14.77119 .255594 L 14.47719 2.900281 L 12.489434 2.67931 L 12.783435 .034623 L 14.77119 .255594 Z M 14.477293 2.899353 C 14.431864 3.31152 14.336079 3.69832 14.211859 4.057615 L 12.321641 3.404104 C 12.404796 3.163586 12.462573 2.923008 12.489331 2.680238 L 14.477293 2.899353 Z M 13.713964 2.836432 C 13.941568 2.950234 14.185367 3.009765 14.4375 3.009765 L 14.4375 5.009765 C 13.862759 5.009765 13.313807 4.872422 12.819536 4.625287 L 13.713964 2.836432 Z M 14.4375 3.009765 C 15.332903 3.009765 16.0625 2.280168 16.0625 1.384765 L 18.0625 1.384765 C 18.0625 3.384737 16.437474 5.009765 14.4375 5.009765 L 14.4375 3.009765 Z M 16.0625 1.384765 L 16.0625 .072265 L 18.0625 .072265 L 18.0625 1.384765 L 16.0625 1.384765 Z M 17.0625 -.927735 L 18.375 -.927735 L 18.375 1.072265 L 17.0625 1.072265 L 17.0625 -.927735 Z M 19.375 .072265 L 19.375 1.384765 L 17.375 1.384765 L 17.375 .072265 L 19.375 .072265 Z M 19.375 1.384765 C 19.375 3.248103 18.337882 4.867783 16.819947 5.70716 L 15.852116 3.95693 C 16.762307 3.45362 17.375 2.487677 17.375 1.384765 L 19.375 1.384765 Z M 17.06108 4.143349 C 17.673367 4.787954 18.0625 5.662242 18.0625 6.634765 L 16.0625 6.634765 C 16.0625 6.208163 15.893821 5.818511 15.610981 5.520741 L 17.06108 4.143349 Z M 18.0625 6.634765 C 18.0625 8.634738 16.437474 10.259766 14.4375 10.259766 L 14.4375 8.259766 C 15.332903 8.259766 16.0625 7.530169 16.0625 6.634765 L 18.0625 6.634765 Z M 14.4375 10.259766 C 12.437528 10.259766 10.8125 8.634738 10.8125 6.634765 L 12.8125 6.634765 C 12.8125 7.530169 13.542097 8.259766 14.4375 8.259766 L 14.4375 10.259766 Z M 3.625 6.634765 C 3.625 6.806324 3.765941 6.947266 3.9375 6.947266 L 3.9375 8.947266 C 2.661371 8.947266 1.625 7.910893 1.625 6.634765 L 3.625 6.634765 Z M 3.9375 6.947266 C 4.109059 6.947266 4.25 6.806324 4.25 6.634765 L 6.25 6.634765 C 6.25 7.910893 5.213629 8.947266 3.9375 8.947266 L 3.9375 6.947266 Z M 4.25 6.634765 C 4.25 6.463206 4.109059 6.322265 3.9375 6.322265 L 3.9375 4.322265 C 5.213629 4.322265 6.25 5.358637 6.25 6.634765 L 4.25 6.634765 Z M 3.9375 6.322265 C 3.765941 6.322265 3.625 6.463206 3.625 6.634765 L 1.625 6.634765 C 1.625 5.358637 2.661371 4.322265 3.9375 4.322265 L 3.9375 6.322265 Z M 8.875 7.947266 C 8.875 8.118824 9.015941 8.259766 9.1875 8.259766 L 9.1875 10.259766 C 7.911371 10.259766 6.875 9.223394 6.875 7.947266 L 8.875 7.947266 Z M 9.1875 8.259766 C 9.359059 8.259766 9.5 8.118824 9.5 7.947266 L 11.5 7.947266 C 11.5 9.223394 10.463629 10.259766 9.1875 10.259766 L 9.1875 8.259766 Z M 9.5 7.947266 C 9.5 7.775706 9.359059 7.634765 9.1875 7.634765 L 9.1875 5.634765 C 10.463629 5.634765 11.5 6.671137 11.5 7.947266 L 9.5 7.947266 Z M 9.1875 7.634765 C 9.015941 7.634765 8.875 7.775706 8.875 7.947266 L 6.875 7.947266 C 6.875 6.671137 7.911371 5.634765 9.1875 5.634765 L 9.1875 7.634765 Z M 14.75 6.634765 C 14.75 6.463206 14.609059 6.322265 14.4375 6.322265 L 14.4375 4.322265 C 15.713629 4.322265 16.75 5.358637 16.75 6.634765 L 14.75 6.634765 Z M 14.4375 6.322265 C 14.265941 6.322265 14.125 6.463206 14.125 6.634765 L 12.125 6.634765 C 12.125 5.358637 13.161371 4.322265 14.4375 4.322265 L 14.4375 6.322265 Z M 14.125 6.634765 C 14.125 6.806324 14.265941 6.947266 14.4375 6.947266 L 14.4375 8.947266 C 13.161371 8.947266 12.125 7.910893 12.125 6.634765 L 14.125 6.634765 Z M 14.4375 6.947266 C 14.609059 6.947266 14.75 6.806324 14.75 6.634765 L 16.75 6.634765 C 16.75 7.910893 15.713629 8.947266 14.4375 8.947266 L 14.4375 6.947266 Z " fill="currentColor"/>
</g>
<path transform="matrix(1,0,0,-1,22.3125,21)" d="M 11.8125 9.1875 L 10.618125 9.1875 L 10.776282 10.135125 C 10.900313 10.881281 10.691626 11.639906 10.20272 12.21675 C 9.713813 12.79425 8.999813 13.125 8.243813 13.125 C 7.338844 13.125 6.553313 12.511406 6.333469 11.634 C 6.095907 10.682437 5.603718 9.813562 4.910061 9.119249 L 4.716469 8.925656 C 4.497938 9.087749 4.230187 9.1875 3.9375 9.1875 L 1.3125 9.1875 C .588656 9.1875 0 8.598844 0 7.875 L 0 1.3125 C 0 .588656 .588656 0 1.3125 0 L 3.9375 0 C 4.510406 0 4.99275 .370782 5.171906 .883313 C 6.336094 .305813 7.615125 0 8.928281 0 L 11.8125 0 C 13.260187 0 14.4375 1.177313 14.4375 2.625 L 14.4375 6.5625 C 14.4375 8.010187 13.260187 9.1875 11.8125 9.1875 Z M 1.3125 1.3125 L 1.3125 7.875 L 3.9375 7.875 L 3.938156 1.3125 L 1.3125 1.3125 Z M 13.125 2.625 C 13.125 1.901156 12.536344 1.3125 11.8125 1.3125 L 8.928281 1.3125 C 7.625625 1.3125 6.362344 1.667532 5.25 2.334938 L 5.25 7.603313 L 5.838 8.191313 C 6.699656 9.052969 7.311937 10.133812 7.607249 11.315719 C 7.680093 11.60775 7.941937 11.8125 8.243813 11.8125 C 8.613281 11.8125 8.962406 11.651062 9.201282 11.368218 C 9.440156 11.086031 9.542533 10.71525 9.481502 10.350374 L 9.069375 7.875 L 11.8125 7.875 C 12.536344 7.875 13.125 7.286344 13.125 6.5625 L 13.125 2.625 Z " fill="currentColor"/>
<clipPath id="cp3">
<path transform="matrix(1,0,0,-1,0,40.6875)" d="M 34.125 28.875 L 32.930627 28.875 L 33.088785 29.822625 C 33.212816 30.56878 33.004129 31.327406 32.51522 31.904252 C 32.026315 32.48175 31.312314 32.8125 30.556313 32.8125 C 29.651345 32.8125 28.865815 32.198907 28.64597 31.321499 C 28.408408 30.369938 27.916218 29.501063 27.22256 28.80675 L 27.028969 28.613156 C 26.810439 28.77525 26.542687 28.875 26.25 28.875 L 23.625 28.875 C 22.901156 28.875 22.3125 28.286343 22.3125 27.5625 L 22.3125 21 C 22.3125 20.276158 22.901156 19.6875 23.625 19.6875 L 26.25 19.6875 C 26.822907 19.6875 27.30525 20.05828 27.484406 20.570813 C 28.648594 19.993313 29.927624 19.6875 31.24078 19.6875 L 34.125 19.6875 C 35.572687 19.6875 36.75 20.864813 36.75 22.3125 L 36.75 26.25 C 36.75 27.697688 35.572687 28.875 34.125 28.875 Z M 23.625 21 L 23.625 27.5625 L 26.25 27.5625 L 26.250657 21 L 23.625 21 Z M 35.4375 22.3125 C 35.4375 21.588658 34.848844 21 34.125 21 L 31.24078 21 C 29.938126 21 28.674843 21.355032 27.5625 22.022439 L 27.5625 27.290814 L 28.1505 27.878813 C 29.012156 28.740469 29.624438 29.821312 29.91975 31.00322 C 29.992594 31.29525 30.254437 31.5 30.556313 31.5 C 30.925782 31.5 31.274907 31.338562 31.513783 31.055718 C 31.752655 30.773531 31.855034 30.40275 31.794003 30.037875 L 31.381875 27.5625 L 34.125 27.5625 C 34.848844 27.5625 35.4375 26.973843 35.4375 26.25 L 35.4375 22.3125 Z " fill-rule="evenodd"/>
</clipPath>
<g clip-path="url(#cp3)">
<path transform="matrix(1,0,0,-1,22.3125,21)" d="M 10.618125 9.1875 L 9.631768 9.352121 L 9.437395 8.1875 L 10.618125 8.1875 L 10.618125 9.1875 Z M 10.776282 10.135125 L 11.762639 9.970504 L 11.762747 9.971148 L 10.776282 10.135125 Z M 10.20272 12.21675 L 9.439497 11.570614 L 9.43986 11.570186 L 10.20272 12.21675 Z M 6.333469 11.634 L 5.363455 11.877048 L 5.363248 11.876221 L 6.333469 11.634 Z M 4.910061 9.119249 L 5.617171 8.412146 L 5.617503 8.412477 L 4.910061 9.119249 Z M 4.716469 8.925656 L 4.120722 8.122484 L 4.813587 7.608557 L 5.423578 8.218552 L 4.716469 8.925656 Z M 5.171906 .883313 L 5.61629 1.77915 L 4.60165 2.282466 L 4.227916 1.213286 L 5.171906 .883313 Z M 1.3125 1.3125 L .3125 1.3125 L .3125 .3125 L 1.3125 .3125 L 1.3125 1.3125 Z M 1.3125 7.875 L 1.3125 8.875 L .3125 8.875 L .3125 7.875 L 1.3125 7.875 Z M 3.9375 7.875 L 4.9375 7.8751 L 4.9374 8.875 L 3.9375 8.875 L 3.9375 7.875 Z M 3.938156 1.3125 L 3.938156 .3125 L 4.938256 .3125 L 4.938156 1.3126 L 3.938156 1.3125 Z M 5.25 2.334938 L 4.25 2.334938 L 4.25 1.768747 L 4.735504 1.477445 L 5.25 2.334938 Z M 5.25 7.603313 L 4.542893 8.310419 L 4.25 8.017527 L 4.25 7.603313 L 5.25 7.603313 Z M 7.607249 11.315719 L 8.577424 11.07331 L 8.57752 11.073696 L 7.607249 11.315719 Z M 9.201282 11.368218 L 8.437289 10.722992 L 8.438029 10.722117 L 9.201282 11.368218 Z M 9.481502 10.350374 L 8.495203 10.515348 L 8.495079 10.514605 L 9.481502 10.350374 Z M 9.069375 7.875 L 8.082952 8.03923 L 7.88912 6.875 L 9.069375 6.875 L 9.069375 7.875 Z M 11.8125 10.1875 L 10.618125 10.1875 L 10.618125 8.1875 L 11.8125 8.1875 L 11.8125 10.1875 Z M 11.604482 9.022879 L 11.762639 9.970504 L 9.789926 10.299747 L 9.631768 9.352121 L 11.604482 9.022879 Z M 11.762747 9.971148 C 11.934867 11.006603 11.644905 12.061801 10.965579 12.863315 L 9.43986 11.570186 C 9.738346 11.218012 9.86576 10.75596 9.789818 10.299102 L 11.762747 9.971148 Z M 10.965941 12.862886 C 10.286949 13.664917 9.293748 14.125 8.243813 14.125 L 8.243813 12.125 C 8.705877 12.125 9.140676 11.923583 9.439498 11.570614 L 10.965941 12.862886 Z M 8.243813 14.125 C 6.879836 14.125 5.694696 13.199044 5.363455 11.877048 L 7.303483 11.390952 C 7.411931 11.823768 7.797852 12.125 8.243813 12.125 L 8.243813 14.125 Z M 5.363248 11.876221 C 5.169695 11.100937 4.768565 10.392502 4.202621 9.826022 L 5.617503 8.412477 C 6.43887 9.234623 7.022119 10.263937 7.30369 11.391779 L 5.363248 11.876221 Z M 4.202952 9.826355 L 4.00936 9.632761 L 5.423578 8.218552 L 5.61717 8.412146 L 4.202952 9.826355 Z M 5.312215 9.728828 C 4.936922 10.007199 4.463342 10.1875 3.9375 10.1875 L 3.9375 8.1875 C 3.997033 8.1875 4.058953 8.168301 4.120722 8.122484 L 5.312215 9.728828 Z M 3.9375 10.1875 L 1.3125 10.1875 L 1.3125 8.1875 L 3.9375 8.1875 L 3.9375 10.1875 Z M 1.3125 10.1875 C .036371 10.1875 -1 9.151129 -1 7.875 L 1 7.875 C 1 8.046558 1.140941 8.1875 1.3125 8.1875 L 1.3125 10.1875 Z M -1 7.875 L -1 1.3125 L 1 1.3125 L 1 7.875 L -1 7.875 Z M -1 1.3125 C -1 .036371 .036371 -1 1.3125 -1 L 1.3125 1 C 1.140941 1 1 1.140941 1 1.3125 L -1 1.3125 Z M 1.3125 -1 L 3.9375 -1 L 3.9375 1 L 1.3125 1 L 1.3125 -1 Z M 3.9375 -1 C 4.957594 -1 5.803905 -.339208 6.115897 .553339 L 4.227916 1.213286 C 4.181595 1.080771 4.063218 1 3.9375 1 L 3.9375 -1 Z M 4.727523 -.012524 C 6.027782 -.657523 7.458681 -1 8.928281 -1 L 8.928281 1 C 7.771569 1 6.644405 1.269149 5.61629 1.77915 L 4.727523 -.012524 Z M 8.928281 -1 L 11.8125 -1 L 11.8125 1 L 8.928281 1 L 8.928281 -1 Z M 11.8125 -1 C 13.812472 -1 15.4375 .625028 15.4375 2.625 L 13.4375 2.625 C 13.4375 1.729597 12.707903 1 11.8125 1 L 11.8125 -1 Z M 15.4375 2.625 L 15.4375 6.5625 L 13.4375 6.5625 L 13.4375 2.625 L 15.4375 2.625 Z M 15.4375 6.5625 C 15.4375 8.562472 13.812472 10.1875 11.8125 10.1875 L 11.8125 8.1875 C 12.707903 8.1875 13.4375 7.457903 13.4375 6.5625 L 15.4375 6.5625 Z M 2.3125 1.3125 L 2.3125 7.875 L .3125 7.875 L .3125 1.3125 L 2.3125 1.3125 Z M 1.3125 6.875 L 3.9375 6.875 L 3.9375 8.875 L 1.3125 8.875 L 1.3125 6.875 Z M 2.9375 7.8749 L 2.938156 1.3124 L 4.938156 1.3126 L 4.9375 7.8751 L 2.9375 7.8749 Z M 3.938156 2.3125 L 1.3125 2.3125 L 1.3125 .3125 L 3.938156 .3125 L 3.938156 2.3125 Z M 12.125 2.625 C 12.125 2.453441 11.984059 2.3125 11.8125 2.3125 L 11.8125 .3125 C 13.088629 .3125 14.125 1.348871 14.125 2.625 L 12.125 2.625 Z M 11.8125 2.3125 L 8.928281 2.3125 L 8.928281 .3125 L 11.8125 .3125 L 11.8125 2.3125 Z M 8.928281 2.3125 C 7.809133 2.3125 6.723377 2.617102 5.764496 3.19243 L 4.735504 1.477445 C 6.001311 .717961 7.442117 .3125 8.928281 .3125 L 8.928281 2.3125 Z M 6.25 2.334938 L 6.25 7.603313 L 4.25 7.603313 L 4.25 2.334938 L 6.25 2.334938 Z M 5.957107 6.896206 L 6.545107 7.484206 L 5.130893 8.898419 L 4.542893 8.310419 L 5.957107 6.896206 Z M 6.545107 7.484206 C 7.534791 8.47389 8.23811 9.7153 8.577423 11.07331 L 6.637075 11.558127 C 6.385764 10.552325 5.864522 9.632048 5.130893 8.898419 L 6.545107 7.484206 Z M 8.57752 11.073696 C 8.539173 10.919962 8.400643 10.8125 8.243813 10.8125 L 8.243813 12.8125 C 7.483232 12.8125 6.821013 12.295538 6.636979 11.557741 L 8.57752 11.073696 Z M 8.243813 10.8125 C 8.31975 10.8125 8.38903 10.780135 8.43729 10.722992 L 9.965272 12.013446 C 9.535782 12.52199 8.906813 12.8125 8.243813 12.8125 L 8.243813 10.8125 Z M 8.438029 10.722117 C 8.487391 10.663806 8.507609 10.58952 8.495203 10.515348 L 10.467799 10.1854 C 10.577456 10.840979 10.392921 11.508257 9.964533 12.01432 L 8.438029 10.722117 Z M 8.495079 10.514605 L 8.082952 8.03923 L 10.055797 7.71077 L 10.467923 10.186145 L 8.495079 10.514605 Z M 9.069375 6.875 L 11.8125 6.875 L 11.8125 8.875 L 9.069375 8.875 L 9.069375 6.875 Z M 11.8125 6.875 C 11.984059 6.875 12.125 6.734059 12.125 6.5625 L 14.125 6.5625 C 14.125 7.838628 13.088629 8.875 11.8125 8.875 L 11.8125 6.875 Z M 12.125 6.5625 L 12.125 2.625 L 14.125 2.625 L 14.125 6.5625 L 12.125 6.5625 Z " fill="currentColor"/>
</g>
</g>
</svg>
