<svg width="17" height="15" viewBox="0 0 17 15" fill="none" xmlns="http://www.w3.org/2000/svg">
<path d="M9.1876 14.0497C8.96021 13.8223 8.93953 13.4665 9.12559 13.2157L9.1876 13.1439L14.7126 7.61862L9.1876 2.09337C8.96021 1.86598 8.93953 1.51014 9.12559 1.25939L9.1876 1.18755C9.415 0.960149 9.77084 0.939476 10.0216 1.12553L10.0934 1.18755L16.0716 7.16571C16.299 7.39311 16.3197 7.74895 16.1336 7.9997L16.0716 8.07154L10.0934 14.0497C9.84329 14.2998 9.43774 14.2998 9.1876 14.0497Z" fill="currentColor" stroke="currentColor"/>
<path d="M1.1876 14.0497C0.960205 13.8223 0.939533 13.4665 1.12559 13.2157L1.1876 13.1439L6.71256 7.61862L1.1876 2.09337C0.960205 1.86598 0.939533 1.51014 1.12559 1.25939L1.1876 1.18755C1.415 0.960149 1.77084 0.939476 2.02159 1.12553L2.09343 1.18755L8.0716 7.16571C8.29899 7.39311 8.31967 7.74895 8.13361 7.9997L8.0716 8.07154L2.09343 14.0497C1.84329 14.2998 1.43774 14.2998 1.1876 14.0497Z" fill="currentColor" stroke="currentColor"/>
</svg>
