<svg width="19" height="21" viewBox="0 0 19 21" fill="none" xmlns="http://www.w3.org/2000/svg">
<path d="M9.5 0C6.44684 0 3.96289 2.48395 3.96289 5.53711C3.96289 8.59027 6.44684 11.0742 9.5 11.0742C12.5532 11.0742 15.0371 8.59027 15.0371 5.53711C15.0371 2.48395 12.5532 0 9.5 0Z" fill="#FFFFFF"/>
<path d="M16.3892 14.6916C14.8733 13.1524 12.8637 12.3047 10.7305 12.3047H8.26953C6.13639 12.3047 4.12671 13.1524 2.61077 14.6916C1.10226 16.2233 0.271484 18.2451 0.271484 20.3848C0.271484 20.7245 0.546945 21 0.886719 21H18.1133C18.4531 21 18.7285 20.7245 18.7285 20.3848C18.7285 18.2451 17.8977 16.2233 16.3892 14.6916Z" fill="#FFFFFF"/>
</svg>
