<svg width="21" height="21" viewBox="0 0 21 21" fill="none" xmlns="http://www.w3.org/2000/svg">
<path d="M17.2175 3.78248C15.4232 1.98818 13.0375 1 10.5 1C7.9625 1 5.57677 1.98818 3.78248 3.78248C1.98818 5.57677 1 7.9625 1 10.5C1 13.0375 1.98818 15.4232 3.78248 17.2175C5.57677 19.0118 7.9625 20 10.5 20C13.0375 20 15.4232 19.0118 17.2175 17.2175C19.0118 15.4232 20 13.0375 20 10.5C20 7.9625 19.0118 5.57677 17.2175 3.78248ZM5.12305 16.9309C5.43674 14.2318 7.75739 12.1479 10.5 12.1479C11.9458 12.1479 13.3054 12.7112 14.3281 13.7337C15.192 14.5978 15.7369 15.726 15.8771 16.9308C14.4203 18.1509 12.5445 18.8867 10.5 18.8867C8.45551 18.8867 6.57989 18.1511 5.12305 16.9309ZM10.5 11.0013C8.90908 11.0013 7.6146 9.70679 7.6146 8.11587C7.6146 6.5248 8.90908 5.23047 10.5 5.23047C12.0909 5.23047 13.3854 6.5248 13.3854 8.11587C13.3854 9.70679 12.0909 11.0013 10.5 11.0013ZM16.8353 15.9897C16.5516 14.846 15.96 13.7914 15.1152 12.9466C14.431 12.2624 13.6215 11.7491 12.7387 11.4274C13.8 10.7077 14.4987 9.49181 14.4987 8.11587C14.4987 5.91105 12.7048 4.11719 10.5 4.11719C8.29518 4.11719 6.50132 5.91105 6.50132 8.11587C6.50132 9.49254 7.2006 10.7089 8.26271 11.4285C7.45051 11.7245 6.6989 12.1821 6.05224 12.7845C5.11581 13.6566 4.46552 14.7686 4.16401 15.9889C2.88707 14.5168 2.11328 12.5971 2.11328 10.5C2.11328 5.87553 5.87553 2.11328 10.5 2.11328C15.1245 2.11328 18.8867 5.87553 18.8867 10.5C18.8867 12.5975 18.1126 14.5177 16.8353 15.9897Z" fill="currentColor" stroke="currentColor" stroke-width="0.5"/>
</svg>
