<svg width="33" height="10" viewBox="0 0 33 10" fill="none" xmlns="http://www.w3.org/2000/svg">
<path d="M12.6108 9.74454L14.2461 0.546387H16.8011L15.217 9.74454H12.6108Z" fill="#3C58BF"/>
<path d="M12.6108 9.74454L14.706 0.546387H16.8011L15.217 9.74454H12.6108Z" fill="#293688"/>
<path d="M24.4664 0.648553C23.9554 0.444149 23.1378 0.239746 22.1157 0.239746C19.5607 0.239746 17.7211 1.51727 17.7211 3.3569C17.7211 4.73662 18.9986 5.45203 20.0206 5.91194C21.0426 6.37185 21.3492 6.67845 21.3492 7.08726C21.3492 7.70047 20.5316 8.00708 19.8162 8.00708C18.7942 8.00708 18.2321 7.85378 17.3634 7.49607L17.0057 7.34277L16.6479 9.4379C17.2612 9.69341 18.3854 9.94891 19.5607 9.94891C22.269 9.94891 24.0576 8.67139 24.0576 6.72956C24.0576 5.65644 23.3933 4.83882 21.8602 4.17451C20.9404 3.7146 20.3783 3.4591 20.3783 2.99919C20.3783 2.59039 20.8382 2.18158 21.8602 2.18158C22.729 2.18158 23.3422 2.33488 23.8021 2.53929L24.0576 2.64149L24.4664 0.648553Z" fill="#3C58BF"/>
<path d="M24.4664 0.648553C23.9554 0.444149 23.1378 0.239746 22.1157 0.239746C19.5607 0.239746 18.181 1.51727 18.181 3.3569C18.181 4.73662 18.9986 5.45203 20.0206 5.91194C21.0426 6.37185 21.3492 6.67845 21.3492 7.08726C21.3492 7.70047 20.5316 8.00708 19.8162 8.00708C18.7942 8.00708 18.2321 7.85378 17.3634 7.49607L17.0057 7.34277L16.6479 9.4379C17.2612 9.69341 18.3854 9.94891 19.5607 9.94891C22.269 9.94891 24.0576 8.67139 24.0576 6.72956C24.0576 5.65644 23.3933 4.83882 21.8602 4.17451C20.9404 3.7146 20.3783 3.4591 20.3783 2.99919C20.3783 2.59039 20.8382 2.18158 21.8602 2.18158C22.729 2.18158 23.3422 2.33488 23.8021 2.53929L24.0576 2.64149L24.4664 0.648553Z" fill="#293688"/>
<path d="M28.8609 0.546387C28.2477 0.546387 27.7878 0.597488 27.5323 1.2107L23.6997 9.74454H26.4592L26.9702 8.21152H30.2406L30.5472 9.74454H33.0001L30.8538 0.546387H28.8609ZM27.6856 6.67849C27.8389 6.21858 28.7076 3.97015 28.7076 3.97015C28.7076 3.97015 28.912 3.40804 29.0653 3.05033L29.2186 3.91904C29.2186 3.91904 29.7296 6.21859 29.8318 6.72959H27.6856V6.67849Z" fill="#3C58BF"/>
<path d="M29.4741 0.546387C28.8609 0.546387 28.401 0.597488 28.1455 1.2107L23.6997 9.74454H26.4592L26.9702 8.21152H30.2406L30.5472 9.74454H33.0001L30.8538 0.546387H29.4741ZM27.6856 6.67849C27.89 6.16748 28.7076 3.97015 28.7076 3.97015C28.7076 3.97015 28.912 3.40804 29.0653 3.05033L29.2186 3.91904C29.2186 3.91904 29.7296 6.21859 29.8318 6.72959H27.6856V6.67849Z" fill="#293688"/>
<path d="M7.90971 6.98501L7.6542 5.65639C7.1943 4.12336 5.71237 2.43704 4.07715 1.61943L6.37668 9.79555H9.13612L13.2753 0.597412H10.5158L7.90971 6.98501Z" fill="#3C58BF"/>
<path d="M7.90971 6.98501L7.6542 5.65639C7.1943 4.12336 5.71237 2.43704 4.07715 1.61943L6.37668 9.79555H9.13612L13.2753 0.597412H11.0269L7.90971 6.98501Z" fill="#293688"/>
<path d="M0.806641 0.546387L1.26655 0.648589C4.537 1.4151 6.78544 3.35693 7.65415 5.65647L6.73433 1.3129C6.58103 0.699689 6.12112 0.546387 5.55902 0.546387H0.806641Z" fill="#FFBC00"/>
<path d="M0.806641 0.546387C4.07709 1.3129 6.78544 3.30584 7.65415 5.60537L6.78544 1.97721C6.63213 1.364 6.12112 1.0063 5.55902 1.0063L0.806641 0.546387Z" fill="#F7981D"/>
<path d="M0.806641 0.546387C4.07709 1.3129 6.78544 3.30584 7.65415 5.60537L7.04094 3.61244C6.88764 2.99923 6.68323 2.38602 5.96782 2.13051L0.806641 0.546387Z" fill="#ED7C00"/>
<path d="M10.4644 6.67845L8.727 4.94102L7.90939 6.88285L7.70499 5.60533C7.24508 4.0723 5.76316 2.38597 4.12793 1.56836L6.42747 9.7445H9.18691L10.4644 6.67845Z" fill="#051244"/>
<path d="M15.2165 9.74454L13.0192 7.49609L12.6104 9.74454H15.2165Z" fill="#051244"/>
<path d="M21.0932 6.57642C21.2976 6.78082 21.3998 6.93412 21.3487 7.13853C21.3487 7.75173 20.5311 8.05834 19.8157 8.05834C18.7937 8.05834 18.2316 7.90504 17.3629 7.54733L17.0052 7.39403L16.6475 9.48916C17.2607 9.74466 18.3849 10.0002 19.5602 10.0002C21.1954 10.0002 22.5241 9.54026 23.2906 8.72265L21.0932 6.57642Z" fill="#051244"/>
<path d="M24.0571 9.74475H26.4589L26.9699 8.21173H30.2403L30.5469 9.74475H32.9998L32.1311 6.01439L29.065 3.05054L29.2183 3.86815C29.2183 3.86815 29.7293 6.16769 29.8315 6.6787H27.6853C27.8897 6.16769 28.7073 3.97035 28.7073 3.97035C28.7073 3.97035 28.9117 3.40824 29.065 3.05054" fill="#051244"/>
</svg>
